<?xml version="1.0" standalone="no"?>
<!DOCTYPE svg PUBLIC "-//W3C//DTD SVG 1.1//EN" "http://www.w3.org/Graphics/SVG/1.1/DTD/svg11.dtd" >
<svg xmlns="http://www.w3.org/2000/svg">
<metadata>
Created by FontForge 20110222 at Wed Aug 19 16:00:51 2015
 By U-NT AUTHORITY\NetworkService,S-1-5-20
Copyright(c) VisbyRoundCF-Bold
</metadata>
<defs>
<font id="VisbyRoundCF-Bold" horiz-adv-x="602" >
  <font-face 
    font-family="VisbyRoundCF-Bold"
    font-weight="400"
    font-stretch="normal"
    units-per-em="1000"
    panose-1="2 1 6 0 3 1 1 1 1 1"
    ascent="860"
    descent="-140"
    x-height="493"
    cap-height="700"
    bbox="-223.489 -239 1205 980"
    underline-thickness="40"
    underline-position="-60"
    unicode-range="U+0020-FB02"
  />
<missing-glyph horiz-adv-x="1000" 
d="M33 0v667h267v-667h-267zM67 33h200v600h-200v-600z" />
    <glyph glyph-name="f_f" unicode="ff" horiz-adv-x="806" 
d="M80 520c-9 126 55 187 168 187c43 0 82 -13 119 -36c37 -22 18 -88 -26 -83c-32 4 -61 24 -93 24c-54 0 -59 -38 -58 -92c58 1 125 9 125 -47c0 -57 -67 -49 -125 -48v-376c1 -30 -25 -55 -55 -55s-56 25 -55 55v376c-53 -11 -86 45 -52 81c13 14 28 15 52 14zM483 520
c-9 126 55 187 168 187c43 0 82 -13 119 -36c37 -22 18 -88 -26 -83c-32 4 -61 24 -93 24c-54 0 -59 -38 -58 -92c58 1 125 9 125 -47c0 -57 -67 -49 -125 -48v-376c1 -29 -26 -55 -55 -55s-55 26 -55 55v376c-53 -11 -86 45 -52 81c13 14 28 15 52 14z" />
    <glyph glyph-name="fl" unicode="fl" horiz-adv-x="614" 
d="M437 657c3 26 26 49 56 49s56 -26 56 -56v-600c1 -30 -26 -56 -56 -56s-56 26 -56 56v497c-45 42 -153 96 -223 43c-20 -15 -26 -38 -24 -70c58 1 125 9 125 -47c0 -57 -67 -49 -125 -48v-376c1 -30 -25 -55 -55 -55s-56 25 -55 55v376c-53 -11 -86 45 -52 81
c13 14 28 15 52 14c-21 199 226 230 357 137z" />
    <glyph glyph-name="f_t" unicode="ft" horiz-adv-x="744" 
d="M627 87c39 8 85 2 84 -41c0 -36 -34 -54 -102 -54c-87 0 -125 42 -125 140v293h-294v-376c1 -30 -25 -55 -55 -55s-56 25 -55 55v376c-53 -11 -86 45 -52 81c13 14 28 15 52 14c-9 126 55 187 168 187c43 0 82 -13 119 -36c37 -22 18 -88 -26 -83c-32 4 -61 24 -93 24
c-54 0 -59 -38 -58 -92h294c-7 54 9 96 55 96s62 -42 55 -96c55 2 115 6 115 -47c1 -53 -59 -51 -115 -48v-295c0 -29 11 -43 33 -43z" />
    <glyph glyph-name=".notdef" horiz-adv-x="1000" 
d="M33 0v667h267v-667h-267zM67 33h200v600h-200v-600z" />
    <glyph glyph-name=".null" horiz-adv-x="0" 
 />
    <glyph glyph-name=".null" horiz-adv-x="0" 
 />
    <glyph glyph-name="nonmarkingreturn" horiz-adv-x="1000" 
 />
    <glyph glyph-name="space" unicode=" " horiz-adv-x="280" 
 />
    <glyph glyph-name="exclam" unicode="!" horiz-adv-x="274" 
d="M76 641c-1 33 29 62 62 62c32 0 61 -30 61 -62v-375c1 -32 -29 -62 -61 -62c-34 0 -62 28 -62 62v375zM183 107c40 -40 9 -110 -45 -110c-35 0 -65 30 -65 65c0 54 70 85 110 45z" />
    <glyph glyph-name="quotedbl" unicode="&#x22;" horiz-adv-x="407" 
d="M40 574c0 64 -7 132 55 132c61 0 55 -68 55 -132c0 -29 -26 -55 -55 -55s-55 26 -55 55zM247 651c-1 29 26 55 55 55s55 -26 55 -55v-77c1 -28 -27 -55 -55 -55s-55 27 -55 55v77z" />
    <glyph glyph-name="numbersign" unicode="#" horiz-adv-x="562" 
d="M451 520c53 11 86 -45 52 -81c-14 -15 -33 -15 -59 -14l-11 -150c62 15 108 -36 70 -81c-16 -19 -45 -13 -76 -14l-10 -135c0 -28 -26 -51 -54 -51c-30 0 -57 29 -55 59l9 127h-102l-10 -135c0 -28 -26 -51 -54 -51c-30 0 -57 29 -55 59l9 127c-71 -14 -80 96 -12 95h19
l11 150c-44 -6 -78 10 -78 48c0 39 38 54 84 47l10 135c0 28 26 51 54 51c30 0 57 -29 55 -59l-9 -127h102l10 135c0 28 26 51 54 51c30 0 57 -29 55 -59zM221 275h103l11 150h-103z" />
    <glyph glyph-name="dollar" unicode="$" horiz-adv-x="570" 
d="M400 557c-44 77 -234 75 -234 -32c0 -78 80 -88 145 -113c119 -46 208 -87 214 -221c5 -109 -98 -176 -192 -193c5 -50 -3 -94 -47 -94s-54 42 -48 92c-79 11 -139 49 -184 111c-39 54 48 114 84 58c26 -42 79 -74 143 -75c66 0 134 34 132 101c-3 95 -96 108 -176 138
c-98 35 -181 78 -183 196c-2 100 90 168 184 179c-16 66 32 118 81 78c20 -16 13 -48 14 -80c58 -11 106 -40 145 -86c25 -31 1 -79 -38 -79c-17 0 -32 6 -40 20z" />
    <glyph glyph-name="percent" unicode="%" horiz-adv-x="698" 
d="M35 582c0 67 57 123 123 123c67 0 124 -56 124 -123c0 -66 -57 -123 -124 -123c-66 0 -123 57 -123 123zM195 37c-33 -56 -124 0 -86 57l384 571c33 56 123 0 85 -57zM158 543c49 0 47 77 0 77c-22 0 -40 -17 -40 -38s18 -39 40 -39zM416 118c0 67 57 123 123 123
c67 0 124 -56 124 -123c0 -66 -57 -123 -124 -123c-66 0 -123 57 -123 123zM539 79c46 0 50 77 0 77c-22 0 -40 -17 -40 -38s18 -39 40 -39z" />
    <glyph glyph-name="ampersand" unicode="&#x26;" horiz-adv-x="745" 
d="M552 416c57 0 123 9 123 -47c-1 -36 -32 -55 -75 -48v-176c1 -49 17 -60 67 -52c26 4 49 -22 48 -47c-1 -34 -28 -51 -83 -51c-73 0 -112 43 -107 119c-37 -70 -106 -121 -207 -123c-129 -2 -253 90 -253 220c0 110 77 199 173 208l-101 173c-34 57 12 108 66 108h296
c60 4 64 -95 0 -95h-264l110 -192c22 -31 11 -72 -31 -69c-82 3 -139 -57 -139 -133c0 -74 65 -125 143 -125c92 0 172 48 172 140v128c-1 35 27 62 62 62z" />
    <glyph glyph-name="quotesingle" unicode="'" horiz-adv-x="190" 
d="M40 574c0 64 -7 132 55 132c61 0 55 -68 55 -132c0 -29 -26 -55 -55 -55s-55 26 -55 55z" />
    <glyph glyph-name="parenleft" unicode="(" horiz-adv-x="264" 
d="M226 -69c24 -57 -62 -94 -89 -40c-116 233 -122 604 0 834c27 51 114 16 88 -41c-96 -215 -89 -537 1 -753z" />
    <glyph glyph-name="parenright" unicode=")" horiz-adv-x="264" 
d="M39 684c-25 56 60 93 88 41c123 -230 115 -601 0 -834c-26 -52 -114 -19 -89 40c90 216 97 538 1 753z" />
    <glyph glyph-name="asterisk" unicode="*" horiz-adv-x="490" 
d="M204 417c-31 -49 -110 5 -73 54l42 56c-38 14 -96 12 -98 62c-2 25 23 52 49 45l78 -20c0 51 -16 118 42 120c55 2 45 -66 44 -120c45 11 127 46 127 -25c0 -50 -60 -48 -98 -62c16 -28 47 -45 51 -83c5 -43 -57 -62 -82 -27l-41 58z" />
    <glyph glyph-name="plus" unicode="+" horiz-adv-x="438" 
d="M219 449c56 0 45 -70 45 -127c57 0 129 11 129 -45s-72 -45 -129 -45c-1 -58 12 -131 -45 -131s-45 73 -45 131c-57 1 -129 -12 -129 45s72 45 129 45c0 57 -11 127 45 127z" />
    <glyph glyph-name="comma" unicode="," horiz-adv-x="199" 
d="M133 -103c-13 -36 -75 -44 -101 -19c-8 8 -10 22 -4 37c18 44 16 123 74 124c47 1 110 4 79 -54z" />
    <glyph glyph-name="hyphen" unicode="-" horiz-adv-x="412" 
d="M45 277c0 24 21 46 45 45h232c24 1 45 -21 45 -45s-21 -46 -45 -45h-232c-24 -1 -45 21 -45 45z" />
    <glyph glyph-name="period" unicode="." horiz-adv-x="205" 
d="M167 62c0 -34 -30 -65 -64 -65c-55 0 -86 70 -46 110s110 9 110 -45z" />
    <glyph glyph-name="slash" unicode="/" horiz-adv-x="498" 
d="M352 717c11 41 72 46 92 10c9 -16 12 -32 6 -47l-304 -782c-11 -41 -72 -46 -92 -10c-9 16 -12 32 -6 47z" />
    <glyph glyph-name="zero" unicode="0" horiz-adv-x="674" 
d="M45 339c0 211 107 368 292 368c186 0 292 -157 292 -368c0 -196 -113 -344 -292 -344c-178 0 -292 148 -292 344zM519 339c0 149 -44 273 -182 273s-182 -124 -182 -273c0 -129 55 -249 182 -249s182 120 182 249z" />
    <glyph glyph-name="one" unicode="1" horiz-adv-x="344" 
d="M45 653c1 68 97 43 162 47c35 2 63 -27 62 -62v-588c1 -28 -27 -55 -55 -55s-55 27 -55 55v555c-56 -3 -115 -5 -114 48z" />
    <glyph glyph-name="two" unicode="2" horiz-adv-x="553" 
d="M356 422c70 75 15 196 -85 188c-59 -5 -107 -34 -118 -88c-8 -40 -73 -57 -97 -18c-10 16 -13 31 -8 49c25 87 111 154 223 154c169 0 304 -191 185 -331c-84 -99 -184 -187 -273 -281h277c25 1 48 -22 48 -47c0 -26 -22 -49 -48 -48h-322c-73 -7 -119 81 -63 137
c95 93 190 188 281 285z" />
    <glyph glyph-name="three" unicode="3" horiz-adv-x="582" 
d="M114 605c-60 -4 -65 95 0 95h313c58 6 110 -61 65 -115l-140 -168c91 -17 185 -93 185 -203c0 -186 -245 -286 -401 -182c-42 28 -69 65 -87 110c-25 66 85 106 103 33c13 -52 72 -90 133 -90c72 0 145 47 142 129c-3 88 -72 112 -148 129c-49 11 -48 61 -20 96l133 166
h-278z" />
    <glyph glyph-name="four" unicode="4" horiz-adv-x="558" 
d="M387 -6c-84 0 -47 124 -55 202h-212c-64 -4 -96 56 -57 109l266 361c21 32 62 49 94 21c13 -11 19 -29 19 -50v-346c61 15 104 -38 67 -81c-15 -17 -38 -14 -67 -14c-8 -79 29 -202 -55 -202zM332 497l-147 -206h147v206z" />
    <glyph glyph-name="five" unicode="5" horiz-adv-x="555" 
d="M400 231c0 128 -141 184 -236 117c-51 -36 -119 11 -112 68l29 232c3 29 28 52 59 52h262c25 1 48 -22 48 -47c0 -26 -22 -49 -48 -48h-221l-19 -157c163 76 348 -46 348 -217c0 -133 -113 -241 -244 -241c-89 0 -160 32 -211 97c-41 51 40 116 80 62
c32 -43 77 -65 131 -64c70 1 134 64 134 146z" />
    <glyph glyph-name="six" unicode="6" horiz-adv-x="555" 
d="M279 -10c-135 2 -265 125 -227 281c25 103 89 171 142 245l121 169c33 54 119 -3 80 -57l-140 -192c128 23 255 -104 255 -224c0 -118 -115 -224 -231 -222zM405 212c0 66 -62 125 -127 125c-114 0 -169 -139 -90 -215s217 -18 217 90z" />
    <glyph glyph-name="seven" unicode="7" horiz-adv-x="553" 
d="M35 653c0 25 23 47 48 47h361c51 4 92 -48 66 -103l-262 -572c-23 -63 -125 -20 -95 44l252 536h-322c-26 -1 -48 22 -48 48z" />
    <glyph glyph-name="eight" unicode="8" horiz-adv-x="545" 
d="M273 707c164 0 256 -198 140 -311c112 -67 125 -255 21 -340c-49 -40 -102 -63 -161 -63c-117 0 -233 98 -233 221c0 79 31 140 92 182c-117 112 -24 311 141 311zM332 462c51 53 13 147 -59 147c-46 0 -84 -42 -84 -87c0 -71 91 -115 143 -60zM194 303
c-72 -70 -25 -211 79 -211c62 0 116 57 116 122c0 104 -120 161 -195 89z" />
    <glyph glyph-name="nine" unicode="9" horiz-adv-x="555" 
d="M45 487c0 118 115 224 231 222c135 -2 266 -125 228 -281c-25 -103 -90 -171 -143 -245l-121 -169c-33 -54 -119 3 -80 57l140 192c-128 -23 -255 104 -255 224zM150 487c0 -66 62 -125 127 -125c114 0 170 138 91 214s-218 19 -218 -89z" />
    <glyph glyph-name="colon" unicode=":" horiz-adv-x="236" 
d="M172 456c0 -34 -30 -65 -64 -65c-55 0 -86 70 -46 110s110 9 110 -45zM172 62c0 -34 -30 -65 -64 -65c-55 0 -86 70 -46 110s110 9 110 -45z" />
    <glyph glyph-name="semicolon" unicode=";" horiz-adv-x="265" 
d="M191 516c0 -34 -30 -65 -64 -65c-35 0 -65 30 -65 65c0 34 31 64 65 64c33 0 64 -31 64 -64zM103 -103c-13 -36 -75 -44 -101 -19c-8 8 -10 22 -4 37c18 44 16 123 74 124c47 1 110 4 79 -54z" />
    <glyph glyph-name="less" unicode="&#x3c;" horiz-adv-x="455" 
d="M395 114c54 -22 13 -110 -43 -81l-261 138c-61 28 -59 106 0 138l262 140c52 28 96 -53 42 -81l-245 -128z" />
    <glyph glyph-name="equal" unicode="=" horiz-adv-x="426" 
d="M46 357c0 25 23 46 48 45h251c40 3 68 -50 35 -77c-10 -9 -22 -13 -35 -13h-251c-25 -1 -48 20 -48 45zM46 197c0 25 23 46 48 45h251c40 3 68 -50 35 -77c-10 -9 -22 -13 -35 -13h-251c-25 -1 -48 20 -48 45z" />
    <glyph glyph-name="greater" unicode="&#x3e;" horiz-adv-x="497" 
d="M102 368c-54 24 -11 110 42 81l262 -140c61 -28 59 -107 0 -138l-261 -138c-52 -32 -97 53 -43 81l245 126z" />
    <glyph glyph-name="question" unicode="?" horiz-adv-x="543" 
d="M45 486c-6 129 107 221 229 221c118 0 224 -86 224 -206c0 -148 -152 -144 -149 -294h-114c-6 128 90 165 137 240c45 72 -3 165 -98 165c-75 0 -119 -54 -119 -126h-110zM245 107c40 40 110 9 110 -45c0 -34 -30 -65 -64 -65c-55 0 -86 70 -46 110z" />
    <glyph glyph-name="at" unicode="@" horiz-adv-x="803" 
d="M483 481c-3 26 13 44 36 44c23 1 41 -19 41 -41v-170c1 -39 8 -58 43 -59c29 0 44 31 44 92c0 144 -107 261 -242 261c-139 0 -249 -115 -249 -262c0 -183 204 -327 364 -219c55 37 112 -46 55 -84c-131 -89 -327 -37 -413 49c-57 57 -108 146 -112 254
c-7 194 171 361 355 361c186 0 348 -166 348 -361c0 -135 -112 -237 -228 -162c-6 4 -17 16 -24 23c-105 -119 -278 -15 -278 140c0 121 113 227 225 170c21 -11 32 -23 35 -36zM391 255c102 -1 101 184 0 179c-100 3 -98 -181 0 -179z" />
    <glyph glyph-name="A" unicode="A" horiz-adv-x="716" 
d="M150 27c-23 -66 -130 -23 -100 45l263 592c22 52 68 52 90 0l263 -592c32 -65 -71 -111 -100 -45l-75 169h-266zM358 514l-97 -222h194z" />
    <glyph glyph-name="B" unicode="B" horiz-adv-x="616" 
d="M305 700c125 1 221 -60 220 -182c0 -63 -29 -106 -88 -131c89 -35 134 -95 134 -181c0 -141 -106 -206 -258 -206h-181c-35 -1 -63 27 -62 62v576c-1 35 27 63 62 62h173zM415 518c0 102 -128 87 -233 86v-180h123c66 -1 110 32 110 94zM461 206c-2 80 -59 122 -148 122
h-131v-232c129 -2 282 -16 279 110z" />
    <glyph glyph-name="C" unicode="C" horiz-adv-x="634" 
d="M569 46c-231 -153 -535 48 -524 303c9 207 143 358 347 358c62 0 120 -19 177 -53c60 -36 0 -134 -60 -92c-156 112 -346 -39 -346 -212s190 -324 345 -212c58 41 122 -51 61 -92z" />
    <glyph glyph-name="D" unicode="D" horiz-adv-x="695" 
d="M70 638c-1 35 27 63 62 62h163c185 6 350 -162 350 -348c0 -189 -162 -358 -350 -352h-163c-35 -1 -63 27 -62 62v576zM532 352c0 139 -98 256 -237 252h-112v-508h112c141 -3 237 115 237 256z" />
    <glyph glyph-name="E" unicode="E" horiz-adv-x="590" 
d="M430 352c0 -27 -24 -51 -50 -50h-199v-203h309c26 1 50 -23 50 -49c0 -27 -24 -51 -50 -50h-363c-35 -1 -63 27 -62 62v576c-1 35 27 63 62 62h353c26 1 50 -23 50 -49c0 -27 -24 -51 -50 -50h-299v-200h199c26 1 50 -23 50 -49z" />
    <glyph glyph-name="F" unicode="F" horiz-adv-x="569" 
d="M479 700c26 1 50 -23 50 -49c0 -27 -24 -51 -50 -50h-299v-205h239c26 1 50 -23 50 -50s-24 -51 -50 -50h-239v-244c1 -29 -27 -58 -57 -58c-31 0 -59 28 -58 58v586c-1 35 27 63 62 62h352z" />
    <glyph glyph-name="G" unicode="G" horiz-adv-x="750" 
d="M455 292c2 76 114 44 186 50c40 3 69 -28 63 -68c-20 -155 -144 -286 -312 -281c-203 6 -347 150 -347 357s144 357 347 357c80 0 147 -21 204 -60s-4 -130 -62 -88c-159 117 -372 -26 -372 -208c0 -168 195 -328 346 -213c34 26 59 61 74 104c-60 -1 -127 -8 -127 50z
" />
    <glyph glyph-name="H" unicode="H" horiz-adv-x="698" 
d="M65 646c-3 48 64 78 97 40c11 -11 16 -25 16 -40v-251h342v251c-3 48 63 78 96 40c11 -11 17 -25 17 -40v-592c1 -30 -26 -57 -56 -57c-31 0 -58 27 -57 57v244h-342v-244c1 -30 -26 -57 -56 -57c-31 0 -58 27 -57 57v592z" />
    <glyph glyph-name="I" unicode="I" horiz-adv-x="245" 
d="M65 645c-1 30 27 58 58 58c30 0 57 -29 57 -58v-593c1 -29 -27 -58 -57 -58c-31 0 -59 28 -58 58v593z" />
    <glyph glyph-name="J" unicode="J" horiz-adv-x="550" 
d="M375 648c-1 28 27 55 55 55s55 -27 55 -55v-383c5 -172 -91 -272 -245 -272c-59 0 -110 16 -155 46c-56 37 6 125 60 83c27 -19 58 -29 94 -29c111 -2 136 78 136 193v362z" />
    <glyph glyph-name="K" unicode="K" horiz-adv-x="690" 
d="M70 649c-2 47 63 77 97 40c11 -12 17 -25 17 -40v-373l345 411c39 53 124 -12 79 -65l-226 -267l250 -277c45 -46 -30 -116 -75 -67l-240 266l-133 -157c5 -64 1 -125 -57 -126c-30 -1 -57 27 -57 57v598z" />
    <glyph glyph-name="L" unicode="L" horiz-adv-x="574" 
d="M70 645c-3 49 63 79 96 41c11 -11 17 -25 17 -41v-550h303c60 4 64 -95 0 -95h-354c-35 -1 -63 27 -62 62v583z" />
    <glyph glyph-name="M" unicode="M" horiz-adv-x="888" 
d="M70 651c-1 30 23 52 50 52c25 0 45 -13 60 -38l264 -472l264 472c22 54 110 50 110 -14v-596c1 -30 -27 -58 -58 -58c-30 0 -57 29 -57 58v377l-208 -374c-21 -43 -79 -41 -102 0l-208 374v-377c1 -29 -27 -58 -57 -58c-31 0 -59 28 -58 58v596z" />
    <glyph glyph-name="N" unicode="N" horiz-adv-x="687" 
d="M507 645c-1 30 27 58 58 58c30 0 57 -29 57 -58v-599c2 -64 -74 -61 -106 -18l-336 458v-433c1 -29 -27 -58 -57 -58c-31 0 -59 28 -58 58v598c-1 62 78 63 110 19l332 -456v431z" />
    <glyph glyph-name="O" unicode="O" horiz-adv-x="796" 
d="M50 350c0 208 144 357 348 357s348 -149 348 -357s-144 -357 -348 -357s-348 149 -348 357zM398 100c127 0 230 116 230 250c0 135 -102 250 -230 250c-127 0 -230 -116 -230 -250c0 -135 103 -250 230 -250z" />
    <glyph glyph-name="P" unicode="P" horiz-adv-x="620" 
d="M70 638c-1 35 27 63 62 62c145 -2 288 11 368 -60c88 -79 89 -231 0 -308c-71 -62 -187 -62 -317 -60v-221c1 -30 -26 -57 -56 -57c-31 0 -58 27 -57 57v587zM460 486c0 130 -145 120 -277 117v-234h127c100 0 150 39 150 117z" />
    <glyph glyph-name="Q" unicode="Q" horiz-adv-x="794" 
d="M398 707c204 0 348 -149 348 -357c0 -98 -34 -182 -102 -251c14 -15 39 -31 39 -58c0 -40 -52 -62 -80 -33l-32 33c-55 -32 -112 -48 -173 -48c-204 0 -348 149 -348 357s144 357 348 357zM398 600c-127 2 -230 -116 -230 -250c0 -167 161 -306 325 -228
c-22 29 -66 49 -72 91c-6 39 52 62 80 33l66 -67c84 91 79 266 -7 351c-47 46 -99 70 -162 70z" />
    <glyph glyph-name="R" unicode="R" horiz-adv-x="625" 
d="M570 486c-1 -112 -80 -186 -179 -206l166 -197c49 -53 -39 -124 -84 -68l-209 257h-81v-221c1 -30 -26 -57 -56 -57c-31 0 -58 27 -57 57v587c-1 35 27 63 62 62h183c140 4 255 -83 255 -214zM460 486c0 130 -145 120 -277 117v-234h127c100 0 150 39 150 117z" />
    <glyph glyph-name="S" unicode="S" horiz-adv-x="570" 
d="M54 525c-3 110 112 182 225 182c83 0 150 -30 199 -91c25 -31 1 -79 -38 -79c-17 0 -32 6 -40 20c-44 77 -234 75 -234 -32c0 -78 80 -88 145 -113c119 -46 214 -87 214 -221c0 -170 -219 -243 -373 -168c-40 20 -72 48 -98 84c-39 53 48 114 84 58
c26 -42 79 -74 143 -75c66 0 134 34 132 101c-3 95 -96 108 -176 138c-98 35 -180 78 -183 196z" />
    <glyph glyph-name="T" unicode="T" horiz-adv-x="630" 
d="M45 650c0 27 24 51 50 50h440c26 1 50 -23 50 -50s-24 -51 -50 -50h-160v-546c1 -31 -28 -60 -59 -60c-32 0 -61 29 -60 60v546h-161c-26 -1 -50 23 -50 50z" />
    <glyph glyph-name="U" unicode="U" horiz-adv-x="686" 
d="M511 648c-1 28 27 55 55 55s55 -27 55 -55v-393c5 -154 -127 -262 -278 -262c-152 0 -278 108 -278 262v393c-1 28 27 55 55 55s55 -27 55 -55v-392c-3 -106 68 -168 168 -168s168 62 168 168v392z" />
    <glyph glyph-name="V" unicode="V" horiz-adv-x="714" 
d="M41 624c-35 64 71 113 100 46l216 -492l216 492c23 68 131 22 100 -46l-270 -587c-24 -56 -68 -56 -93 0z" />
    <glyph glyph-name="W" unicode="W" horiz-adv-x="1147" 
d="M61 627c-34 63 75 117 100 46l176 -495l185 495c10 44 85 43 101 0l187 -495l176 495c5 17 28 33 50 33c37 1 66 -39 50 -79l-230 -590c-19 -56 -71 -55 -93 0l-190 468l-190 -468c-19 -56 -72 -55 -93 0z" />
    <glyph glyph-name="X" unicode="X" horiz-adv-x="629" 
d="M475 680c26 43 102 21 98 -31c0 -12 -3 -22 -10 -31l-184 -262l195 -277c42 -55 -47 -120 -88 -62l-172 246l-173 -246c-34 -57 -128 3 -87 60l194 278l-184 263c-43 55 47 120 88 62l162 -231z" />
    <glyph glyph-name="Y" unicode="Y" horiz-adv-x="634" 
d="M44 622c-39 54 45 113 85 59l188 -257l188 257c35 55 125 -3 85 -59l-218 -299v-274c1 -30 -25 -55 -55 -55s-56 25 -55 55v274z" />
    <glyph glyph-name="Z" unicode="Z" horiz-adv-x="642" 
d="M50 653c0 25 23 47 48 47h402c60 6 109 -65 65 -120l-387 -485h366c60 4 64 -95 0 -95h-405c-60 -6 -109 65 -65 120l387 485h-363c-26 -1 -48 22 -48 48z" />
    <glyph glyph-name="bracketleft" unicode="[" horiz-adv-x="280" 
d="M110 745c55 0 125 14 125 -47c0 -44 -34 -52 -80 -48v-685c46 3 80 -4 80 -48c0 -61 -70 -46 -125 -47c-43 -1 -65 22 -65 65v745c0 43 22 65 65 65z" />
    <glyph glyph-name="backslash" unicode="\" horiz-adv-x="542" 
d="M98 727c20 36 77 29 92 -10l304 -782c25 -61 -72 -103 -98 -37l-304 782c-6 15 -3 31 6 47z" />
    <glyph glyph-name="bracketright" unicode="]" horiz-adv-x="280" 
d="M45 698c0 61 70 47 125 47c43 0 65 -22 65 -65v-745c6 -74 -70 -67 -140 -65c-33 0 -50 16 -50 47c0 44 34 52 80 48v685c-46 -3 -80 4 -80 48z" />
    <glyph glyph-name="asciicircum" unicode="^" horiz-adv-x="437" 
d="M386 521c23 -31 -23 -71 -50 -42l-117 125l-118 -125c-27 -28 -74 9 -50 42l113 154c26 40 83 38 110 0z" />
    <glyph glyph-name="underscore" unicode="_" 
d="M45 -48c0 26 22 49 48 48h416c60 4 65 -95 0 -95h-416c-25 -1 -48 22 -48 47z" />
    <glyph glyph-name="grave" unicode="`" horiz-adv-x="209" 
d="M53 679c-32 36 -1 96 45 94c25 -1 43 -13 54 -38l49 -121c20 -42 -38 -68 -65 -36z" />
    <glyph glyph-name="a" unicode="a" horiz-adv-x="612" 
d="M40 260c0 160 94 266 245 266c73 0 125 -24 157 -73c-20 85 110 98 110 18v-422c1 -30 -25 -56 -55 -55c-43 1 -62 39 -55 90c-6 -50 -92 -96 -157 -91c-151 12 -245 106 -245 267zM299 431c-84 0 -149 -77 -149 -171s65 -172 149 -172c90 0 148 70 148 172
c0 103 -58 171 -148 171z" />
    <glyph glyph-name="b" unicode="b" 
d="M115 706c30 0 56 -25 55 -55v-198c32 49 84 73 157 73c151 0 245 -106 245 -266c0 -161 -94 -256 -245 -267c-65 -5 -151 41 -157 91c7 -51 -11 -89 -55 -90c-30 -1 -56 25 -55 55v602c-1 30 25 55 55 55zM165 260c0 -102 58 -172 148 -172c84 0 149 78 149 172
s-65 171 -149 171c-90 0 -148 -68 -148 -171z" />
    <glyph glyph-name="c" unicode="c" horiz-adv-x="542" 
d="M45 259c8 164 106 267 260 267c63 0 116 -20 160 -58c18 -15 27 -29 27 -44c0 -43 -56 -67 -85 -36c-95 97 -266 12 -252 -129c-14 -140 157 -226 252 -129c31 31 88 8 85 -35c0 -15 -9 -28 -26 -43c-160 -142 -432 -7 -421 207z" />
    <glyph glyph-name="d" unicode="d" horiz-adv-x="607" 
d="M35 260c0 160 94 266 245 266c73 0 125 -24 157 -73v198c-1 29 26 55 55 55s55 -26 55 -55v-602c1 -29 -26 -56 -55 -55c-42 1 -63 39 -55 90c-6 -50 -92 -96 -157 -91c-151 12 -245 106 -245 267zM145 260c0 -94 65 -172 149 -172c90 0 148 70 148 172
c0 103 -58 171 -148 171c-84 0 -149 -77 -149 -171z" />
    <glyph glyph-name="e" unicode="e" 
d="M45 259c0 163 106 259 260 267c124 6 260 -114 252 -251c-2 -39 -22 -58 -65 -58h-333c5 -111 160 -167 250 -98c34 26 81 6 81 -37c0 -19 -8 -32 -24 -43c-45 -30 -98 -46 -160 -46c-154 0 -261 102 -261 266zM447 308c-10 103 -147 161 -234 90
c-28 -23 -46 -51 -53 -90h287z" />
    <glyph glyph-name="f" unicode="f" horiz-adv-x="403" 
d="M80 520c-9 126 55 187 168 187c43 0 82 -13 119 -36c37 -22 18 -88 -26 -83c-32 4 -61 24 -93 24c-54 0 -59 -38 -58 -92c58 1 125 9 125 -47c0 -57 -67 -49 -125 -48v-376c1 -30 -25 -55 -55 -55s-56 25 -55 55v376c-53 -11 -86 45 -52 81c13 14 28 15 52 14z" />
    <glyph glyph-name="g" unicode="g" horiz-adv-x="592" 
d="M437 453c-19 85 109 98 110 18v-471c1 -184 -213 -242 -376 -177c-44 17 -26 93 19 86c39 -6 74 -19 115 -19c72 0 132 41 132 110v84c-6 -50 -92 -96 -157 -91c-151 12 -245 106 -245 267c0 160 94 266 245 266c73 0 125 -24 157 -73zM145 260c0 -94 65 -172 149 -172
c90 0 148 70 148 172c0 103 -58 171 -148 171c-84 0 -149 -77 -149 -171z" />
    <glyph glyph-name="h" unicode="h" horiz-adv-x="603" 
d="M170 409c11 56 86 119 166 116c131 -6 212 -85 212 -228v-247c1 -29 -26 -55 -55 -55s-56 26 -55 55v241c0 93 -39 139 -116 139c-72 0 -152 -78 -152 -131v-250c1 -30 -25 -55 -55 -55s-56 25 -55 55v602c-1 30 25 55 55 55s56 -25 55 -55v-242z" />
    <glyph glyph-name="i" unicode="i" horiz-adv-x="242" 
d="M81 689c48 54 135 -29 80 -80c-48 -54 -135 29 -80 80zM65 467c-1 30 26 56 56 56s56 -26 56 -56v-417c1 -30 -26 -56 -56 -56s-56 26 -56 56v417z" />
    <glyph glyph-name="j" unicode="j" horiz-adv-x="253" 
d="M90 689c48 54 135 -29 80 -80c-48 -54 -135 29 -80 80zM73 468c-1 28 27 55 55 55s55 -27 55 -55v-523c0 -100 -47 -150 -141 -150c-41 0 -108 10 -108 62c0 32 32 61 65 52c47 -13 74 4 74 66v493z" />
    <glyph glyph-name="k" unicode="k" horiz-adv-x="598" 
d="M374 510c42 49 118 -21 72 -69l-153 -161l200 -204c46 -42 -24 -113 -69 -67l-196 202l-55 -57v-105c1 -29 -26 -55 -55 -55s-55 26 -55 55v602c-1 29 26 55 55 55s55 -26 55 -55v-354z" />
    <glyph glyph-name="l" unicode="l" horiz-adv-x="242" 
d="M65 650c-1 30 26 56 56 56s56 -26 56 -56v-600c1 -30 -26 -56 -56 -56s-56 26 -56 56v600z" />
    <glyph glyph-name="m" unicode="m" horiz-adv-x="966" 
d="M520 403c16 62 91 125 176 122c138 -5 215 -88 215 -242v-232c1 -29 -26 -56 -55 -56c-30 0 -56 26 -56 56v233c2 85 -40 147 -115 147c-73 0 -121 -46 -144 -137v-243c1 -29 -26 -56 -55 -56c-30 0 -56 26 -56 56v233c2 86 -41 147 -117 147c-71 0 -119 -46 -142 -137
v-243c1 -29 -26 -56 -55 -56c-30 0 -56 26 -56 56v416c-1 30 26 57 56 56c55 -1 61 -59 55 -120c3 59 80 126 155 122c96 -5 166 -46 194 -122z" />
    <glyph glyph-name="n" unicode="n" horiz-adv-x="603" 
d="M170 409c11 56 86 119 166 116c131 -6 212 -85 212 -228v-247c1 -29 -26 -55 -55 -55s-56 26 -55 55v241c0 93 -39 139 -116 139c-72 0 -152 -78 -152 -131v-249c1 -29 -26 -55 -55 -55s-56 26 -55 55v418c-1 29 26 56 55 55c53 -1 61 -54 55 -114z" />
    <glyph glyph-name="o" unicode="o" horiz-adv-x="600" 
d="M40 259c0 163 106 267 260 267s260 -104 260 -267c0 -164 -106 -266 -260 -266s-260 102 -260 266zM196 134c97 -101 254 -17 254 125c0 97 -65 171 -150 171c-84 0 -153 -75 -150 -171c2 -53 16 -94 46 -125z" />
    <glyph glyph-name="p" unicode="p" 
d="M115 526c36 -1 61 -30 55 -73c32 49 84 73 157 73c151 0 245 -106 245 -266c0 -161 -94 -256 -245 -267c-65 -5 -151 41 -157 91v-225c1 -30 -25 -55 -55 -55s-56 25 -55 55v612c-1 30 25 56 55 55zM165 260c0 -102 58 -172 148 -172c84 0 149 78 149 172
s-65 171 -149 171c-90 0 -148 -68 -148 -171z" />
    <glyph glyph-name="q" unicode="q" horiz-adv-x="617" 
d="M442 453c-20 85 110 98 110 18v-612c1 -30 -25 -55 -55 -55s-56 25 -55 55v225c-6 -50 -92 -96 -157 -91c-151 12 -245 106 -245 267c0 160 94 266 245 266c73 0 125 -24 157 -73zM150 260c0 -94 65 -172 149 -172c90 0 148 70 148 172c0 103 -58 171 -148 171
c-84 0 -149 -77 -149 -171z" />
    <glyph glyph-name="r" unicode="r" horiz-adv-x="435" 
d="M170 425c37 51 100 96 181 100c50 2 79 -56 43 -88c-14 -14 -31 -15 -57 -15c-81 0 -137 -38 -167 -114v-259c1 -30 -25 -55 -55 -55s-56 25 -55 55v419c-1 29 26 56 55 55c46 -1 62 -44 55 -98z" />
    <glyph glyph-name="s" unicode="s" horiz-adv-x="479" 
d="M48 379c-6 153 259 192 349 85c44 -53 -36 -124 -78 -67c-35 48 -152 49 -158 -19c-4 -55 82 -62 127 -77c86 -27 150 -53 151 -155c1 -165 -289 -197 -381 -81c-29 37 -17 93 32 92c17 0 31 -7 41 -20c26 -33 62 -50 107 -50c42 0 85 22 87 59c4 57 -84 70 -133 84
c-85 26 -140 54 -144 149z" />
    <glyph glyph-name="t" unicode="t" horiz-adv-x="365" 
d="M248 87c40 8 84 2 84 -41c0 -36 -34 -54 -102 -54c-87 0 -125 42 -125 140v293c-44 -6 -76 11 -76 48c0 35 33 54 76 47c-8 54 10 96 55 96s63 -42 55 -96c55 2 115 6 115 -47c1 -53 -59 -51 -115 -48v-295c0 -29 11 -43 33 -43z" />
    <glyph glyph-name="u" unicode="u" horiz-adv-x="597" 
d="M268 89c76 -4 159 84 159 145v234c-1 28 27 55 55 55s55 -27 55 -55v-418c1 -28 -27 -56 -55 -55c-55 1 -61 59 -55 121c-15 -55 -90 -125 -170 -122c-127 5 -202 84 -202 224v250c-1 28 27 55 55 55s55 -27 55 -55v-244c-2 -81 32 -131 103 -135z" />
    <glyph glyph-name="v" unicode="v" horiz-adv-x="574" 
d="M41 448c-35 60 63 107 92 45l154 -333l154 333c22 62 123 19 92 -45l-201 -408c-27 -56 -63 -56 -90 0z" />
    <glyph glyph-name="w" unicode="w" horiz-adv-x="870" 
d="M42 446c-37 61 68 113 91 47l114 -333l139 329c14 45 80 44 98 0l139 -329l114 333c4 16 26 30 46 30c38 -1 60 -35 45 -77l-149 -406c-19 -57 -76 -54 -100 0l-144 317l-144 -317c-21 -55 -79 -56 -100 0z" />
    <glyph glyph-name="x" unicode="x" horiz-adv-x="562" 
d="M413 506c35 52 118 -8 78 -58l-148 -187l150 -189c38 -49 -38 -109 -78 -58l-134 169l-134 -169c-34 -52 -118 8 -78 58l150 189l-148 187c-38 48 37 109 78 58l132 -167z" />
    <glyph glyph-name="y" unicode="y" horiz-adv-x="577" 
d="M39 456c-27 59 65 100 92 40l162 -352l152 350c19 62 119 24 93 -38l-262 -621c-20 -61 -117 -24 -92 38l57 142z" />
    <glyph glyph-name="z" unicode="z" horiz-adv-x="501" 
d="M40 473c0 25 23 47 48 47h290c66 5 109 -70 59 -125l-273 -300h249c25 1 48 -22 48 -47c0 -26 -22 -49 -48 -48h-291c-67 -4 -106 71 -56 126l272 299h-250c-26 -1 -48 22 -48 48z" />
    <glyph glyph-name="braceleft" unicode="{" horiz-adv-x="331" 
d="M80 646c-2 87 67 99 158 99c25 0 49 -22 48 -47c0 -30 -25 -48 -61 -48c-23 0 -35 -11 -35 -32v-228c-4 -38 -34 -56 -50 -84c16 -27 50 -45 50 -82v-227c-1 -26 19 -34 48 -32c26 2 49 -22 48 -48c0 -50 -54 -49 -108 -47c-58 3 -98 33 -98 99v266
c-13 25 -53 59 -27 100l27 44v267z" />
    <glyph glyph-name="bar" unicode="|" horiz-adv-x="245" 
d="M75 758c-1 26 22 48 48 48c25 0 47 -23 47 -48v-906c1 -25 -22 -48 -47 -48c-26 0 -49 22 -48 48v906z" />
    <glyph glyph-name="braceright" unicode="}" horiz-adv-x="315" 
d="M29 698c0 50 54 49 108 47c56 -2 98 -35 98 -99v-267c12 -26 53 -60 27 -102l-27 -42v-266c2 -89 -66 -99 -158 -99c-25 0 -49 22 -48 47c0 30 26 51 61 48c23 -2 35 11 35 32v227c5 37 34 55 50 82c-16 28 -50 45 -50 84v228c1 26 -19 34 -48 32c-26 -2 -49 22 -48 48z
" />
    <glyph glyph-name="asciitilde" unicode="~" horiz-adv-x="504" 
d="M164 364c78 0 188 -126 256 -42c17 10 44 2 38 -22c-13 -54 -51 -91 -116 -91c-76 0 -192 141 -256 46c-10 -14 -50 -10 -40 15c9 56 52 94 118 94z" />
    <glyph glyph-name="exclamdown" unicode="&#xa1;" horiz-adv-x="226" 
d="M73 458c0 35 30 65 65 65c34 0 64 -31 64 -65c0 -33 -31 -64 -64 -64c-34 0 -65 30 -65 64zM138 316c32 0 61 -30 61 -62v-375c1 -32 -29 -62 -61 -62c-33 0 -63 29 -62 62v375c-1 34 28 62 62 62z" />
    <glyph glyph-name="cent" unicode="&#xa2;" horiz-adv-x="542" 
d="M339 166c41 2 62 48 103 51c49 3 68 -61 24 -91c-37 -26 -77 -48 -127 -56c2 -56 6 -116 -47 -116c-56 -1 -49 65 -48 122c-106 27 -199 118 -199 253c0 136 93 226 199 253c-1 58 -9 125 48 124c53 0 49 -62 47 -118c51 -7 92 -25 126 -54c18 -15 27 -29 27 -43
c1 -27 -23 -51 -50 -49c-44 3 -59 47 -103 50v-326zM155 329c0 -76 38 -129 89 -153v307c-59 -28 -89 -79 -89 -154z" />
    <glyph glyph-name="sterling" unicode="&#xa3;" horiz-adv-x="580" 
d="M370 324c0 -47 -53 -44 -103 -42c13 -75 -10 -122 -57 -187h277c60 4 64 -97 0 -95c-140 1 -286 -5 -423 2c-25 1 -21 30 -8 48c61 82 101 100 101 196c0 9 -1 21 -4 36c-59 -14 -108 29 -71 72c8 10 19 12 33 12c-27 48 -41 93 -41 134c0 173 231 268 373 164
c41 -30 70 -70 84 -122c19 -69 -91 -96 -106 -24c-13 63 -51 94 -118 94c-76 0 -119 -42 -120 -112c0 -39 15 -83 44 -134c57 -4 139 17 139 -42z" />
    <glyph glyph-name="currency" unicode="&#xa4;" horiz-adv-x="541" 
d="M438 587c39 -65 40 -154 2 -220l46 -46l-71 -70l-42 42c-73 -54 -181 -55 -256 -1l-41 -41l-71 70l44 44c-39 69 -39 158 2 224l-46 46l71 70l43 -43c73 51 180 50 252 -1l44 44l71 -70zM146 566c-78 -83 -15 -223 98 -223c76 0 134 66 134 133s-59 136 -134 133
c-41 -2 -73 -16 -98 -43z" />
    <glyph glyph-name="yen" unicode="&#xa5;" horiz-adv-x="664" 
d="M505 681c35 55 125 -3 85 -59l-218 -299v-13c51 1 110 8 110 -42s-59 -43 -110 -42v-47c51 1 110 8 110 -42s-59 -43 -110 -42c6 -55 -6 -101 -55 -101c-48 0 -62 46 -55 101c-43 -5 -80 5 -80 42s37 47 80 42v47c-43 -5 -80 5 -80 42s37 47 80 42v13l-218 299
c-39 54 45 113 85 59l188 -257z" />
    <glyph glyph-name="brokenbar" unicode="&#xa6;" horiz-adv-x="245" 
d="M75 758c-1 26 22 48 48 48c25 0 47 -23 47 -48v-196c1 -25 -22 -48 -47 -48c-26 0 -49 22 -48 48v196zM75 48c-1 26 22 48 48 48c25 0 47 -23 47 -48v-196c1 -25 -22 -48 -47 -48c-26 0 -49 22 -48 48v196z" />
    <glyph glyph-name="section" unicode="&#xa7;" horiz-adv-x="588" 
d="M97 442c-99 144 36 302 196 302c109 0 192 -60 230 -133c21 -43 2 -71 -35 -80c-48 -12 -53 10 -74 41c-27 40 -66 61 -121 61c-85 0 -146 -79 -90 -140c27 -30 93 -45 138 -60c134 -44 202 -115 202 -219c0 -35 -11 -67 -32 -98c21 -32 32 -68 32 -108
c-3 -177 -244 -256 -393 -164c-42 26 -74 62 -97 107c-29 56 25 98 77 79c11 -7 23 -21 34 -41c27 -49 69 -73 126 -73c65 0 136 31 135 92c-2 101 -112 110 -190 137c-151 51 -214 165 -138 297zM188 371c-19 -62 12 -100 80 -121c49 -15 120 -38 157 -59
c5 73 -25 106 -100 133c-50 18 -88 24 -137 47z" />
    <glyph glyph-name="dieresis" unicode="&#xa8;" horiz-adv-x="368" 
d="M60 710c51 0 79 -65 42 -102s-102 -8 -102 43c0 31 28 59 60 59zM248 651c0 79 120 74 120 0c0 -32 -28 -60 -60 -60s-60 28 -60 60z" />
    <glyph glyph-name="copyright" unicode="&#xa9;" horiz-adv-x="809" 
d="M759 350c0 -253 -285 -448 -525 -312c-96 55 -188 167 -184 312c6 208 149 350 355 357c183 6 354 -165 354 -357zM405 102c128 0 234 113 234 248s-106 248 -234 248s-234 -113 -234 -248s106 -248 234 -248zM221 350c0 106 83 198 185 198c55 0 123 -19 124 -68
c1 -34 -40 -62 -73 -44c-91 51 -174 -82 -103 -156c17 -19 38 -28 61 -28c22 0 43 18 67 18c25 1 49 -25 48 -50c-1 -48 -70 -68 -124 -68c-104 0 -185 90 -185 198z" />
    <glyph glyph-name="ordfeminine" unicode="&#xaa;" horiz-adv-x="402" 
d="M254 593c-1 66 -94 67 -133 30c-32 -30 -81 20 -54 44c33 29 73 45 124 45c95 0 142 -51 142 -154v-96c-6 -38 31 -81 -17 -82c-38 0 -46 14 -51 42c-55 -77 -231 -52 -225 59c5 98 116 107 214 112zM170 442c48 3 90 29 84 87c-28 -11 -142 4 -138 -48
c1 -25 23 -41 54 -39z" />
    <glyph glyph-name="guillemotleft" unicode="&#xab;" horiz-adv-x="433" 
d="M25 222c0 68 -19 153 31 182l70 41c61 38 63 -51 30 -83l-80 -76l80 -76c39 -25 28 -123 -30 -83c-36 25 -101 37 -101 95zM233 222c0 68 -19 153 31 182l70 41c61 38 63 -51 30 -83l-80 -76l80 -76c39 -25 28 -123 -30 -83c-36 25 -101 37 -101 95z" />
    <glyph glyph-name="logicalnot" unicode="&#xac;" horiz-adv-x="511" 
d="M45 257c0 24 21 46 45 45h314c57 0 62 -52 62 -115c0 -47 -61 -73 -94 -39c-16 16 -17 35 -16 64h-266c-24 -1 -45 21 -45 45z" />
    <glyph glyph-name="uni00AD" unicode="&#xad;" horiz-adv-x="400" 
d="M45 277c0 24 21 46 45 45h232c24 1 45 -21 45 -45s-21 -46 -45 -45h-232c-24 -1 -45 21 -45 45z" />
    <glyph glyph-name="registered" unicode="&#xae;" horiz-adv-x="798" 
d="M399 -7c-180 0 -349 168 -349 357c0 190 169 357 349 357c183 0 349 -165 349 -357s-166 -357 -349 -357zM400 103c131 0 226 110 226 247s-95 247 -226 247c-124 0 -227 -114 -227 -247s103 -247 227 -247zM390 534c74 2 139 -43 139 -112c0 -61 -28 -98 -85 -111
l97 -138h-100l-83 136h-3v-136h-85v361h120zM442 422c0 41 -44 43 -88 40v-79c43 -2 88 -3 88 39z" />
    <glyph glyph-name="macron" unicode="&#xaf;" horiz-adv-x="384" 
d="M0 653c0 25 23 47 48 47h288c25 1 48 -22 48 -47c0 -26 -22 -49 -48 -48h-288c-26 -1 -48 22 -48 48z" />
    <glyph glyph-name="degree" unicode="&#xb0;" horiz-adv-x="386" 
d="M45 573c0 78 70 146 148 146s148 -68 148 -146c0 -79 -69 -148 -148 -148s-148 69 -148 148zM242 527c37 43 8 112 -49 112c-86 0 -85 -138 0 -134c21 0 37 8 49 22z" />
    <glyph glyph-name="plusminus" unicode="&#xb1;" horiz-adv-x="425" 
d="M219 111c-57 0 -45 73 -45 131c-57 1 -129 -12 -129 45s72 45 129 45c0 57 -11 127 45 127s45 -70 45 -127c57 0 129 11 129 -45s-72 -45 -129 -45c-1 -58 12 -131 -45 -131zM45 46c0 25 23 46 48 45h251c40 3 67 -50 34 -77c-10 -9 -21 -13 -34 -13h-251
c-25 -1 -48 20 -48 45z" />
    <glyph glyph-name="uni00B2" unicode="&#xb2;" horiz-adv-x="261" 
d="M45 609c-6 56 34 94 84 95c61 2 109 -68 69 -122c-18 -25 -72 -80 -100 -110h118v-32h-168v32c38 41 92 86 120 130c21 32 -6 73 -39 71c-32 -1 -52 -26 -47 -64h-37z" />
    <glyph glyph-name="uni00B3" unicode="&#xb3;" horiz-adv-x="273" 
d="M52 615c-6 49 36 88 84 88c66 0 113 -83 50 -121c28 -12 42 -34 42 -66c0 -74 -111 -107 -160 -53c-17 19 -25 39 -23 64h38c-15 -68 106 -82 107 -11c0 37 -25 52 -74 45v31c42 2 63 16 63 43c1 36 -57 49 -78 21c-8 -11 -12 -24 -11 -41h-38z" />
    <glyph glyph-name="acute" unicode="&#xb4;" horiz-adv-x="174" 
d="M57 735c18 62 115 42 112 -20c0 -13 -4 -25 -13 -36l-83 -101c-24 -34 -82 -7 -65 36z" />
    <glyph glyph-name="uni00B5" unicode="&#xb5;" horiz-adv-x="597" 
d="M427 468c-1 28 27 55 55 55s55 -27 55 -55v-418c1 -28 -27 -56 -55 -55c-55 1 -61 59 -55 121c-15 -55 -90 -122 -170 -122c-33 0 -64 6 -92 18v-153c1 -29 -26 -55 -55 -55s-55 26 -55 55v609c-1 28 27 55 55 55s55 -27 55 -55v-244c-2 -81 32 -131 103 -135
c76 -4 159 84 159 145v234z" />
    <glyph glyph-name="paragraph" unicode="&#xb6;" horiz-adv-x="840" 
d="M660 651c-1 30 25 55 55 55s56 -25 55 -55v-602c1 -30 -25 -55 -55 -55s-56 25 -55 55v602zM67 486c0 131 115 214 255 214h183c35 1 63 -27 62 -62v-587c1 -30 -26 -57 -57 -57c-30 0 -56 27 -56 57v221h-132c-142 -4 -255 80 -255 214zM454 603
c-132 3 -277 13 -277 -117c0 -78 50 -117 150 -117h127v234z" />
    <glyph glyph-name="periodcentered" unicode="&#xb7;" horiz-adv-x="226" 
d="M167 281c0 -34 -30 -65 -64 -65c-55 0 -86 70 -46 110s110 9 110 -45z" />
    <glyph glyph-name="cedilla" unicode="&#xb8;" horiz-adv-x="187" 
d="M187 -144c-2 -74 -82 -94 -164 -94c-36 0 -23 39 5 39c64 0 92 49 57 87c-20 22 -55 -18 -69 16c-18 44 24 66 34 97h97l-49 -52c46 -6 89 -42 89 -93z" />
    <glyph glyph-name="uni00B9" unicode="&#xb9;" horiz-adv-x="202" 
d="M127 701v-261h-37v221l-17 -11l-18 31c19 12 36 25 72 20z" />
    <glyph glyph-name="ordmasculine" unicode="&#xba;" horiz-adv-x="408" 
d="M50 543c0 89 74 162 154 162s154 -73 154 -162s-74 -163 -154 -163s-154 74 -154 163zM148 480c53 -55 136 -8 136 64c0 45 -39 87 -80 87c-70 0 -107 -98 -56 -151z" />
    <glyph glyph-name="guillemotright" unicode="&#xbb;" horiz-adv-x="433" 
d="M169 404c52 -25 31 -114 31 -182c0 -58 -65 -70 -101 -95c-59 -40 -63 51 -30 83l80 76l-80 76c-39 25 -31 119 30 83zM377 404c52 -25 31 -114 31 -182c0 -58 -65 -70 -101 -95c-59 -40 -63 51 -30 83l80 76l-80 76c-39 25 -31 119 30 83z" />
    <glyph glyph-name="onequarter" unicode="&#xbc;" horiz-adv-x="569" 
d="M100 701v-261h-37v221l-17 -11l-18 31c19 12 36 25 72 20zM503 700l-430 -700h-48l436 700h42zM517 261v-154h27v-31h-27v-76h-37v76h-132l132 185h37zM480 202l-65 -95h65v95z" />
    <glyph glyph-name="onehalf" unicode="&#xbd;" horiz-adv-x="544" 
d="M100 701v-261h-37v221l-17 -11l-18 31c19 12 36 25 72 20zM503 700l-430 -700h-48l436 700h42zM348 169c-6 56 34 94 84 95c61 2 110 -68 70 -122c-18 -25 -73 -80 -101 -110h118v-32h-168v32c38 41 92 86 120 130c21 32 -5 72 -39 71c-32 -1 -52 -26 -47 -64h-37z" />
    <glyph glyph-name="threequarters" unicode="&#xbe;" horiz-adv-x="587" 
d="M32 615c-6 49 36 88 84 88c66 0 113 -83 50 -121c28 -12 42 -34 42 -66c0 -74 -111 -107 -160 -53c-17 19 -25 39 -23 64h38c-15 -68 106 -82 107 -11c0 37 -25 52 -74 45v31c42 2 63 16 63 43c1 36 -57 49 -78 21c-8 -11 -12 -24 -11 -41h-38zM531 700l-430 -700h-48
l436 700h42zM535 261v-154h27v-31h-27v-76h-37v76h-132l132 185h37zM498 202l-65 -95h65v95z" />
    <glyph glyph-name="questiondown" unicode="&#xbf;" horiz-adv-x="543" 
d="M298 413c-40 -40 -110 -9 -110 45c0 34 30 65 64 65c55 0 86 -70 46 -110zM498 34c6 -129 -107 -221 -229 -221c-118 0 -224 86 -224 206c0 147 153 144 149 294h114c6 -128 -90 -165 -137 -240c-45 -72 3 -165 98 -165c75 0 119 54 119 126h110z" />
    <glyph glyph-name="Agrave" unicode="&#xc0;" horiz-adv-x="716" 
d="M255 859c-32 36 -1 96 45 94c25 -1 43 -13 54 -38l49 -121c20 -42 -38 -68 -65 -36zM150 27c-23 -66 -130 -23 -100 45l263 592c22 52 68 52 90 0l263 -592c32 -65 -71 -111 -100 -45l-75 169h-266zM358 514l-97 -222h194z" />
    <glyph glyph-name="Aacute" unicode="&#xc1;" horiz-adv-x="716" 
d="M352 915c18 62 116 41 112 -20c0 -13 -4 -25 -13 -36l-83 -101c-24 -34 -82 -7 -65 36zM150 27c-23 -66 -130 -23 -100 45l263 592c22 52 68 52 90 0l263 -592c32 -65 -71 -111 -100 -45l-75 169h-266zM358 514l-97 -222h194z" />
    <glyph glyph-name="Acircumflex" unicode="&#xc2;" horiz-adv-x="716" 
d="M292 947c68 0 153 19 182 -31l41 -70c38 -61 -51 -63 -83 -30l-76 80l-76 -80c-25 -39 -123 -28 -83 30c25 36 37 101 95 101zM150 27c-23 -66 -130 -23 -100 45l263 592c22 52 68 52 90 0l263 -592c32 -65 -71 -111 -100 -45l-75 169h-266zM358 514l-97 -222h194z" />
    <glyph glyph-name="Atilde" unicode="&#xc3;" horiz-adv-x="716" 
d="M438 763c-42 -10 -142 79 -177 75c-46 9 -45 -70 -92 -32c-16 60 46 112 111 112c41 10 139 -70 172 -67c46 -8 52 60 94 24c18 -60 -44 -112 -108 -112zM150 27c-23 -66 -130 -23 -100 45l263 592c22 52 68 52 90 0l263 -592c32 -65 -71 -111 -100 -45l-75 169h-266z
M358 514l-97 -222h194z" />
    <glyph glyph-name="Adieresis" unicode="&#xc4;" horiz-adv-x="716" 
d="M174 831c0 79 120 74 120 0c0 -32 -28 -60 -60 -60s-60 28 -60 60zM542 831c0 -32 -28 -60 -60 -60s-60 28 -60 60c0 31 28 59 60 59s60 -28 60 -59zM150 27c-23 -66 -130 -23 -100 45l263 592c22 52 68 52 90 0l263 -592c32 -65 -71 -111 -100 -45l-75 169h-266z
M358 514l-97 -222h194z" />
    <glyph glyph-name="Aring" unicode="&#xc5;" horiz-adv-x="716" 
d="M256 879c0 55 48 101 103 101c84 0 133 -110 71 -172s-174 -14 -174 71zM357 849c42 -2 41 65 0 63c-40 2 -41 -65 0 -63zM150 27c-23 -66 -130 -23 -100 45l263 592c22 52 68 52 90 0l263 -592c32 -65 -71 -111 -100 -45l-75 169h-266zM358 514l-97 -222h194z" />
    <glyph glyph-name="AE" unicode="&#xc6;" horiz-adv-x="1033" 
d="M884 352c0 -27 -24 -51 -50 -50h-199v-203h309c26 1 50 -23 50 -49c0 -27 -24 -51 -50 -50h-363c-35 -1 -63 27 -62 62v139h-229l-137 -201h-123l479 700h425c26 1 50 -23 50 -49c0 -27 -24 -51 -50 -50h-299v-200h199c26 1 50 -23 50 -49zM355 296h164v240z" />
    <glyph glyph-name="Ccedilla" unicode="&#xc7;" horiz-adv-x="634" 
d="M163 350c0 -173 190 -324 345 -212c58 41 123 -53 61 -92c-44 -28 -92 -46 -144 -51l-43 -46c46 -6 89 -42 89 -93c-2 -74 -82 -94 -164 -94c-36 0 -23 39 5 39c64 0 92 49 57 87c-21 22 -55 -18 -69 16c-18 43 23 65 33 95c-151 25 -294 171 -288 350
c7 207 143 358 347 358c62 0 120 -19 177 -53c60 -36 0 -134 -60 -92c-156 112 -346 -39 -346 -212z" />
    <glyph glyph-name="Egrave" unicode="&#xc8;" horiz-adv-x="590" 
d="M202 859c-32 36 -1 96 45 94c25 -1 43 -13 54 -38l49 -121c20 -42 -38 -68 -65 -36zM430 352c0 -27 -24 -51 -50 -50h-199v-203h309c26 1 50 -23 50 -49c0 -27 -24 -51 -50 -50h-363c-35 -1 -63 27 -62 62v576c-1 35 27 63 62 62h353c26 1 50 -23 50 -49
c0 -27 -24 -51 -50 -50h-299v-200h199c26 1 50 -23 50 -49z" />
    <glyph glyph-name="Eacute" unicode="&#xc9;" horiz-adv-x="590" 
d="M299 915c18 62 116 41 112 -20c0 -13 -4 -25 -13 -36l-83 -101c-24 -34 -82 -7 -65 36zM430 352c0 -27 -24 -51 -50 -50h-199v-203h309c26 1 50 -23 50 -49c0 -27 -24 -51 -50 -50h-363c-35 -1 -63 27 -62 62v576c-1 35 27 63 62 62h353c26 1 50 -23 50 -49
c0 -27 -24 -51 -50 -50h-299v-200h199c26 1 50 -23 50 -49z" />
    <glyph glyph-name="Ecircumflex" unicode="&#xca;" horiz-adv-x="590" 
d="M239 947c68 0 153 19 182 -31l41 -70c38 -61 -51 -63 -83 -30l-76 80l-76 -80c-25 -39 -123 -28 -83 30c25 36 37 101 95 101zM430 352c0 -27 -24 -51 -50 -50h-199v-203h309c26 1 50 -23 50 -49c0 -27 -24 -51 -50 -50h-363c-35 -1 -63 27 -62 62v576c-1 35 27 63 62 62
h353c26 1 50 -23 50 -49c0 -27 -24 -51 -50 -50h-299v-200h199c26 1 50 -23 50 -49z" />
    <glyph glyph-name="Edieresis" unicode="&#xcb;" horiz-adv-x="590" 
d="M241 831c0 -32 -28 -60 -60 -60s-60 28 -60 60c0 31 28 59 60 59s60 -28 60 -59zM429 890c51 0 80 -65 43 -102s-103 -8 -103 43c0 31 28 59 60 59zM430 352c0 -27 -24 -51 -50 -50h-199v-203h309c26 1 50 -23 50 -49c0 -27 -24 -51 -50 -50h-363c-35 -1 -63 27 -62 62
v576c-1 35 27 63 62 62h353c26 1 50 -23 50 -49c0 -27 -24 -51 -50 -50h-299v-200h199c26 1 50 -23 50 -49z" />
    <glyph glyph-name="Igrave" unicode="&#xcc;" horiz-adv-x="245" 
d="M20 859c-32 36 -1 96 45 94c25 -1 43 -13 54 -38l49 -121c20 -42 -38 -68 -65 -36zM65 645c-1 30 27 58 58 58c30 0 57 -29 57 -58v-593c1 -29 -27 -58 -57 -58c-31 0 -59 28 -58 58v593z" />
    <glyph glyph-name="Iacute" unicode="&#xcd;" horiz-adv-x="245" 
d="M117 915c18 62 115 42 112 -20c0 -13 -4 -25 -13 -36l-83 -101c-24 -34 -82 -7 -65 36zM65 645c-1 30 27 58 58 58c30 0 57 -29 57 -58v-593c1 -29 -27 -58 -57 -58c-31 0 -59 28 -58 58v593z" />
    <glyph glyph-name="Icircumflex" unicode="&#xce;" horiz-adv-x="245" 
d="M57 947c68 0 153 19 182 -31l41 -70c38 -61 -51 -63 -83 -30l-76 80l-76 -80c-25 -39 -123 -28 -83 30c25 36 37 101 95 101zM65 645c-1 30 27 58 58 58c30 0 57 -29 57 -58v-593c1 -29 -27 -58 -57 -58c-31 0 -59 28 -58 58v593z" />
    <glyph glyph-name="Idieresis" unicode="&#xcf;" horiz-adv-x="245" 
d="M59 831c0 -32 -28 -60 -60 -60s-60 28 -60 60c0 31 28 59 60 59s60 -28 60 -59zM187 831c0 79 120 74 120 0c0 -32 -28 -60 -60 -60s-60 28 -60 60zM65 645c-1 30 27 58 58 58c30 0 57 -29 57 -58v-593c1 -29 -27 -58 -57 -58c-31 0 -59 28 -58 58v593z" />
    <glyph glyph-name="Eth" unicode="&#xd0;" horiz-adv-x="792" 
d="M143 638c-1 35 27 63 62 62h163c185 6 350 -162 350 -348c0 -189 -162 -358 -350 -352h-163c-35 -1 -63 27 -62 62v238c-39 -6 -68 12 -68 45s29 51 68 45v248zM397 345c0 -61 -81 -42 -141 -45v-204h112c141 -3 237 115 237 256c0 139 -98 256 -237 252h-112v-214
c60 -3 141 17 141 -45z" />
    <glyph glyph-name="Ntilde" unicode="&#xd1;" horiz-adv-x="687" 
d="M424 763c-42 -10 -142 79 -177 75c-46 9 -45 -70 -92 -32c-16 60 46 112 111 112c41 10 139 -70 172 -67c46 -8 52 60 94 24c18 -60 -44 -112 -108 -112zM507 645c-1 30 27 58 58 58c30 0 57 -29 57 -58v-599c2 -64 -74 -61 -106 -18l-336 458v-433
c1 -29 -27 -58 -57 -58c-31 0 -59 28 -58 58v598c-1 62 78 63 110 19l332 -456v431z" />
    <glyph glyph-name="Ograve" unicode="&#xd2;" horiz-adv-x="796" 
d="M282 895c-4 61 88 80 112 20l49 -121c20 -42 -38 -68 -65 -36l-83 101c-9 11 -13 23 -13 36zM50 350c0 208 144 357 348 357s348 -149 348 -357s-144 -357 -348 -357s-348 149 -348 357zM398 100c127 0 230 116 230 250c0 135 -102 250 -230 250
c-127 0 -230 -116 -230 -250c0 -135 103 -250 230 -250z" />
    <glyph glyph-name="Oacute" unicode="&#xd3;" horiz-adv-x="796" 
d="M392 915c18 62 116 41 112 -20c0 -13 -4 -25 -13 -36l-83 -101c-24 -34 -82 -7 -65 36zM50 350c0 208 144 357 348 357s348 -149 348 -357s-144 -357 -348 -357s-348 149 -348 357zM398 100c127 0 230 116 230 250c0 135 -102 250 -230 250c-127 0 -230 -116 -230 -250
c0 -135 103 -250 230 -250z" />
    <glyph glyph-name="Ocircumflex" unicode="&#xd4;" horiz-adv-x="796" 
d="M332 947c68 0 153 19 182 -31l41 -70c38 -61 -51 -63 -83 -30l-76 80l-76 -80c-25 -39 -123 -28 -83 30c25 36 37 101 95 101zM50 350c0 208 144 357 348 357s348 -149 348 -357s-144 -357 -348 -357s-348 149 -348 357zM398 100c127 0 230 116 230 250
c0 135 -102 250 -230 250c-127 0 -230 -116 -230 -250c0 -135 103 -250 230 -250z" />
    <glyph glyph-name="Otilde" unicode="&#xd5;" horiz-adv-x="796" 
d="M478 763c-42 -10 -142 79 -177 75c-46 9 -45 -70 -92 -32c-16 60 46 112 111 112c41 10 139 -70 172 -67c46 -8 52 60 94 24c18 -60 -44 -112 -108 -112zM50 350c0 208 144 357 348 357s348 -149 348 -357s-144 -357 -348 -357s-348 149 -348 357zM398 100
c127 0 230 116 230 250c0 135 -102 250 -230 250c-127 0 -230 -116 -230 -250c0 -135 103 -250 230 -250z" />
    <glyph glyph-name="Odieresis" unicode="&#xd6;" horiz-adv-x="796" 
d="M214 831c0 79 120 74 120 0c0 -32 -28 -60 -60 -60s-60 28 -60 60zM582 831c0 -32 -28 -60 -60 -60s-60 28 -60 60c0 31 28 59 60 59s60 -28 60 -59zM50 350c0 208 144 357 348 357s348 -149 348 -357s-144 -357 -348 -357s-348 149 -348 357zM398 100
c127 0 230 116 230 250c0 135 -102 250 -230 250c-127 0 -230 -116 -230 -250c0 -135 103 -250 230 -250z" />
    <glyph glyph-name="multiply" unicode="&#xd7;" horiz-adv-x="391" 
d="M264 274c25 -33 97 -67 59 -123c-59 -38 -92 37 -123 59c-34 -25 -68 -99 -125 -61c-39 61 39 93 61 125c-25 33 -98 67 -60 123c60 40 93 -37 124 -59c32 25 66 96 121 58c39 -59 -36 -92 -57 -122z" />
    <glyph glyph-name="Oslash" unicode="&#xd8;" horiz-adv-x="796" 
d="M506 719c26 66 132 19 99 -47l-13 -27c84 -57 154 -160 154 -295c0 -208 -144 -357 -348 -357c-39 0 -75 6 -109 19c-13 -28 -28 -68 -66 -68s-68 40 -50 79l19 40c-78 59 -142 157 -142 287c0 208 144 357 348 357c31 0 63 -5 95 -14zM446 595
c-157 32 -280 -96 -278 -245c1 -74 24 -135 73 -184zM336 109c161 -45 292 87 292 241c0 79 -28 144 -84 195z" />
    <glyph glyph-name="Ugrave" unicode="&#xd9;" horiz-adv-x="686" 
d="M240 859c-32 36 -1 96 45 94c25 -1 43 -13 54 -38l49 -121c20 -42 -38 -68 -65 -36zM511 648c-1 28 27 55 55 55s55 -27 55 -55v-393c5 -154 -127 -262 -278 -262c-152 0 -278 108 -278 262v393c-1 28 27 55 55 55s55 -27 55 -55v-392c-3 -106 68 -168 168 -168
s168 62 168 168v392z" />
    <glyph glyph-name="Uacute" unicode="&#xda;" horiz-adv-x="686" 
d="M337 915c18 62 116 41 112 -20c0 -13 -4 -25 -13 -36l-83 -101c-24 -34 -82 -7 -65 36zM511 648c-1 28 27 55 55 55s55 -27 55 -55v-393c5 -154 -127 -262 -278 -262c-152 0 -278 108 -278 262v393c-1 28 27 55 55 55s55 -27 55 -55v-392c-3 -106 68 -168 168 -168
s168 62 168 168v392z" />
    <glyph glyph-name="Ucircumflex" unicode="&#xdb;" horiz-adv-x="686" 
d="M277 947c68 0 153 19 182 -31l41 -70c38 -61 -51 -63 -83 -30l-76 80l-76 -80c-25 -39 -123 -28 -83 30c25 36 37 101 95 101zM511 648c-1 28 27 55 55 55s55 -27 55 -55v-393c5 -154 -127 -262 -278 -262c-152 0 -278 108 -278 262v393c-1 28 27 55 55 55s55 -27 55 -55
v-392c-3 -106 68 -168 168 -168s168 62 168 168v392z" />
    <glyph glyph-name="Udieresis" unicode="&#xdc;" horiz-adv-x="686" 
d="M159 831c0 79 120 74 120 0c0 -32 -28 -60 -60 -60s-60 28 -60 60zM527 831c0 -32 -28 -60 -60 -60s-60 28 -60 60c0 31 28 59 60 59s60 -28 60 -59zM511 648c-1 28 27 55 55 55s55 -27 55 -55v-393c5 -154 -127 -262 -278 -262c-152 0 -278 108 -278 262v393
c-1 28 27 55 55 55s55 -27 55 -55v-392c-3 -106 68 -168 168 -168s168 62 168 168v392z" />
    <glyph glyph-name="Yacute" unicode="&#xdd;" horiz-adv-x="634" 
d="M311 915c18 62 116 41 112 -20c0 -13 -4 -25 -13 -36l-83 -101c-24 -34 -82 -7 -65 36zM44 622c-39 54 45 113 85 59l188 -257l188 257c35 55 125 -3 85 -59l-218 -299v-274c1 -30 -25 -55 -55 -55s-56 25 -55 55v274z" />
    <glyph glyph-name="Thorn" unicode="&#xde;" horiz-adv-x="672" 
d="M607 352c0 -145 -119 -215 -272 -213h-150v-139h-110v700h110v-135h150c149 3 272 -76 272 -213zM497 352c0 148 -173 113 -312 118v-236c141 6 312 -36 312 118z" />
    <glyph glyph-name="germandbls" unicode="&#xdf;" horiz-adv-x="647" 
d="M70 486c-3 132 109 214 243 214c123 0 249 -68 249 -185c0 -67 -51 -125 -109 -131c79 -7 149 -85 149 -171c0 -165 -119 -213 -296 -213c-37 0 -56 16 -56 49c0 52 52 49 105 49c85 0 137 28 137 115c0 97 -83 114 -186 114c-37 0 -56 16 -56 49c0 52 52 49 105 49
c70 0 97 22 97 90c0 66 -66 90 -139 90c-88 -1 -132 -32 -133 -119v-430c0 -37 -18 -56 -55 -56s-55 19 -55 56v430z" />
    <glyph glyph-name="agrave" unicode="&#xe0;" horiz-adv-x="612" 
d="M220 679c-32 36 -1 96 45 94c25 -1 43 -13 54 -38l49 -121c20 -42 -38 -68 -65 -36zM40 260c0 160 94 266 245 266c73 0 125 -24 157 -73c-20 85 110 98 110 18v-422c1 -30 -25 -56 -55 -55c-43 1 -62 39 -55 90c-6 -50 -92 -96 -157 -91c-151 12 -245 106 -245 267z
M299 431c-84 0 -149 -77 -149 -171s65 -172 149 -172c90 0 148 70 148 172c0 103 -58 171 -148 171z" />
    <glyph glyph-name="aacute" unicode="&#xe1;" horiz-adv-x="612" 
d="M317 735c18 62 116 41 112 -20c0 -13 -4 -25 -13 -36l-83 -101c-24 -34 -82 -7 -65 36zM40 260c0 160 94 266 245 266c73 0 125 -24 157 -73c-20 85 110 98 110 18v-422c1 -30 -25 -56 -55 -55c-43 1 -62 39 -55 90c-6 -50 -92 -96 -157 -91c-151 12 -245 106 -245 267z
M299 431c-84 0 -149 -77 -149 -171s65 -172 149 -172c90 0 148 70 148 172c0 103 -58 171 -148 171z" />
    <glyph glyph-name="acircumflex" unicode="&#xe2;" horiz-adv-x="612" 
d="M257 767c68 0 153 19 182 -31l41 -70c38 -61 -51 -63 -83 -30l-76 80l-76 -80c-25 -39 -123 -28 -83 30c25 36 37 101 95 101zM40 260c0 160 94 266 245 266c73 0 125 -24 157 -73c-20 85 110 98 110 18v-422c1 -30 -25 -56 -55 -55c-43 1 -62 39 -55 90
c-6 -50 -92 -96 -157 -91c-151 12 -245 106 -245 267zM299 431c-84 0 -149 -77 -149 -171s65 -172 149 -172c90 0 148 70 148 172c0 103 -58 171 -148 171z" />
    <glyph glyph-name="atilde" unicode="&#xe3;" horiz-adv-x="612" 
d="M403 583c-42 -10 -142 79 -177 75c-46 9 -45 -70 -92 -32c-16 60 46 112 111 112c41 10 139 -70 172 -67c46 -8 52 60 94 24c18 -60 -44 -112 -108 -112zM40 260c0 160 94 266 245 266c73 0 125 -24 157 -73c-20 85 110 98 110 18v-422c1 -30 -25 -56 -55 -55
c-43 1 -62 39 -55 90c-6 -50 -92 -96 -157 -91c-151 12 -245 106 -245 267zM299 431c-84 0 -149 -77 -149 -171s65 -172 149 -172c90 0 148 70 148 172c0 103 -58 171 -148 171z" />
    <glyph glyph-name="adieresis" unicode="&#xe4;" horiz-adv-x="612" 
d="M259 651c0 -32 -28 -60 -60 -60c-51 0 -80 64 -43 101s103 9 103 -41zM447 710c51 0 80 -65 43 -102s-103 -8 -103 43c0 31 28 59 60 59zM40 260c0 160 94 266 245 266c73 0 125 -24 157 -73c-20 85 110 98 110 18v-422c1 -30 -25 -56 -55 -55c-43 1 -62 39 -55 90
c-6 -50 -92 -96 -157 -91c-151 12 -245 106 -245 267zM299 431c-84 0 -149 -77 -149 -171s65 -172 149 -172c90 0 148 70 148 172c0 103 -58 171 -148 171z" />
    <glyph glyph-name="aring" unicode="&#xe5;" horiz-adv-x="612" 
d="M251 628c-63 63 -14 172 73 172c53 0 100 -48 100 -101c0 -85 -110 -133 -173 -71zM322 669c42 -2 41 65 0 63c-40 2 -41 -65 0 -63zM40 260c0 160 94 266 245 266c73 0 125 -24 157 -73c-20 85 110 98 110 18v-422c1 -30 -25 -56 -55 -55c-43 1 -62 39 -55 90
c-6 -50 -92 -96 -157 -91c-151 12 -245 106 -245 267zM299 431c-84 0 -149 -77 -149 -171s65 -172 149 -172c90 0 148 70 148 172c0 103 -58 171 -148 171z" />
    <glyph glyph-name="ae" unicode="&#xe6;" horiz-adv-x="1005" 
d="M442 453c-19 81 103 102 110 19c49 36 101 54 156 54c124 1 260 -114 252 -251c-2 -39 -22 -58 -65 -58h-333c5 -111 161 -167 250 -98c34 26 81 6 81 -37c0 -19 -8 -33 -24 -43c-91 -62 -228 -64 -317 8c0 -28 -26 -54 -55 -53c-43 1 -62 39 -55 90
c-6 -50 -92 -96 -157 -91c-151 12 -245 106 -245 267c0 160 94 266 245 266c73 0 125 -24 157 -73zM150 260c0 -94 65 -172 149 -172c90 0 148 70 148 172c0 103 -58 171 -148 171c-84 0 -149 -77 -149 -171zM850 308c-10 103 -147 161 -234 90c-28 -23 -46 -51 -53 -90h287
z" />
    <glyph glyph-name="ccedilla" unicode="&#xe7;" horiz-adv-x="542" 
d="M155 259c-14 -140 157 -226 252 -129c31 31 88 8 85 -35c0 -15 -9 -29 -26 -43c-34 -29 -73 -48 -119 -55l-45 -48c46 -6 89 -42 89 -93c-2 -74 -82 -94 -164 -94c-36 0 -23 39 5 39c64 0 92 49 57 87c-20 22 -55 -18 -69 16c-18 43 23 65 33 95
c-110 25 -212 120 -208 260c5 165 106 267 260 267c63 0 116 -20 160 -58c18 -15 27 -29 27 -44c0 -43 -56 -67 -85 -36c-95 97 -266 12 -252 -129z" />
    <glyph glyph-name="egrave" unicode="&#xe8;" 
d="M200 679c-32 36 -1 96 45 94c25 -1 43 -13 54 -38l49 -121c20 -42 -38 -68 -65 -36zM45 259c0 163 106 259 260 267c124 6 260 -114 252 -251c-2 -39 -22 -58 -65 -58h-333c5 -111 160 -167 250 -98c34 26 81 6 81 -37c0 -19 -8 -32 -24 -43c-45 -30 -98 -46 -160 -46
c-154 0 -261 102 -261 266zM447 308c-10 103 -147 161 -234 90c-28 -23 -46 -51 -53 -90h287z" />
    <glyph glyph-name="eacute" unicode="&#xe9;" 
d="M297 735c18 62 116 41 112 -20c0 -13 -4 -25 -13 -36l-83 -101c-24 -34 -82 -7 -65 36zM45 259c0 163 106 259 260 267c124 6 260 -114 252 -251c-2 -39 -22 -58 -65 -58h-333c5 -111 160 -167 250 -98c34 26 81 6 81 -37c0 -19 -8 -32 -24 -43c-45 -30 -98 -46 -160 -46
c-154 0 -261 102 -261 266zM447 308c-10 103 -147 161 -234 90c-28 -23 -46 -51 -53 -90h287z" />
    <glyph glyph-name="ecircumflex" unicode="&#xea;" 
d="M237 767c68 0 153 19 182 -31l41 -70c38 -61 -51 -63 -83 -30l-76 80l-76 -80c-25 -39 -123 -28 -83 30c25 36 37 101 95 101zM45 259c0 163 106 259 260 267c124 6 260 -114 252 -251c-2 -39 -22 -58 -65 -58h-333c5 -111 160 -167 250 -98c34 26 81 6 81 -37
c0 -19 -8 -32 -24 -43c-45 -30 -98 -46 -160 -46c-154 0 -261 102 -261 266zM447 308c-10 103 -147 161 -234 90c-28 -23 -46 -51 -53 -90h287z" />
    <glyph glyph-name="edieresis" unicode="&#xeb;" 
d="M239 651c0 -32 -28 -60 -60 -60s-60 28 -60 60c0 31 28 59 60 59s60 -28 60 -59zM427 710c51 0 80 -65 43 -102s-103 -8 -103 43c0 31 28 59 60 59zM45 259c0 163 106 259 260 267c124 6 260 -114 252 -251c-2 -39 -22 -58 -65 -58h-333c5 -111 160 -167 250 -98
c34 26 81 6 81 -37c0 -19 -8 -32 -24 -43c-45 -30 -98 -46 -160 -46c-154 0 -261 102 -261 266zM447 308c-10 103 -147 161 -234 90c-28 -23 -46 -51 -53 -90h287z" />
    <glyph glyph-name="igrave" unicode="&#xec;" horiz-adv-x="260" 
d="M14 715c-4 61 88 80 112 20l49 -121c20 -42 -38 -68 -65 -36l-83 101c-9 11 -13 23 -13 36zM75 468c-1 28 27 55 55 55s55 -27 55 -55v-418c1 -28 -27 -55 -55 -55s-55 27 -55 55v418z" />
    <glyph glyph-name="iacute" unicode="&#xed;" horiz-adv-x="260" 
d="M124 735c18 62 115 42 112 -20c0 -13 -4 -25 -13 -36l-83 -101c-24 -34 -82 -7 -65 36zM75 468c-1 28 27 55 55 55s55 -27 55 -55v-418c1 -28 -27 -55 -55 -55s-55 27 -55 55v418z" />
    <glyph glyph-name="icircumflex" unicode="&#xee;" horiz-adv-x="260" 
d="M64 767c68 0 153 19 182 -31l41 -70c38 -61 -51 -63 -83 -30l-76 80l-76 -80c-25 -39 -123 -28 -83 30c25 36 37 101 95 101zM75 468c-1 28 27 55 55 55s55 -27 55 -55v-418c1 -28 -27 -55 -55 -55s-55 27 -55 55v418z" />
    <glyph glyph-name="idieresis" unicode="&#xef;" horiz-adv-x="260" 
d="M66 651c0 -32 -28 -60 -60 -60s-60 28 -60 60c0 31 28 59 60 59s60 -28 60 -59zM194 651c0 79 120 74 120 0c0 -32 -28 -60 -60 -60s-60 28 -60 60zM75 468c-1 28 27 55 55 55s55 -27 55 -55v-418c1 -28 -27 -55 -55 -55s-55 27 -55 55v418z" />
    <glyph glyph-name="eth" unicode="&#xf0;" horiz-adv-x="594" 
d="M265 636c-27 51 50 98 83 50l27 -35c39 13 84 -1 84 -42c0 -17 -8 -31 -24 -40c63 -96 96 -174 99 -317c4 -158 -106 -262 -255 -262c-141 1 -244 108 -244 262c0 163 89 268 244 268c41 0 70 -8 87 -23l-39 53c-43 -11 -100 -11 -101 40c0 23 18 43 39 46zM424 252
c2 109 -46 172 -145 172c-93 0 -134 -67 -134 -172c0 -137 140 -220 235 -124c29 29 44 69 44 124z" />
    <glyph glyph-name="ntilde" unicode="&#xf1;" horiz-adv-x="603" 
d="M383 583c-42 -10 -142 79 -177 75c-46 9 -45 -70 -92 -32c-16 60 46 112 111 112c41 10 139 -70 172 -67c46 -8 52 60 94 24c18 -60 -44 -112 -108 -112zM170 409c11 56 86 119 166 116c131 -6 212 -85 212 -228v-247c1 -29 -26 -55 -55 -55s-56 26 -55 55v241
c0 93 -39 139 -116 139c-72 0 -152 -78 -152 -131v-249c1 -29 -26 -55 -55 -55s-56 26 -55 55v418c-1 29 26 56 55 55c53 -1 61 -54 55 -114z" />
    <glyph glyph-name="ograve" unicode="&#xf2;" horiz-adv-x="600" 
d="M197 679c-32 36 -1 96 45 94c25 -1 43 -13 54 -38l49 -121c20 -42 -38 -68 -65 -36zM40 259c0 163 106 267 260 267s260 -104 260 -267c0 -164 -106 -266 -260 -266s-260 102 -260 266zM196 134c97 -101 254 -17 254 125c0 97 -65 171 -150 171c-84 0 -153 -75 -150 -171
c2 -53 16 -94 46 -125z" />
    <glyph glyph-name="oacute" unicode="&#xf3;" horiz-adv-x="600" 
d="M294 735c18 62 116 41 112 -20c0 -13 -4 -25 -13 -36l-83 -101c-24 -34 -82 -7 -65 36zM40 259c0 163 106 267 260 267s260 -104 260 -267c0 -164 -106 -266 -260 -266s-260 102 -260 266zM196 134c97 -101 254 -17 254 125c0 97 -65 171 -150 171
c-84 0 -153 -75 -150 -171c2 -53 16 -94 46 -125z" />
    <glyph glyph-name="ocircumflex" unicode="&#xf4;" horiz-adv-x="600" 
d="M234 767c68 0 153 19 182 -31l41 -70c38 -61 -51 -63 -83 -30l-76 80l-76 -80c-25 -39 -123 -28 -83 30c25 36 37 101 95 101zM40 259c0 163 106 267 260 267s260 -104 260 -267c0 -164 -106 -266 -260 -266s-260 102 -260 266zM196 134c97 -101 254 -17 254 125
c0 97 -65 171 -150 171c-84 0 -153 -75 -150 -171c2 -53 16 -94 46 -125z" />
    <glyph glyph-name="otilde" unicode="&#xf5;" horiz-adv-x="600" 
d="M380 583c-42 -10 -142 79 -177 75c-46 9 -45 -70 -92 -32c-16 60 46 112 111 112c41 10 139 -70 172 -67c46 -8 52 60 94 24c18 -60 -44 -112 -108 -112zM40 259c0 163 106 267 260 267s260 -104 260 -267c0 -164 -106 -266 -260 -266s-260 102 -260 266zM196 134
c97 -101 254 -17 254 125c0 97 -65 171 -150 171c-84 0 -153 -75 -150 -171c2 -53 16 -94 46 -125z" />
    <glyph glyph-name="odieresis" unicode="&#xf6;" horiz-adv-x="600" 
d="M236 651c0 -32 -28 -60 -60 -60s-60 28 -60 60c0 31 28 59 60 59s60 -28 60 -59zM424 710c51 0 79 -65 42 -102s-102 -8 -102 43c0 31 28 59 60 59zM40 259c0 163 106 267 260 267s260 -104 260 -267c0 -164 -106 -266 -260 -266s-260 102 -260 266zM196 134
c97 -101 254 -17 254 125c0 97 -65 171 -150 171c-84 0 -153 -75 -150 -171c2 -53 16 -94 46 -125z" />
    <glyph glyph-name="divide" unicode="&#xf7;" horiz-adv-x="425" 
d="M167 479c40 40 110 9 110 -45c0 -34 -30 -65 -64 -65c-55 0 -86 70 -46 110zM45 277c0 25 23 46 48 45h251c40 3 67 -50 34 -77c-10 -9 -21 -13 -34 -13h-251c-25 -1 -48 20 -48 45zM167 172c40 40 110 9 110 -45c0 -34 -30 -65 -64 -65c-55 0 -86 70 -46 110z" />
    <glyph glyph-name="oslash" unicode="&#xf8;" horiz-adv-x="600" 
d="M383 555c24 60 122 16 91 -44l-19 -39c70 -50 105 -121 105 -213c0 -164 -106 -266 -260 -266c-24 0 -47 3 -69 10c-12 -25 -25 -59 -61 -59c-34 0 -62 39 -45 73l15 32c-96 68 -129 207 -75 327c40 88 120 150 235 150c20 0 42 -3 65 -9zM322 428
c-100 13 -172 -66 -172 -169c0 -45 12 -83 36 -114zM273 92c102 -17 179 64 177 167c-1 48 -13 88 -40 119z" />
    <glyph glyph-name="ugrave" unicode="&#xf9;" horiz-adv-x="597" 
d="M193 679c-32 36 -1 96 45 94c25 -1 43 -13 54 -38l49 -121c20 -42 -38 -68 -65 -36zM268 89c76 -4 159 84 159 145v234c-1 28 27 55 55 55s55 -27 55 -55v-418c1 -28 -27 -56 -55 -55c-55 1 -61 59 -55 121c-15 -55 -90 -125 -170 -122c-127 5 -202 84 -202 224v250
c-1 28 27 55 55 55s55 -27 55 -55v-244c-2 -81 32 -131 103 -135z" />
    <glyph glyph-name="uacute" unicode="&#xfa;" horiz-adv-x="597" 
d="M290 735c18 62 116 41 112 -20c0 -13 -4 -25 -13 -36l-83 -101c-24 -34 -82 -7 -65 36zM268 89c76 -4 159 84 159 145v234c-1 28 27 55 55 55s55 -27 55 -55v-418c1 -28 -27 -56 -55 -55c-55 1 -61 59 -55 121c-15 -55 -90 -125 -170 -122c-127 5 -202 84 -202 224v250
c-1 28 27 55 55 55s55 -27 55 -55v-244c-2 -81 32 -131 103 -135z" />
    <glyph glyph-name="ucircumflex" unicode="&#xfb;" horiz-adv-x="597" 
d="M230 767c68 0 153 19 182 -31l41 -70c38 -61 -51 -63 -83 -30l-76 80l-76 -80c-25 -39 -123 -28 -83 30c25 36 37 101 95 101zM268 89c76 -4 159 84 159 145v234c-1 28 27 55 55 55s55 -27 55 -55v-418c1 -28 -27 -56 -55 -55c-55 1 -61 59 -55 121
c-15 -55 -90 -125 -170 -122c-127 5 -202 84 -202 224v250c-1 28 27 55 55 55s55 -27 55 -55v-244c-2 -81 32 -131 103 -135z" />
    <glyph glyph-name="udieresis" unicode="&#xfc;" horiz-adv-x="597" 
d="M232 651c0 -32 -28 -60 -60 -60s-60 28 -60 60c0 31 28 59 60 59s60 -28 60 -59zM420 710c51 0 79 -65 42 -102s-102 -8 -102 43c0 31 28 59 60 59zM268 89c76 -4 159 84 159 145v234c-1 28 27 55 55 55s55 -27 55 -55v-418c1 -28 -27 -56 -55 -55c-55 1 -61 59 -55 121
c-15 -55 -90 -125 -170 -122c-127 5 -202 84 -202 224v250c-1 28 27 55 55 55s55 -27 55 -55v-244c-2 -81 32 -131 103 -135z" />
    <glyph glyph-name="yacute" unicode="&#xfd;" horiz-adv-x="577" 
d="M287 735c18 62 116 41 112 -20c0 -13 -4 -25 -13 -36l-83 -101c-24 -34 -82 -7 -65 36zM39 456c-27 59 65 100 92 40l162 -352l152 350c19 62 119 24 93 -38l-262 -621c-20 -61 -117 -24 -92 38l57 142z" />
    <glyph glyph-name="thorn" unicode="&#xfe;" horiz-adv-x="601" 
d="M174 459c35 45 87 71 157 67c151 -9 245 -106 245 -266c0 -162 -95 -258 -249 -267c-63 -4 -135 34 -153 76c-6 -63 -4 -139 -4 -210c0 -30 -25 -55 -55 -55s-56 25 -55 55v612c8 53 4 121 4 180c0 30 25 55 55 55s56 -25 55 -55v-192zM462 260c0 139 -151 224 -250 128
c-53 -52 -53 -204 0 -256c99 -97 250 -12 250 128z" />
    <glyph glyph-name="ydieresis" unicode="&#xff;" horiz-adv-x="577" 
d="M229 651c0 -32 -28 -60 -60 -60s-60 28 -60 60c0 31 28 59 60 59s60 -28 60 -59zM417 710c51 0 80 -65 43 -102s-103 -8 -103 43c0 31 28 59 60 59zM39 456c-27 59 65 100 92 40l162 -352l152 350c19 62 119 24 93 -38l-262 -621c-20 -61 -117 -24 -92 38l57 142z" />
    <glyph glyph-name="Amacron" unicode="&#x100;" horiz-adv-x="716" 
d="M166 833c0 25 23 47 48 47h288c60 4 64 -95 0 -95h-288c-26 -1 -48 22 -48 48zM150 27c-23 -66 -130 -23 -100 45l263 592c22 52 68 52 90 0l263 -592c32 -65 -71 -111 -100 -45l-75 169h-266zM358 514l-97 -222h194z" />
    <glyph glyph-name="amacron" unicode="&#x101;" horiz-adv-x="612" 
d="M131 653c0 25 23 47 48 47h288c25 1 48 -22 48 -47c0 -26 -22 -49 -48 -48h-288c-26 -1 -48 22 -48 48zM40 260c0 160 94 266 245 266c73 0 125 -24 157 -73c-20 85 110 98 110 18v-422c1 -30 -25 -56 -55 -55c-43 1 -62 39 -55 90c-6 -50 -92 -96 -157 -91
c-151 12 -245 106 -245 267zM299 431c-84 0 -149 -77 -149 -171s65 -172 149 -172c90 0 148 70 148 172c0 103 -58 171 -148 171z" />
    <glyph glyph-name="Abreve" unicode="&#x102;" horiz-adv-x="716" 
d="M440 925c15 53 100 23 84 -28c-22 -69 -78 -129 -167 -129c-84 0 -142 62 -164 128c-18 54 67 81 82 30c23 -75 143 -76 165 -1zM150 27c-23 -66 -130 -23 -100 45l263 592c22 52 68 52 90 0l263 -592c32 -65 -71 -111 -100 -45l-75 169h-266zM358 514l-97 -222h194z" />
    <glyph glyph-name="abreve" unicode="&#x103;" horiz-adv-x="612" 
d="M405 745c16 53 100 23 84 -28c-22 -70 -78 -129 -167 -129c-84 0 -142 62 -164 128c-18 54 67 81 82 30c23 -75 143 -76 165 -1zM40 260c0 160 94 266 245 266c73 0 125 -24 157 -73c-20 85 110 98 110 18v-422c1 -30 -25 -56 -55 -55c-43 1 -62 39 -55 90
c-6 -50 -92 -96 -157 -91c-151 12 -245 106 -245 267zM299 431c-84 0 -149 -77 -149 -171s65 -172 149 -172c90 0 148 70 148 172c0 103 -58 171 -148 171z" />
    <glyph glyph-name="Aogonek" unicode="&#x104;" horiz-adv-x="716" 
d="M150 27c-23 -66 -130 -23 -100 45l263 592c22 52 68 52 90 0l263 -592c27 -99 -132 -100 -132 -180c0 -31 19 -46 56 -46c36 8 57 -48 20 -54c-84 -13 -180 2 -180 83c0 74 72 103 112 140c12 12 19 23 15 32l-66 149h-266zM261 292h194l-97 222z" />
    <glyph glyph-name="aogonek" unicode="&#x105;" horiz-adv-x="612" 
d="M442 453c-20 85 110 98 110 18v-422c-7 -76 -132 -82 -132 -157c0 -31 19 -46 56 -46c36 8 57 -48 20 -54c-84 -13 -180 2 -180 83c0 75 66 105 106 142c23 21 20 32 20 67c-6 -50 -92 -96 -157 -91c-151 12 -245 106 -245 267c0 160 94 266 245 266
c73 0 125 -24 157 -73zM150 260c0 -94 65 -172 149 -172c90 0 148 70 148 172c0 103 -58 171 -148 171c-84 0 -149 -77 -149 -171z" />
    <glyph glyph-name="Cacute" unicode="&#x106;" horiz-adv-x="634" 
d="M363 915c18 62 116 41 112 -20c0 -13 -4 -25 -13 -36l-83 -101c-24 -34 -82 -7 -65 36zM569 46c-231 -153 -535 48 -524 303c9 207 143 358 347 358c62 0 120 -19 177 -53c60 -36 0 -134 -60 -92c-156 112 -346 -39 -346 -212s190 -324 345 -212c58 41 122 -51 61 -92z
" />
    <glyph glyph-name="cacute" unicode="&#x107;" horiz-adv-x="542" 
d="M299 735c18 62 116 41 112 -20c0 -13 -4 -25 -13 -36l-83 -101c-24 -34 -82 -7 -65 36zM45 259c8 164 106 267 260 267c63 0 116 -20 160 -58c18 -15 27 -29 27 -44c0 -43 -56 -67 -85 -36c-95 97 -266 12 -252 -129c-14 -140 157 -226 252 -129c31 31 88 8 85 -35
c0 -15 -9 -28 -26 -43c-160 -142 -432 -7 -421 207z" />
    <glyph glyph-name="Cdotaccent" unicode="&#x10a;" horiz-adv-x="634" 
d="M426 881c0 -30 -27 -57 -57 -57c-47 0 -76 61 -40 97s97 7 97 -40zM569 46c-231 -153 -535 48 -524 303c9 207 143 358 347 358c62 0 120 -19 177 -53c60 -36 0 -134 -60 -92c-156 112 -346 -39 -346 -212s190 -324 345 -212c58 41 122 -51 61 -92z" />
    <glyph glyph-name="cdotaccent" unicode="&#x10b;" horiz-adv-x="542" 
d="M345 741c36 -36 7 -97 -40 -97c-30 0 -57 27 -57 57c0 47 61 76 97 40zM45 259c8 164 106 267 260 267c63 0 116 -20 160 -58c18 -15 27 -29 27 -44c0 -43 -56 -67 -85 -36c-95 97 -266 12 -252 -129c-14 -140 157 -226 252 -129c31 31 88 8 85 -35c0 -15 -9 -28 -26 -43
c-160 -142 -432 -7 -421 207z" />
    <glyph glyph-name="Ccaron" unicode="&#x10c;" horiz-adv-x="634" 
d="M481 833c-25 -52 -114 -31 -182 -31c-58 0 -70 65 -95 101c-40 59 51 63 83 30l76 -80l76 80c25 39 119 31 83 -30zM569 46c-231 -153 -535 48 -524 303c9 207 143 358 347 358c62 0 120 -19 177 -53c60 -36 0 -134 -60 -92c-156 112 -346 -39 -346 -212
s190 -324 345 -212c58 41 122 -51 61 -92z" />
    <glyph glyph-name="ccaron" unicode="&#x10d;" horiz-adv-x="542" 
d="M417 653c-25 -52 -114 -31 -182 -31c-58 0 -70 65 -95 101c-40 59 51 63 83 30l76 -80l76 80c25 39 119 31 83 -30zM45 259c8 164 106 267 260 267c63 0 116 -20 160 -58c18 -15 27 -29 27 -44c0 -43 -56 -67 -85 -36c-95 97 -266 12 -252 -129
c-14 -140 157 -226 252 -129c31 31 88 8 85 -35c0 -15 -9 -28 -26 -43c-160 -142 -432 -7 -421 207z" />
    <glyph glyph-name="Dcaron" unicode="&#x10e;" horiz-adv-x="695" 
d="M462 833c-25 -52 -114 -31 -182 -31c-58 0 -70 65 -95 101c-40 59 51 63 83 30l76 -80l76 80c25 39 119 31 83 -30zM70 638c-1 35 27 63 62 62h163c185 6 350 -162 350 -348c0 -189 -162 -358 -350 -352h-163c-35 -1 -63 27 -62 62v576zM532 352c0 139 -98 256 -237 252
h-112v-508h112c141 -3 237 115 237 256z" />
    <glyph glyph-name="dcaron" unicode="&#x10f;" horiz-adv-x="874" 
d="M35 260c0 160 94 266 245 266c73 0 125 -24 157 -73v198c-1 29 26 55 55 55s55 -26 55 -55v-602c1 -29 -26 -56 -55 -55c-42 1 -63 39 -55 90c-6 -50 -92 -96 -157 -91c-151 12 -245 106 -245 267zM662 668c18 62 115 42 112 -20c0 -13 -4 -25 -13 -36l-83 -101
c-24 -34 -82 -7 -65 36zM145 260c0 -94 65 -172 149 -172c90 0 148 70 148 172c0 103 -58 171 -148 171c-84 0 -149 -77 -149 -171z" />
    <glyph glyph-name="Dcroat" unicode="&#x110;" horiz-adv-x="792" 
d="M143 638c-1 35 27 63 62 62h163c185 6 350 -162 350 -348c0 -189 -162 -358 -350 -352h-163c-35 -1 -63 27 -62 62v238c-39 -6 -68 12 -68 45s29 51 68 45v248zM397 345c0 -61 -81 -42 -141 -45v-204h112c141 -3 237 115 237 256c0 139 -98 256 -237 252h-112v-214
c60 -3 141 17 141 -45z" />
    <glyph glyph-name="dcroat" unicode="&#x111;" horiz-adv-x="682" 
d="M492 706c34 0 61 -30 55 -70c64 15 112 -35 73 -81c-15 -18 -42 -13 -73 -14v-492c1 -29 -26 -56 -55 -55c-42 1 -63 39 -55 90c-6 -50 -92 -96 -157 -91c-151 12 -245 106 -245 267c0 160 94 266 245 266c73 0 125 -24 157 -73v88c-71 8 -187 -27 -187 48
c0 74 117 39 187 47c-6 40 21 70 55 70zM145 260c0 -94 65 -172 149 -172c90 0 148 70 148 172c0 103 -58 171 -148 171c-84 0 -149 -77 -149 -171z" />
    <glyph glyph-name="Emacron" unicode="&#x112;" horiz-adv-x="590" 
d="M161 785c-60 -4 -65 95 0 95h288c25 1 48 -22 48 -47c0 -26 -22 -49 -48 -48h-288zM430 352c0 -27 -24 -51 -50 -50h-199v-203h309c26 1 50 -23 50 -49c0 -27 -24 -51 -50 -50h-363c-35 -1 -63 27 -62 62v576c-1 35 27 63 62 62h353c26 1 50 -23 50 -49
c0 -27 -24 -51 -50 -50h-299v-200h199c26 1 50 -23 50 -49z" />
    <glyph glyph-name="emacron" unicode="&#x113;" 
d="M159 605c-60 -4 -65 95 0 95h288c25 1 48 -22 48 -47c0 -26 -22 -49 -48 -48h-288zM45 259c0 163 106 259 260 267c124 6 260 -114 252 -251c-2 -39 -22 -58 -65 -58h-333c5 -111 160 -167 250 -98c34 26 81 6 81 -37c0 -19 -8 -32 -24 -43c-45 -30 -98 -46 -160 -46
c-154 0 -261 102 -261 266zM447 308c-10 103 -147 161 -234 90c-28 -23 -46 -51 -53 -90h287z" />
    <glyph glyph-name="Edotaccent" unicode="&#x116;" horiz-adv-x="590" 
d="M345 921c36 -36 7 -97 -40 -97c-30 0 -57 27 -57 57c0 47 61 76 97 40zM430 352c0 -27 -24 -51 -50 -50h-199v-203h309c26 1 50 -23 50 -49c0 -27 -24 -51 -50 -50h-363c-35 -1 -63 27 -62 62v576c-1 35 27 63 62 62h353c26 1 50 -23 50 -49c0 -27 -24 -51 -50 -50h-299
v-200h199c26 1 50 -23 50 -49z" />
    <glyph glyph-name="edotaccent" unicode="&#x117;" 
d="M343 741c36 -36 7 -97 -40 -97c-30 0 -57 27 -57 57c0 47 61 76 97 40zM45 259c0 163 106 259 260 267c124 6 260 -114 252 -251c-2 -39 -22 -58 -65 -58h-333c5 -111 160 -167 250 -98c34 26 81 6 81 -37c0 -19 -8 -32 -24 -43c-45 -30 -98 -46 -160 -46
c-154 0 -261 102 -261 266zM447 308c-10 103 -147 161 -234 90c-28 -23 -46 -51 -53 -90h287z" />
    <glyph glyph-name="Eogonek" unicode="&#x118;" horiz-adv-x="590" 
d="M540 50c0 -27 -24 -51 -50 -50h44c-50 -19 -83 -38 -103 -51c-47 -30 -30 -110 28 -103c36 4 57 -48 20 -54c-88 -14 -180 15 -180 96c0 70 64 102 132 112h-304c-35 -1 -63 27 -62 62v576c-1 35 27 63 62 62h353c26 1 50 -23 50 -49c0 -27 -24 -51 -50 -50h-299v-200
h199c26 1 50 -23 50 -49c0 -27 -24 -51 -50 -50h-199v-203h309c26 1 50 -23 50 -49z" />
    <glyph glyph-name="eogonek" unicode="&#x119;" 
d="M256 -2c-111 25 -216 120 -211 261c6 163 106 259 260 267c124 6 260 -114 252 -251c-2 -39 -22 -58 -65 -58h-333c5 -111 160 -167 250 -98c34 26 81 6 81 -37c0 -19 -8 -32 -24 -43c-29 -19 -64 -30 -102 -41c-49 -15 -80 -37 -100 -50c-46 -31 -28 -109 29 -102
c36 4 57 -48 20 -54c-88 -14 -180 15 -180 96c0 67 60 99 123 110zM447 308c-10 103 -147 161 -234 90c-28 -23 -46 -51 -53 -90h287z" />
    <glyph glyph-name="Ecaron" unicode="&#x11a;" horiz-adv-x="590" 
d="M417 833c-25 -52 -114 -31 -182 -31c-58 0 -70 65 -95 101c-40 59 51 63 83 30l76 -80l76 80c25 39 119 31 83 -30zM430 352c0 -27 -24 -51 -50 -50h-199v-203h309c26 1 50 -23 50 -49c0 -27 -24 -51 -50 -50h-363c-35 -1 -63 27 -62 62v576c-1 35 27 63 62 62h353
c26 1 50 -23 50 -49c0 -27 -24 -51 -50 -50h-299v-200h199c26 1 50 -23 50 -49z" />
    <glyph glyph-name="ecaron" unicode="&#x11b;" 
d="M415 653c-25 -52 -114 -31 -182 -31c-58 0 -70 65 -95 101c-40 59 51 63 83 30l76 -80l76 80c25 39 119 31 83 -30zM45 259c0 163 106 259 260 267c124 6 260 -114 252 -251c-2 -39 -22 -58 -65 -58h-333c5 -111 160 -167 250 -98c34 26 81 6 81 -37
c0 -19 -8 -32 -24 -43c-45 -30 -98 -46 -160 -46c-154 0 -261 102 -261 266zM447 308c-10 103 -147 161 -234 90c-28 -23 -46 -51 -53 -90h287z" />
    <glyph glyph-name="Gbreve" unicode="&#x11e;" horiz-adv-x="750" 
d="M474 925c15 53 100 23 84 -28c-22 -69 -78 -129 -167 -129c-84 0 -142 62 -164 128c-18 54 67 81 82 30c23 -75 143 -76 165 -1zM455 292c2 76 114 44 186 50c40 3 69 -28 63 -68c-20 -155 -144 -286 -312 -281c-203 6 -347 150 -347 357s144 357 347 357
c80 0 147 -21 204 -60s-4 -130 -62 -88c-159 117 -372 -26 -372 -208c0 -168 195 -328 346 -213c34 26 59 61 74 104c-60 -1 -127 -8 -127 50z" />
    <glyph glyph-name="gbreve" unicode="&#x11f;" horiz-adv-x="592" 
d="M412 624c-53 -47 -155 -49 -210 0c-28 25 -50 55 -62 92c-19 54 67 81 82 30c23 -75 143 -76 165 -1c16 53 100 23 84 -28c-12 -37 -30 -69 -59 -93zM437 453c-19 85 109 98 110 18v-471c1 -184 -213 -242 -376 -177c-44 17 -26 93 19 86c39 -6 74 -19 115 -19
c72 0 132 41 132 110v84c-6 -50 -92 -96 -157 -91c-151 12 -245 106 -245 267c0 160 94 266 245 266c73 0 125 -24 157 -73zM145 260c0 -94 65 -172 149 -172c90 0 148 70 148 172c0 103 -58 171 -148 171c-84 0 -149 -77 -149 -171z" />
    <glyph glyph-name="Gdotaccent" unicode="&#x120;" horiz-adv-x="750" 
d="M449 881c0 -30 -27 -57 -57 -57c-47 0 -76 61 -40 97s97 7 97 -40zM455 292c2 76 114 44 186 50c40 3 69 -28 63 -68c-20 -155 -144 -286 -312 -281c-203 6 -347 150 -347 357s144 357 347 357c80 0 147 -21 204 -60s-4 -130 -62 -88c-159 117 -372 -26 -372 -208
c0 -168 195 -328 346 -213c34 26 59 61 74 104c-60 -1 -127 -8 -127 50z" />
    <glyph glyph-name="gdotaccent" unicode="&#x121;" horiz-adv-x="592" 
d="M345 741c36 -36 7 -97 -40 -97c-30 0 -57 27 -57 57c0 47 61 76 97 40zM437 453c-19 85 109 98 110 18v-471c1 -184 -213 -242 -376 -177c-44 17 -26 93 19 86c39 -6 74 -19 115 -19c72 0 132 41 132 110v84c-6 -50 -92 -96 -157 -91c-151 12 -245 106 -245 267
c0 160 94 266 245 266c73 0 125 -24 157 -73zM145 260c0 -94 65 -172 149 -172c90 0 148 70 148 172c0 103 -58 171 -148 171c-84 0 -149 -77 -149 -171z" />
    <glyph glyph-name="Gcommaaccent" unicode="&#x122;" horiz-adv-x="750" 
d="M455 292c2 76 114 44 186 50c40 3 69 -28 63 -68c-20 -155 -144 -286 -312 -281c-203 6 -347 150 -347 357s144 357 347 357c80 0 147 -21 204 -60s-4 -130 -62 -88c-159 117 -372 -26 -372 -208c0 -168 195 -328 346 -213c34 26 59 61 74 104c-60 -1 -127 -8 -127 50z
M348 -183c-13 -36 -75 -44 -101 -19c-8 8 -10 22 -4 37c18 44 16 123 74 124c47 1 110 4 79 -54z" />
    <glyph glyph-name="gcommaaccent" unicode="&#x123;" horiz-adv-x="616" 
d="M335 559c-47 0 -114 -1 -79 54c29 45 36 124 115 120c74 -4 23 -92 13 -135c-6 -26 -24 -39 -49 -39zM437 453c-19 85 109 98 110 18v-471c1 -184 -213 -242 -376 -177c-44 17 -26 93 19 86c39 -6 74 -19 115 -19c72 0 132 41 132 110v84c-6 -50 -92 -96 -157 -91
c-151 12 -245 106 -245 267c0 160 94 266 245 266c73 0 125 -24 157 -73zM145 260c0 -94 65 -172 149 -172c90 0 148 70 148 172c0 103 -58 171 -148 171c-84 0 -149 -77 -149 -171z" />
    <glyph glyph-name="Hbar" unicode="&#x126;" horiz-adv-x="718" 
d="M520 646c-1 30 26 57 57 57c30 0 56 -27 56 -57v-592c1 -30 -26 -57 -56 -57c-31 0 -58 27 -57 57v244h-342v-244c1 -30 -26 -57 -56 -57c-31 0 -58 27 -57 57v592c-3 48 62 76 97 40c26 -27 12 -80 16 -126h342v86zM178 395h342v75h-342v-75z" />
    <glyph glyph-name="hbar" unicode="&#x127;" horiz-adv-x="640" 
d="M207 409c11 56 86 119 166 116c131 -6 212 -85 212 -228v-247c1 -28 -27 -55 -55 -55s-55 27 -55 55v241c0 93 -39 139 -116 139c-72 0 -152 -78 -152 -131v-250c1 -29 -26 -55 -55 -55s-55 26 -55 55v475c-38 -6 -67 13 -67 45s29 51 67 45c-7 52 12 92 55 92
s63 -40 55 -92c52 3 105 4 105 -45s-53 -48 -105 -45v-115z" />
    <glyph glyph-name="Imacron" unicode="&#x12a;" horiz-adv-x="245" 
d="M-69 833c0 25 23 47 48 47h288c25 1 48 -22 48 -47c0 -26 -22 -49 -48 -48h-288c-26 -1 -48 22 -48 48zM65 645c-1 30 27 58 58 58c30 0 57 -29 57 -58v-593c1 -29 -27 -58 -57 -58c-31 0 -59 28 -58 58v593z" />
    <glyph glyph-name="imacron" unicode="&#x12b;" horiz-adv-x="260" 
d="M-62 653c0 25 23 47 48 47h288c25 1 48 -22 48 -47c0 -26 -22 -49 -48 -48h-288c-26 -1 -48 22 -48 48zM75 468c-1 28 27 55 55 55s55 -27 55 -55v-418c1 -28 -27 -55 -55 -55s-55 27 -55 55v418z" />
    <glyph glyph-name="Iogonek" unicode="&#x12e;" horiz-adv-x="246" 
d="M124 703c30 0 57 -29 57 -58v-595c0 -80 -132 -80 -132 -158c0 -31 19 -46 56 -46c36 8 57 -48 20 -54c-84 -13 -180 2 -180 83c0 74 63 105 102 142c13 14 19 23 19 35v593c-1 30 27 58 58 58z" />
    <glyph glyph-name="iogonek" unicode="&#x12f;" horiz-adv-x="237" 
d="M76 741c48 54 135 -29 80 -80c-48 -54 -135 29 -80 80zM61 468c-1 28 27 55 55 55s55 -27 55 -55v-418c-7 -76 -132 -83 -132 -158c0 -31 19 -46 56 -46c36 8 57 -48 20 -54c-84 -13 -180 2 -180 83c0 75 67 105 107 142c13 13 19 24 19 33v418z" />
    <glyph glyph-name="Idotaccent" unicode="&#x130;" horiz-adv-x="245" 
d="M83 921c48 54 135 -29 80 -80c-48 -54 -135 29 -80 80zM65 645c-1 30 27 58 58 58c30 0 57 -29 57 -58v-593c1 -29 -27 -58 -57 -58c-31 0 -59 28 -58 58v593z" />
    <glyph glyph-name="dotlessi" unicode="&#x131;" horiz-adv-x="260" 
d="M75 468c-1 28 27 55 55 55s55 -27 55 -55v-418c1 -28 -27 -55 -55 -55s-55 27 -55 55v418z" />
    <glyph glyph-name="IJ" unicode="&#x132;" horiz-adv-x="795" 
d="M65 645c-1 30 27 58 58 58c30 0 57 -29 57 -58v-593c1 -29 -27 -58 -57 -58c-31 0 -59 28 -58 58v593zM620 648c-1 29 26 55 55 55s56 -26 55 -55v-383c5 -172 -91 -272 -245 -272c-59 0 -110 16 -155 46c-56 37 6 125 60 83c27 -19 58 -29 94 -29c111 -2 136 78 136 193
v362z" />
    <glyph glyph-name="ij" unicode="&#x133;" horiz-adv-x="495" 
d="M81 689c48 54 135 -29 80 -80c-48 -54 -135 29 -80 80zM429 649c0 -30 -27 -57 -57 -57c-47 0 -76 61 -40 97s97 7 97 -40zM65 467c-1 30 26 56 56 56s56 -26 56 -56v-417c1 -30 -26 -56 -56 -56s-56 26 -56 56v417zM315 468c-1 28 27 55 55 55s55 -27 55 -55v-523
c0 -100 -47 -150 -141 -150c-41 0 -108 10 -108 62c0 32 32 61 65 52c47 -13 74 4 74 66v493z" />
    <glyph glyph-name="Kcommaaccent" unicode="&#x136;" horiz-adv-x="690" 
d="M70 649c-2 47 63 77 97 40c11 -12 17 -25 17 -40v-373l345 411c39 53 124 -12 79 -65l-226 -267l250 -277c45 -46 -30 -116 -75 -67l-240 266l-133 -157c5 -64 1 -125 -57 -126c-30 -1 -57 27 -57 57v598zM342 -183c-13 -36 -75 -44 -101 -19c-8 8 -10 22 -4 37
c18 44 16 123 74 124c47 1 110 4 79 -54z" />
    <glyph glyph-name="kcommaaccent" unicode="&#x137;" horiz-adv-x="598" 
d="M374 510c42 49 118 -21 72 -69l-153 -161l200 -204c46 -42 -24 -113 -69 -67l-196 202l-55 -57v-105c1 -29 -26 -55 -55 -55s-55 26 -55 55v602c-1 29 26 55 55 55s55 -26 55 -55v-354zM269 -183c-13 -36 -75 -44 -101 -19c-8 8 -10 22 -4 37c18 44 16 123 74 124
c47 1 110 4 79 -54z" />
    <glyph glyph-name="Lacute" unicode="&#x139;" horiz-adv-x="623" 
d="M139 913c18 62 115 42 112 -20c0 -13 -4 -25 -13 -36l-83 -101c-24 -34 -82 -7 -65 36zM70 645c-3 49 63 79 96 41c11 -11 17 -25 17 -41v-550h303c60 4 64 -95 0 -95h-354c-35 -1 -63 27 -62 62v583z" />
    <glyph glyph-name="lacute" unicode="&#x13a;" horiz-adv-x="242" 
d="M115 915c18 62 115 42 112 -20c0 -13 -4 -25 -13 -36l-83 -101c-24 -34 -82 -7 -65 36zM65 650c-1 30 26 56 56 56s56 -26 56 -56v-600c1 -30 -26 -56 -56 -56s-56 26 -56 56v600z" />
    <glyph glyph-name="Lcommaaccent" unicode="&#x13b;" horiz-adv-x="574" 
d="M70 645c-3 49 63 79 96 41c11 -11 17 -25 17 -41v-550h303c60 4 64 -95 0 -95h-354c-35 -1 -63 27 -62 62v583zM278 -183c-13 -36 -75 -44 -101 -19c-8 8 -10 22 -4 37c18 44 16 123 74 124c47 1 110 4 79 -54z" />
    <glyph glyph-name="lcommaaccent" unicode="&#x13c;" horiz-adv-x="242" 
d="M65 650c-1 30 26 56 56 56s56 -26 56 -56v-600c1 -30 -26 -56 -56 -56s-56 26 -56 56v600zM92 -183c-13 -36 -75 -44 -101 -19c-8 8 -10 22 -4 37c18 44 16 123 74 124c47 1 110 4 79 -54z" />
    <glyph glyph-name="Lcaron" unicode="&#x13d;" horiz-adv-x="623" 
d="M377 577c-13 -36 -75 -44 -101 -19c-8 8 -10 22 -4 37c18 44 16 123 74 124c47 1 110 4 79 -54zM70 645c-3 49 63 79 96 41c11 -11 17 -25 17 -41v-550h303c60 4 64 -95 0 -95h-354c-35 -1 -63 27 -62 62v583z" />
    <glyph glyph-name="lcaron" unicode="&#x13e;" horiz-adv-x="469" 
d="M344 577c-13 -36 -75 -44 -101 -19c-8 8 -10 22 -4 37c18 44 16 123 74 124c47 1 110 4 79 -54zM65 650c-1 30 26 56 56 56s56 -26 56 -56v-600c1 -30 -26 -56 -56 -56s-56 26 -56 56v600z" />
    <glyph glyph-name="Ldot" unicode="&#x13f;" horiz-adv-x="578" 
d="M70 645c-3 49 63 79 96 41c11 -11 17 -25 17 -41v-550h303c60 4 64 -95 0 -95h-354c-35 -1 -63 27 -62 62v583zM419 413c40 -40 9 -110 -45 -110c-35 0 -65 30 -65 65c0 54 70 85 110 45z" />
    <glyph glyph-name="ldot" unicode="&#x140;" horiz-adv-x="423" 
d="M65 650c-1 30 26 56 56 56s56 -26 56 -56v-600c1 -30 -26 -56 -56 -56s-56 26 -56 56v600zM256 411c40 40 110 9 110 -45c0 -34 -30 -65 -64 -65c-55 0 -86 70 -46 110z" />
    <glyph glyph-name="Lslash" unicode="&#x141;" horiz-adv-x="606" 
d="M246 492c33 39 95 -16 58 -54l-89 -94v-249h303c60 4 64 -95 0 -95h-354c-35 -1 -63 27 -62 62v163c-9 -10 -20 -21 -37 -21c-34 0 -53 43 -29 68l66 69v304c-3 49 63 79 96 41c11 -11 17 -25 17 -41v-185z" />
    <glyph glyph-name="lslash" unicode="&#x142;" horiz-adv-x="333" 
d="M234 484c32 39 95 -14 58 -54l-69 -73v-307c1 -30 -26 -56 -56 -56s-56 26 -56 56v190c-10 -11 -21 -26 -41 -26c-33 0 -53 43 -29 68l70 73v295c-1 30 26 56 56 56s56 -26 56 -56v-178z" />
    <glyph glyph-name="Nacute" unicode="&#x143;" horiz-adv-x="687" 
d="M338 915c18 62 116 41 112 -20c0 -13 -4 -25 -13 -36l-83 -101c-24 -34 -82 -7 -65 36zM507 645c-1 30 27 58 58 58c30 0 57 -29 57 -58v-599c2 -64 -74 -61 -106 -18l-336 458v-433c1 -29 -27 -58 -57 -58c-31 0 -59 28 -58 58v598c-1 62 78 63 110 19l332 -456v431z
" />
    <glyph glyph-name="nacute" unicode="&#x144;" horiz-adv-x="603" 
d="M297 735c18 62 116 41 112 -20c0 -13 -4 -25 -13 -36l-83 -101c-24 -34 -82 -7 -65 36zM170 409c11 56 86 119 166 116c131 -6 212 -85 212 -228v-247c1 -29 -26 -55 -55 -55s-56 26 -55 55v241c0 93 -39 139 -116 139c-72 0 -152 -78 -152 -131v-249
c1 -29 -26 -55 -55 -55s-56 26 -55 55v418c-1 29 26 56 55 55c53 -1 61 -54 55 -114z" />
    <glyph glyph-name="Ncommaaccent" unicode="&#x145;" horiz-adv-x="687" 
d="M507 645c-1 30 27 58 58 58c30 0 57 -29 57 -58v-599c2 -64 -74 -61 -106 -18l-336 458v-433c1 -29 -27 -58 -57 -58c-31 0 -59 28 -58 58v598c-1 62 78 63 110 19l332 -456v431zM315 -183c-13 -36 -75 -44 -101 -19c-8 8 -10 22 -4 37c18 44 16 123 74 124
c47 1 110 4 79 -54z" />
    <glyph glyph-name="ncommaaccent" unicode="&#x146;" horiz-adv-x="603" 
d="M170 409c11 56 86 119 166 116c131 -6 212 -85 212 -228v-247c1 -29 -26 -55 -55 -55s-56 26 -55 55v241c0 93 -39 139 -116 139c-72 0 -152 -78 -152 -131v-249c1 -29 -26 -55 -55 -55s-56 26 -55 55v418c-1 29 26 56 55 55c53 -1 61 -54 55 -114zM274 -183
c-13 -36 -75 -44 -101 -19c-8 8 -10 22 -4 37c18 44 16 123 74 124c47 1 110 4 79 -54z" />
    <glyph glyph-name="Ncaron" unicode="&#x147;" horiz-adv-x="687" 
d="M456 833c-25 -52 -114 -31 -182 -31c-58 0 -70 65 -95 101c-40 59 51 63 83 30l76 -80l76 80c25 39 119 31 83 -30zM507 645c-1 30 27 58 58 58c30 0 57 -29 57 -58v-599c2 -64 -74 -61 -106 -18l-336 458v-433c1 -29 -27 -58 -57 -58c-31 0 -59 28 -58 58v598
c-1 62 78 63 110 19l332 -456v431z" />
    <glyph glyph-name="ncaron" unicode="&#x148;" horiz-adv-x="603" 
d="M415 653c-25 -52 -114 -31 -182 -31c-58 0 -70 65 -95 101c-40 59 51 63 83 30l76 -80l76 80c25 39 119 31 83 -30zM170 409c11 56 86 119 166 116c131 -6 212 -85 212 -228v-247c1 -29 -26 -55 -55 -55s-56 26 -55 55v241c0 93 -39 139 -116 139
c-72 0 -152 -78 -152 -131v-249c1 -29 -26 -55 -55 -55s-56 26 -55 55v418c-1 29 26 56 55 55c53 -1 61 -54 55 -114z" />
    <glyph glyph-name="Eng" unicode="&#x14a;" horiz-adv-x="687" 
d="M507 645c-1 30 27 58 58 58c30 0 57 -29 57 -58v-600c0 -158 -98 -248 -245 -250c-59 0 -110 16 -155 46c-56 37 6 126 60 83c47 -38 143 -40 186 0c22 20 36 59 39 116l-327 446v-433c1 -29 -27 -58 -57 -58c-31 0 -59 28 -58 58v598c-1 62 78 63 110 19l332 -456v431z
" />
    <glyph glyph-name="eng" unicode="&#x14b;" horiz-adv-x="603" 
d="M170 409c11 56 86 119 166 116c131 -6 212 -85 212 -228v-352c0 -100 -47 -150 -141 -150c-41 0 -108 10 -108 62c0 32 32 61 65 52c47 -13 74 4 74 66v316c0 93 -39 139 -116 139c-72 0 -152 -78 -152 -131v-249c1 -29 -26 -55 -55 -55s-56 26 -55 55v418
c-1 29 26 56 55 55c53 -1 61 -54 55 -114z" />
    <glyph glyph-name="Omacron" unicode="&#x14c;" horiz-adv-x="796" 
d="M206 833c0 25 23 47 48 47h288c60 4 64 -95 0 -95h-288c-26 -1 -48 22 -48 48zM50 350c0 208 144 357 348 357s348 -149 348 -357s-144 -357 -348 -357s-348 149 -348 357zM398 100c127 0 230 116 230 250c0 135 -102 250 -230 250c-127 0 -230 -116 -230 -250
c0 -135 103 -250 230 -250z" />
    <glyph glyph-name="omacron" unicode="&#x14d;" horiz-adv-x="600" 
d="M156 605c-60 -4 -65 95 0 95h288c25 1 48 -22 48 -47c0 -26 -22 -49 -48 -48h-288zM40 259c0 163 106 267 260 267s260 -104 260 -267c0 -164 -106 -266 -260 -266s-260 102 -260 266zM196 134c97 -101 254 -17 254 125c0 97 -65 171 -150 171c-84 0 -153 -75 -150 -171
c2 -53 16 -94 46 -125z" />
    <glyph glyph-name="Ohungarumlaut" unicode="&#x150;" horiz-adv-x="796" 
d="M328 915c18 62 116 41 112 -20c0 -13 -4 -25 -13 -36l-83 -101c-24 -34 -82 -7 -65 36zM513 915c18 62 115 42 112 -20c0 -13 -4 -25 -13 -36l-83 -101c-24 -34 -82 -7 -65 36zM50 350c0 208 144 357 348 357s348 -149 348 -357s-144 -357 -348 -357s-348 149 -348 357z
M398 100c127 0 230 116 230 250c0 135 -102 250 -230 250c-127 0 -230 -116 -230 -250c0 -135 103 -250 230 -250z" />
    <glyph glyph-name="ohungarumlaut" unicode="&#x151;" horiz-adv-x="600" 
d="M230 735c18 62 116 41 112 -20c0 -13 -4 -25 -13 -36l-83 -101c-24 -34 -82 -7 -65 36zM415 735c18 62 115 42 112 -20c0 -13 -4 -25 -13 -36l-83 -101c-24 -34 -82 -7 -65 36zM40 259c0 163 106 267 260 267s260 -104 260 -267c0 -164 -106 -266 -260 -266
s-260 102 -260 266zM196 134c97 -101 254 -17 254 125c0 97 -65 171 -150 171c-84 0 -153 -75 -150 -171c2 -53 16 -94 46 -125z" />
    <glyph glyph-name="OE" unicode="&#x152;" horiz-adv-x="1149" 
d="M1000 352c0 -27 -24 -51 -50 -50h-199v-203h309c26 1 50 -23 50 -49c0 -27 -24 -51 -50 -50h-363c-46 0 -69 37 -62 90c-69 -65 -148 -97 -237 -97c-204 0 -348 149 -348 357s144 357 348 357c89 0 168 -32 237 -97c-7 53 16 90 62 90h353c26 1 50 -23 50 -49
c0 -27 -24 -51 -50 -50h-299v-200h199c26 1 50 -23 50 -49zM398 600c-127 0 -230 -116 -230 -250c0 -135 103 -250 230 -250s230 116 230 250c0 135 -102 250 -230 250z" />
    <glyph glyph-name="oe" unicode="&#x153;" horiz-adv-x="1005" 
d="M508 421c41 58 119 104 207 105c124 2 260 -114 252 -251c-2 -39 -22 -58 -65 -58h-333c5 -111 160 -167 250 -98c34 26 81 6 81 -37c0 -19 -8 -32 -24 -43c-45 -30 -98 -46 -160 -46c-88 0 -166 47 -208 104c-42 -57 -120 -104 -208 -104c-154 0 -260 102 -260 266
c0 163 106 267 260 267c88 0 166 -47 208 -105zM404 385c-97 101 -254 17 -254 -126c0 -96 66 -170 150 -170s153 75 150 170c-2 54 -16 95 -46 126zM857 308c-10 103 -147 161 -234 90c-28 -23 -46 -51 -53 -90h287z" />
    <glyph glyph-name="Racute" unicode="&#x154;" horiz-adv-x="625" 
d="M323 758c-24 -34 -82 -7 -65 36l49 121c18 62 116 41 112 -20c0 -13 -4 -25 -13 -36zM570 486c-1 -112 -80 -186 -179 -206l166 -197c49 -53 -39 -124 -84 -68l-209 257h-81v-221c1 -30 -26 -57 -56 -57c-31 0 -58 27 -57 57v587c-1 35 27 63 62 62h183
c140 4 255 -83 255 -214zM460 486c0 130 -145 120 -277 117v-234h127c100 0 150 39 150 117z" />
    <glyph glyph-name="racute" unicode="&#x155;" horiz-adv-x="435" 
d="M253 578c-24 -34 -82 -7 -65 36l49 121c18 62 116 41 112 -20c0 -13 -4 -25 -13 -36zM170 425c37 51 100 96 181 100c50 2 79 -56 43 -88c-14 -14 -31 -15 -57 -15c-81 0 -137 -38 -167 -114v-259c1 -30 -25 -55 -55 -55s-56 25 -55 55v419c-1 29 26 56 55 55
c46 -1 62 -44 55 -98z" />
    <glyph glyph-name="Rcommaaccent" unicode="&#x156;" horiz-adv-x="625" 
d="M570 486c-1 -112 -80 -186 -179 -206l166 -197c49 -53 -39 -124 -84 -68l-209 257h-81v-221c1 -30 -26 -57 -56 -57c-31 0 -58 27 -57 57v587c-1 35 27 63 62 62h183c140 4 255 -83 255 -214zM460 486c0 130 -145 120 -277 117v-234h127c100 0 150 39 150 117zM258 -41
c47 0 114 1 79 -54c-29 -45 -36 -124 -115 -120c-74 4 -23 92 -13 135c6 26 24 39 49 39z" />
    <glyph glyph-name="rcommaaccent" unicode="&#x157;" horiz-adv-x="435" 
d="M170 425c37 51 100 96 181 100c50 2 79 -56 43 -88c-14 -14 -31 -15 -57 -15c-81 0 -137 -38 -167 -114v-259c1 -30 -25 -55 -55 -55s-56 25 -55 55v419c-1 29 26 56 55 55c46 -1 62 -44 55 -98zM53 -41c47 0 114 1 79 -54c-29 -45 -36 -124 -115 -120
c-74 4 -23 92 -13 135c6 26 24 39 49 39z" />
    <glyph glyph-name="Rcaron" unicode="&#x158;" horiz-adv-x="625" 
d="M243 802c-58 1 -70 65 -95 101c-40 59 51 63 83 30l76 -80l76 80c25 39 123 28 83 -30c-25 -36 -37 -100 -95 -101h-128zM570 486c-1 -112 -80 -186 -179 -206l166 -197c49 -53 -39 -124 -84 -68l-209 257h-81v-221c1 -30 -26 -57 -56 -57c-31 0 -58 27 -57 57v587
c-1 35 27 63 62 62h183c140 4 255 -83 255 -214zM460 486c0 130 -145 120 -277 117v-234h127c100 0 150 39 150 117z" />
    <glyph glyph-name="rcaron" unicode="&#x159;" horiz-adv-x="435" 
d="M173 622c-58 1 -70 65 -95 101c-40 59 51 63 83 30l76 -80l76 80c25 39 123 28 83 -30c-25 -36 -37 -100 -95 -101h-128zM170 425c37 51 100 96 181 100c50 2 79 -56 43 -88c-14 -14 -31 -15 -57 -15c-81 0 -137 -38 -167 -114v-259c1 -30 -25 -55 -55 -55s-56 25 -55 55
v419c-1 29 26 56 55 55c46 -1 62 -44 55 -98z" />
    <glyph glyph-name="Sacute" unicode="&#x15a;" horiz-adv-x="570" 
d="M273 915c18 62 116 41 112 -20c0 -13 -4 -25 -13 -36l-83 -101c-24 -34 -82 -7 -65 36zM54 525c-3 110 112 182 225 182c83 0 150 -30 199 -91c25 -31 1 -79 -38 -79c-17 0 -32 6 -40 20c-44 77 -234 75 -234 -32c0 -78 80 -88 145 -113c119 -46 214 -87 214 -221
c0 -170 -219 -243 -373 -168c-40 20 -72 48 -98 84c-39 53 48 114 84 58c26 -42 79 -74 143 -75c66 0 134 34 132 101c-3 95 -96 108 -176 138c-98 35 -180 78 -183 196z" />
    <glyph glyph-name="sacute" unicode="&#x15b;" horiz-adv-x="479" 
d="M232 735c18 62 116 41 112 -20c0 -13 -4 -25 -13 -36l-83 -101c-24 -34 -82 -7 -65 36zM48 379c-6 153 259 192 349 85c44 -53 -36 -124 -78 -67c-35 48 -152 49 -158 -19c-4 -55 82 -62 127 -77c86 -27 150 -53 151 -155c1 -165 -289 -197 -381 -81c-29 37 -17 93 32 92
c17 0 31 -7 41 -20c26 -33 62 -50 107 -50c42 0 85 22 87 59c4 57 -84 70 -133 84c-85 26 -140 54 -144 149z" />
    <glyph glyph-name="Scedilla" unicode="&#x15e;" horiz-adv-x="570" 
d="M400 557c-44 77 -234 75 -234 -32c0 -78 80 -88 145 -113c119 -46 208 -87 214 -221c5 -110 -102 -179 -198 -194l-45 -48c46 -6 89 -42 89 -93c-2 -74 -82 -94 -164 -94c-36 0 -23 39 5 39c64 0 92 49 57 87c-20 22 -55 -18 -69 16c-18 42 22 63 32 93
c-75 12 -134 49 -178 110c-39 54 48 114 84 58c26 -42 79 -74 143 -75c66 0 134 34 132 101c-3 95 -96 108 -176 138c-98 35 -180 78 -183 196c-3 110 112 182 225 182c83 0 150 -30 199 -91c25 -31 1 -79 -38 -79c-17 0 -32 6 -40 20z" />
    <glyph glyph-name="scedilla" unicode="&#x15f;" horiz-adv-x="479" 
d="M397 464c44 -53 -36 -124 -78 -67c-35 48 -152 49 -158 -19c-4 -55 82 -62 127 -77c86 -27 151 -53 151 -155c0 -82 -77 -132 -149 -147l-47 -50c46 -6 89 -42 89 -93c-2 -74 -82 -94 -164 -94c-36 0 -23 39 5 39c64 0 92 49 57 87c-20 22 -55 -18 -69 16
c-18 42 21 63 31 92c-60 9 -102 35 -134 69s-17 93 32 92c17 0 31 -7 41 -20c26 -33 62 -50 107 -50c42 0 85 22 87 59c4 57 -84 70 -133 84c-85 26 -140 54 -144 149c-6 153 259 192 349 85z" />
    <glyph glyph-name="Scaron" unicode="&#x160;" horiz-adv-x="570" 
d="M391 833c-25 -52 -114 -31 -182 -31c-58 0 -70 65 -95 101c-40 59 51 63 83 30l76 -80l76 80c25 39 119 31 83 -30zM54 525c-3 110 112 182 225 182c83 0 150 -30 199 -91c25 -31 1 -79 -38 -79c-17 0 -32 6 -40 20c-44 77 -234 75 -234 -32c0 -78 80 -88 145 -113
c119 -46 214 -87 214 -221c0 -170 -219 -243 -373 -168c-40 20 -72 48 -98 84c-39 53 48 114 84 58c26 -42 79 -74 143 -75c66 0 134 34 132 101c-3 95 -96 108 -176 138c-98 35 -180 78 -183 196z" />
    <glyph glyph-name="scaron" unicode="&#x161;" horiz-adv-x="479" 
d="M350 653c-25 -52 -114 -31 -182 -31c-58 0 -70 65 -95 101c-40 59 51 63 83 30l76 -80l76 80c25 39 119 31 83 -30zM48 379c-6 153 259 192 349 85c44 -53 -36 -124 -78 -67c-35 48 -152 49 -158 -19c-4 -55 82 -62 127 -77c86 -27 150 -53 151 -155
c1 -165 -289 -197 -381 -81c-29 37 -17 93 32 92c17 0 31 -7 41 -20c26 -33 62 -50 107 -50c42 0 85 22 87 59c4 57 -84 70 -133 84c-85 26 -140 54 -144 149z" />
    <glyph glyph-name="uni0162" unicode="&#x162;" horiz-adv-x="630" 
d="M45 650c0 27 24 51 50 50h440c26 1 50 -23 50 -50s-24 -51 -50 -50h-160v-546c1 -39 -36 -89 -57 -106c46 -6 89 -42 89 -93c-2 -74 -82 -94 -164 -94c-36 0 -23 39 5 39c64 0 92 49 57 87c-20 22 -55 -18 -69 16c-5 11 -7 23 -2 37c15 47 22 85 22 114v546h-161
c-26 -1 -50 23 -50 50z" />
    <glyph glyph-name="uni0163" unicode="&#x163;" horiz-adv-x="365" 
d="M248 87c40 8 84 2 84 -41c0 -27 -18 -44 -55 -51l-44 -46c46 -6 89 -42 89 -93c-2 -74 -82 -94 -164 -94c-36 0 -23 39 5 39c64 0 92 49 57 87c-20 22 -55 -18 -69 16c-18 42 22 63 32 93c-52 14 -78 59 -78 135v293c-44 -6 -76 11 -76 48c0 35 33 54 76 47
c-8 54 10 96 55 96s63 -42 55 -96c55 2 115 6 115 -47c1 -53 -59 -51 -115 -48v-295c0 -29 11 -43 33 -43z" />
    <glyph glyph-name="Tcaron" unicode="&#x164;" horiz-adv-x="630" 
d="M427 833c-25 -52 -114 -31 -182 -31c-58 0 -70 65 -95 101c-40 59 51 63 83 30l76 -80l76 80c25 39 119 31 83 -30zM45 650c0 27 24 51 50 50h440c26 1 50 -23 50 -50s-24 -51 -50 -50h-160v-546c1 -31 -28 -60 -59 -60c-32 0 -61 29 -60 60v546h-161
c-26 -1 -50 23 -50 50z" />
    <glyph glyph-name="tcaron" unicode="&#x165;" horiz-adv-x="438" 
d="M293 722c18 62 116 41 112 -20c0 -13 -4 -25 -13 -36l-83 -101c-24 -34 -82 -7 -65 36zM248 87c40 8 84 2 84 -41c0 -36 -34 -54 -102 -54c-87 0 -125 42 -125 140v293c-44 -6 -76 11 -76 48c0 35 33 54 76 47c-8 54 10 96 55 96s63 -42 55 -96c55 2 115 6 115 -47
c1 -53 -59 -51 -115 -48v-295c0 -29 11 -43 33 -43z" />
    <glyph glyph-name="Tbar" unicode="&#x166;" horiz-adv-x="648" 
d="M45 650c0 27 24 51 50 50h440c26 1 50 -23 50 -50s-24 -51 -50 -50h-160v-80c62 -3 147 17 147 -47c1 -65 -84 -46 -147 -48v-371c1 -31 -28 -60 -59 -60c-32 0 -61 29 -60 60v371c-57 -2 -119 -7 -118 48c0 53 62 49 118 47v80h-161c-26 -1 -50 23 -50 50z" />
    <glyph glyph-name="tbar" unicode="&#x167;" horiz-adv-x="365" 
d="M248 87c40 8 84 2 84 -41c0 -36 -34 -54 -102 -54c-87 0 -125 42 -125 140v127h-70v95h70v71c-44 -6 -76 11 -76 48c0 35 33 54 76 47c-8 54 10 96 55 96s63 -42 55 -96c55 2 115 6 115 -47c1 -53 -59 -51 -115 -48v-71h108v-95h-108v-129c0 -29 11 -43 33 -43z" />
    <glyph glyph-name="Umacron" unicode="&#x16a;" horiz-adv-x="686" 
d="M151 833c0 25 23 47 48 47h288c60 4 64 -95 0 -95h-288c-26 -1 -48 22 -48 48zM511 648c-1 28 27 55 55 55s55 -27 55 -55v-393c5 -154 -127 -262 -278 -262c-152 0 -278 108 -278 262v393c-1 28 27 55 55 55s55 -27 55 -55v-392c-3 -106 68 -168 168 -168
s168 62 168 168v392z" />
    <glyph glyph-name="umacron" unicode="&#x16b;" horiz-adv-x="597" 
d="M152 605c-60 -4 -65 95 0 95h288c25 1 48 -22 48 -47c0 -26 -22 -49 -48 -48h-288zM268 89c76 -4 159 84 159 145v234c-1 28 27 55 55 55s55 -27 55 -55v-418c1 -28 -27 -56 -55 -55c-55 1 -61 59 -55 121c-15 -55 -90 -125 -170 -122c-127 5 -202 84 -202 224v250
c-1 28 27 55 55 55s55 -27 55 -55v-244c-2 -81 32 -131 103 -135z" />
    <glyph glyph-name="Ubreve" unicode="&#x16c;" horiz-adv-x="686" 
d="M425 925c16 53 100 23 84 -28c-22 -70 -78 -129 -167 -129c-84 0 -142 62 -164 128c-18 54 67 81 82 30c23 -75 143 -76 165 -1zM511 648c-1 28 27 55 55 55s55 -27 55 -55v-393c5 -154 -127 -262 -278 -262c-152 0 -278 108 -278 262v393c-1 28 27 55 55 55
s55 -27 55 -55v-392c-3 -106 68 -168 168 -168s168 62 168 168v392z" />
    <glyph glyph-name="ubreve" unicode="&#x16d;" horiz-adv-x="597" 
d="M378 745c15 53 100 23 84 -28c-22 -69 -78 -129 -167 -129c-84 0 -142 62 -164 128c-18 54 67 81 82 30c23 -75 143 -76 165 -1zM268 89c76 -4 159 84 159 145v234c-1 28 27 55 55 55s55 -27 55 -55v-418c1 -28 -27 -56 -55 -55c-55 1 -61 59 -55 121
c-15 -55 -90 -125 -170 -122c-127 5 -202 84 -202 224v250c-1 28 27 55 55 55s55 -27 55 -55v-244c-2 -81 32 -131 103 -135z" />
    <glyph glyph-name="Uring" unicode="&#x16e;" horiz-adv-x="686" 
d="M271 808c-63 63 -14 172 73 172c53 0 100 -48 100 -101c0 -85 -110 -133 -173 -71zM342 849c42 -2 41 65 0 63c-40 2 -41 -65 0 -63zM511 648c-1 28 27 55 55 55s55 -27 55 -55v-393c5 -154 -127 -262 -278 -262c-152 0 -278 108 -278 262v393c-1 28 27 55 55 55
s55 -27 55 -55v-392c-3 -106 68 -168 168 -168s168 62 168 168v392z" />
    <glyph glyph-name="uring" unicode="&#x16f;" horiz-adv-x="597" 
d="M194 699c0 55 48 101 103 101c84 0 133 -110 71 -172s-174 -14 -174 71zM295 669c42 -2 41 65 0 63c-40 2 -41 -65 0 -63zM268 89c76 -4 159 84 159 145v234c-1 28 27 55 55 55s55 -27 55 -55v-418c1 -28 -27 -56 -55 -55c-55 1 -61 59 -55 121
c-15 -55 -90 -125 -170 -122c-127 5 -202 84 -202 224v250c-1 28 27 55 55 55s55 -27 55 -55v-244c-2 -81 32 -131 103 -135z" />
    <glyph glyph-name="Uhungarumlaut" unicode="&#x170;" horiz-adv-x="686" 
d="M273 915c18 62 116 41 112 -20c0 -13 -4 -25 -13 -36l-83 -101c-24 -34 -82 -7 -65 36zM458 915c18 62 115 42 112 -20c0 -13 -4 -25 -13 -36l-83 -101c-24 -34 -82 -7 -65 36zM511 648c-1 28 27 55 55 55s55 -27 55 -55v-393c5 -154 -127 -262 -278 -262
c-152 0 -278 108 -278 262v393c-1 28 27 55 55 55s55 -27 55 -55v-392c-3 -106 68 -168 168 -168s168 62 168 168v392z" />
    <glyph glyph-name="uhungarumlaut" unicode="&#x171;" horiz-adv-x="597" 
d="M226 735c18 62 116 41 112 -20c0 -13 -4 -25 -13 -36l-83 -101c-24 -34 -82 -7 -65 36zM411 735c18 62 115 42 112 -20c0 -13 -4 -25 -13 -36l-83 -101c-24 -34 -82 -7 -65 36zM268 89c76 -4 159 84 159 145v234c-1 28 27 55 55 55s55 -27 55 -55v-418
c1 -28 -27 -56 -55 -55c-55 1 -61 59 -55 121c-15 -55 -90 -125 -170 -122c-127 5 -202 84 -202 224v250c-1 28 27 55 55 55s55 -27 55 -55v-244c-2 -81 32 -131 103 -135z" />
    <glyph glyph-name="Uogonek" unicode="&#x172;" horiz-adv-x="686" 
d="M511 648c-1 28 27 55 55 55s55 -27 55 -55v-393c2 -137 -98 -226 -212 -255c-51 -13 -82 -38 -102 -51c-47 -30 -30 -110 28 -103c36 4 57 -48 20 -54c-88 -14 -180 15 -180 96c0 66 56 95 116 109c-124 18 -226 116 -226 258v393c-1 28 27 55 55 55s55 -27 55 -55v-392
c-3 -106 68 -168 168 -168s168 62 168 168v392z" />
    <glyph glyph-name="uogonek" unicode="&#x173;" horiz-adv-x="597" 
d="M482 523c28 0 55 -27 55 -55v-418c-8 -76 -132 -82 -132 -158c0 -31 19 -46 56 -46c36 8 57 -48 20 -54c-84 -13 -180 2 -180 83c0 75 65 107 107 142c29 24 16 56 19 99c-15 -55 -90 -125 -170 -122c-127 5 -202 84 -202 224v250c-1 28 27 55 55 55s55 -27 55 -55v-244
c-2 -81 32 -131 103 -135c76 -4 159 84 159 145v234c-1 28 27 55 55 55z" />
    <glyph glyph-name="Wcircumflex" unicode="&#x174;" horiz-adv-x="1147" 
d="M507 947c68 0 153 19 182 -31l41 -70c38 -61 -51 -63 -83 -30l-76 80l-76 -80c-25 -39 -123 -28 -83 30c25 36 37 101 95 101zM61 627c-34 63 75 117 100 46l176 -495l185 495c10 44 85 43 101 0l187 -495l176 495c5 17 28 33 50 33c37 1 66 -39 50 -79l-230 -590
c-19 -56 -71 -55 -93 0l-190 468l-190 -468c-19 -56 -72 -55 -93 0z" />
    <glyph glyph-name="wcircumflex" unicode="&#x175;" horiz-adv-x="870" 
d="M369 767c68 0 153 19 182 -31l41 -70c38 -61 -51 -63 -83 -30l-76 80l-76 -80c-25 -39 -123 -28 -83 30c25 36 37 101 95 101zM42 446c-37 61 68 113 91 47l114 -333l139 329c14 45 80 44 98 0l139 -329l114 333c4 16 26 30 46 30c38 -1 60 -35 45 -77l-149 -406
c-19 -57 -76 -54 -100 0l-144 317l-144 -317c-21 -55 -79 -56 -100 0z" />
    <glyph glyph-name="Ycircumflex" unicode="&#x176;" horiz-adv-x="634" 
d="M251 947c68 0 153 19 182 -31l41 -70c38 -61 -51 -63 -83 -30l-76 80l-76 -80c-25 -39 -123 -28 -83 30c25 36 37 101 95 101zM44 622c-39 54 45 113 85 59l188 -257l188 257c35 55 125 -3 85 -59l-218 -299v-274c1 -30 -25 -55 -55 -55s-56 25 -55 55v274z" />
    <glyph glyph-name="ycircumflex" unicode="&#x177;" horiz-adv-x="577" 
d="M227 767c68 0 153 19 182 -31l41 -70c38 -61 -51 -63 -83 -30l-76 80l-76 -80c-25 -39 -123 -28 -83 30c25 36 37 101 95 101zM39 456c-27 59 65 100 92 40l162 -352l152 350c19 62 119 24 93 -38l-262 -621c-20 -61 -117 -24 -92 38l57 142z" />
    <glyph glyph-name="Ydieresis" unicode="&#x178;" horiz-adv-x="634" 
d="M253 831c0 -32 -28 -60 -60 -60c-51 0 -80 64 -43 101s103 9 103 -41zM441 890c51 0 80 -65 43 -102s-103 -8 -103 43c0 31 28 59 60 59zM44 622c-39 54 45 113 85 59l188 -257l188 257c35 55 125 -3 85 -59l-218 -299v-274c1 -30 -25 -55 -55 -55s-56 25 -55 55v274z
" />
    <glyph glyph-name="Zacute" unicode="&#x179;" horiz-adv-x="642" 
d="M322 915c18 62 116 41 112 -20c0 -13 -4 -25 -13 -36l-83 -101c-24 -34 -82 -7 -65 36zM50 653c0 25 23 47 48 47h402c60 6 109 -65 65 -120l-387 -485h366c60 4 64 -95 0 -95h-405c-60 -6 -109 65 -65 120l387 485h-363c-26 -1 -48 22 -48 48z" />
    <glyph glyph-name="zacute" unicode="&#x17a;" horiz-adv-x="501" 
d="M240 735c18 62 116 41 112 -20c0 -13 -4 -25 -13 -36l-83 -101c-24 -34 -82 -7 -65 36zM40 473c0 25 23 47 48 47h290c66 5 109 -70 59 -125l-273 -300h249c25 1 48 -22 48 -47c0 -26 -22 -49 -48 -48h-291c-67 -4 -106 71 -56 126l272 299h-250c-26 -1 -48 22 -48 48z
" />
    <glyph glyph-name="Zdotaccent" unicode="&#x17b;" horiz-adv-x="642" 
d="M385 881c0 -30 -27 -57 -57 -57c-47 0 -76 61 -40 97s97 7 97 -40zM50 653c0 25 23 47 48 47h402c60 6 109 -65 65 -120l-387 -485h366c60 4 64 -95 0 -95h-405c-60 -6 -109 65 -65 120l387 485h-363c-26 -1 -48 22 -48 48z" />
    <glyph glyph-name="zdotaccent" unicode="&#x17c;" horiz-adv-x="501" 
d="M286 741c36 -36 7 -97 -40 -97c-30 0 -57 27 -57 57c0 47 61 76 97 40zM40 473c0 25 23 47 48 47h290c66 5 109 -70 59 -125l-273 -300h249c25 1 48 -22 48 -47c0 -26 -22 -49 -48 -48h-291c-67 -4 -106 71 -56 126l272 299h-250c-26 -1 -48 22 -48 48z" />
    <glyph glyph-name="Zcaron" unicode="&#x17d;" horiz-adv-x="642" 
d="M440 833c-25 -52 -114 -31 -182 -31c-58 0 -70 65 -95 101c-40 59 51 63 83 30l76 -80l76 80c25 39 119 31 83 -30zM50 653c0 25 23 47 48 47h402c60 6 109 -65 65 -120l-387 -485h366c60 4 64 -95 0 -95h-405c-60 -6 -109 65 -65 120l387 485h-363c-26 -1 -48 22 -48 48
z" />
    <glyph glyph-name="zcaron" unicode="&#x17e;" horiz-adv-x="501" 
d="M358 653c-25 -52 -114 -31 -182 -31c-58 0 -70 65 -95 101c-40 59 51 63 83 30l76 -80l76 80c25 39 119 31 83 -30zM40 473c0 25 23 47 48 47h290c66 5 109 -70 59 -125l-273 -300h249c25 1 48 -22 48 -47c0 -26 -22 -49 -48 -48h-291c-67 -4 -106 71 -56 126l272 299
h-250c-26 -1 -48 22 -48 48z" />
    <glyph glyph-name="florin" unicode="&#x192;" horiz-adv-x="302" 
d="M95 425c-55 -13 -91 43 -56 81c14 15 31 15 56 14c-1 101 44 158 135 176c57 11 80 -80 20 -95c-37 -10 -43 -35 -45 -81c45 6 81 -9 81 -47c0 -39 -35 -54 -81 -48v-440c0 -98 -45 -153 -135 -171c-57 -11 -79 79 -20 95c41 11 45 41 45 96v420z" />
    <glyph glyph-name="uni01CD" unicode="&#x1cd;" horiz-adv-x="716" 
d="M470 833c-25 -52 -114 -31 -182 -31c-58 0 -70 65 -95 101c-40 59 51 63 83 30l76 -80l76 80c25 39 119 31 83 -30zM150 27c-23 -66 -130 -23 -100 45l263 592c22 52 68 52 90 0l263 -592c32 -65 -71 -111 -100 -45l-75 169h-266zM358 514l-97 -222h194z" />
    <glyph glyph-name="uni01CE" unicode="&#x1ce;" horiz-adv-x="612" 
d="M435 653c-25 -52 -114 -31 -182 -31c-58 0 -70 65 -95 101c-40 59 51 63 83 30l76 -80l76 80c25 39 119 31 83 -30zM40 260c0 160 94 266 245 266c73 0 125 -24 157 -73c-20 85 110 98 110 18v-422c1 -30 -25 -56 -55 -55c-43 1 -62 39 -55 90c-6 -50 -92 -96 -157 -91
c-151 12 -245 106 -245 267zM299 431c-84 0 -149 -77 -149 -171s65 -172 149 -172c90 0 148 70 148 172c0 103 -58 171 -148 171z" />
    <glyph glyph-name="uni01CF" unicode="&#x1cf;" horiz-adv-x="245" 
d="M235 833c-25 -52 -114 -31 -182 -31c-58 0 -70 65 -95 101c-40 59 51 63 83 30l76 -80l76 80c25 39 119 31 83 -30zM65 645c-1 30 27 58 58 58c30 0 57 -29 57 -58v-593c1 -29 -27 -58 -57 -58c-31 0 -59 28 -58 58v593z" />
    <glyph glyph-name="uni01D0" unicode="&#x1d0;" horiz-adv-x="260" 
d="M242 653c-25 -52 -114 -31 -182 -31c-58 0 -70 65 -95 101c-40 59 51 63 83 30l76 -80l76 80c25 39 119 31 83 -30zM75 468c-1 28 27 55 55 55s55 -27 55 -55v-418c1 -28 -27 -55 -55 -55s-55 27 -55 55v418z" />
    <glyph glyph-name="uni01D1" unicode="&#x1d1;" horiz-adv-x="796" 
d="M510 833c-25 -52 -114 -31 -182 -31c-58 0 -70 65 -95 101c-40 59 51 63 83 30l76 -80l76 80c25 39 119 31 83 -30zM50 350c0 208 144 357 348 357s348 -149 348 -357s-144 -357 -348 -357s-348 149 -348 357zM398 100c127 0 230 116 230 250c0 135 -102 250 -230 250
c-127 0 -230 -116 -230 -250c0 -135 103 -250 230 -250z" />
    <glyph glyph-name="uni01D2" unicode="&#x1d2;" horiz-adv-x="600" 
d="M412 653c-25 -52 -114 -31 -182 -31c-58 0 -70 65 -95 101c-40 59 51 63 83 30l76 -80l76 80c25 39 119 31 83 -30zM40 259c0 163 106 267 260 267s260 -104 260 -267c0 -164 -106 -266 -260 -266s-260 102 -260 266zM196 134c97 -101 254 -17 254 125
c0 97 -65 171 -150 171c-84 0 -153 -75 -150 -171c2 -53 16 -94 46 -125z" />
    <glyph glyph-name="uni01D3" unicode="&#x1d3;" horiz-adv-x="686" 
d="M455 833c-25 -52 -114 -31 -182 -31c-58 0 -70 65 -95 101c-40 59 51 63 83 30l76 -80l76 80c25 39 119 31 83 -30zM511 648c-1 28 27 55 55 55s55 -27 55 -55v-393c5 -154 -127 -262 -278 -262c-152 0 -278 108 -278 262v393c-1 28 27 55 55 55s55 -27 55 -55v-392
c-3 -106 68 -168 168 -168s168 62 168 168v392z" />
    <glyph glyph-name="uni01D4" unicode="&#x1d4;" horiz-adv-x="597" 
d="M408 653c-25 -52 -114 -31 -182 -31c-58 0 -70 65 -95 101c-40 59 51 63 83 30l76 -80l76 80c25 39 119 31 83 -30zM268 89c76 -4 159 84 159 145v234c-1 28 27 55 55 55s55 -27 55 -55v-418c1 -28 -27 -56 -55 -55c-55 1 -61 59 -55 121c-15 -55 -90 -125 -170 -122
c-127 5 -202 84 -202 224v250c-1 28 27 55 55 55s55 -27 55 -55v-244c-2 -81 32 -131 103 -135z" />
    <glyph glyph-name="uni01EA" unicode="&#x1ea;" horiz-adv-x="794" 
d="M398 707c204 0 341 -149 348 -357c6 -179 -136 -315 -283 -350c-51 -12 -82 -38 -102 -51c-47 -30 -30 -110 28 -103c36 4 57 -48 20 -54c-88 -14 -180 15 -180 96c0 65 57 97 117 109c-155 22 -302 172 -296 353c7 208 144 357 348 357zM398 600
c-127 0 -230 -116 -230 -250c0 -135 103 -250 230 -250s230 116 230 250c0 135 -102 250 -230 250z" />
    <glyph glyph-name="uni01EB" unicode="&#x1eb;" horiz-adv-x="600" 
d="M247 -1c-109 25 -212 121 -207 260c6 163 106 267 260 267s254 -104 260 -267c5 -139 -97 -229 -205 -259c-51 -14 -82 -38 -102 -51c-47 -30 -30 -110 28 -103c36 4 57 -48 20 -54c-88 -14 -180 15 -180 96c0 67 62 100 126 111zM404 385c-97 101 -254 17 -254 -126
c0 -96 66 -170 150 -170s153 75 150 170c-2 54 -16 95 -46 126z" />
    <glyph glyph-name="Scommaaccent" unicode="&#x218;" horiz-adv-x="570" 
d="M54 525c-3 110 112 182 225 182c83 0 150 -30 199 -91c25 -31 1 -79 -38 -79c-17 0 -32 6 -40 20c-44 77 -234 75 -234 -32c0 -78 80 -88 145 -113c119 -46 214 -87 214 -221c0 -170 -219 -243 -373 -168c-40 20 -72 48 -98 84c-39 53 48 114 84 58
c26 -42 79 -74 143 -75c66 0 134 34 132 101c-3 95 -96 108 -176 138c-98 35 -180 78 -183 196zM250 -183c-13 -36 -75 -44 -101 -19c-8 8 -10 22 -4 37c18 44 16 123 74 124c47 1 110 4 79 -54z" />
    <glyph glyph-name="scommaaccent" unicode="&#x219;" horiz-adv-x="479" 
d="M48 379c-6 153 259 192 349 85c44 -53 -36 -124 -78 -67c-35 48 -152 49 -158 -19c-4 -55 82 -62 127 -77c86 -27 150 -53 151 -155c1 -165 -289 -197 -381 -81c-29 37 -17 93 32 92c17 0 31 -7 41 -20c26 -33 62 -50 107 -50c42 0 85 22 87 59c4 57 -84 70 -133 84
c-85 26 -140 54 -144 149zM211 -183c-13 -36 -75 -44 -101 -19c-8 8 -10 22 -4 37c18 44 16 123 74 124c47 1 110 4 79 -54z" />
    <glyph glyph-name="uni021A" unicode="&#x21a;" horiz-adv-x="630" 
d="M45 650c0 27 24 51 50 50h440c26 1 50 -23 50 -50s-24 -51 -50 -50h-160v-546c1 -31 -28 -60 -59 -60c-32 0 -61 29 -60 60v546h-161c-26 -1 -50 23 -50 50zM286 -184c-13 -36 -75 -43 -101 -18c-8 8 -10 21 -4 36c18 44 16 123 74 124c47 1 111 4 79 -54z" />
    <glyph glyph-name="uni021B" unicode="&#x21b;" horiz-adv-x="365" 
d="M248 87c40 8 84 2 84 -41c0 -36 -34 -54 -102 -54c-87 0 -125 42 -125 140v293c-44 -6 -76 11 -76 48c0 35 33 54 76 47c-8 54 10 96 55 96s63 -42 55 -96c55 2 115 6 115 -47c1 -53 -59 -51 -115 -48v-295c0 -29 11 -43 33 -43zM170 -41c47 0 114 1 79 -54
c-29 -45 -36 -124 -115 -120c-74 4 -23 92 -13 135c6 26 24 39 49 39z" />
    <glyph glyph-name="uni0237" unicode="&#x237;" horiz-adv-x="259" 
d="M179 520v-575c10 -145 -129 -181 -243 -125v108c45 -15 74 -23 89 -23c29 0 44 23 44 70v545h110z" />
    <glyph glyph-name="circumflex" unicode="&#x2c6;" horiz-adv-x="334" 
d="M103 767c68 0 153 19 182 -31l41 -70c38 -61 -51 -63 -83 -30l-76 80l-76 -80c-25 -39 -123 -28 -83 30c25 36 37 101 95 101z" />
    <glyph glyph-name="caron" unicode="&#x2c7;" horiz-adv-x="335" 
d="M286 653c-25 -52 -114 -31 -182 -31c-58 0 -70 65 -95 101c-40 59 51 63 83 30l76 -80l76 80c25 39 119 31 83 -30z" />
    <glyph glyph-name="breve" unicode="&#x2d8;" horiz-adv-x="349" 
d="M257 745c16 53 100 23 84 -28c-22 -70 -78 -129 -167 -129c-84 0 -142 62 -164 128c-18 54 67 81 82 30c23 -75 143 -76 165 -1z" />
    <glyph glyph-name="dotaccent" unicode="&#x2d9;" horiz-adv-x="124" 
d="M102 741c36 -36 7 -97 -40 -97c-30 0 -57 27 -57 57c0 47 61 76 97 40z" />
    <glyph glyph-name="ring" unicode="&#x2da;" horiz-adv-x="203" 
d="M30 628c-63 62 -14 172 73 172c53 0 100 -48 100 -101c0 -85 -111 -133 -173 -71zM70 700c-2 -41 65 -40 63 0c2 41 -65 42 -63 0z" />
    <glyph glyph-name="ogonek" unicode="&#x2db;" horiz-adv-x="235" 
d="M0 -112c0 101 116 121 235 112c-50 -19 -83 -38 -103 -51c-47 -30 -30 -110 28 -103c36 4 57 -48 20 -54c-88 -14 -180 15 -180 96z" />
    <glyph glyph-name="tilde" unicode="&#x2dc;" horiz-adv-x="399" 
d="M280 583c-42 -10 -142 79 -177 75c-46 9 -45 -70 -92 -32c-16 60 46 112 111 112c41 10 139 -70 172 -67c46 -8 52 60 94 24c18 -60 -44 -112 -108 -112z" />
    <glyph glyph-name="hungarumlaut" unicode="&#x2dd;" horiz-adv-x="394" 
d="M57 735c18 62 115 42 112 -20c0 -13 -4 -25 -13 -36l-83 -101c-24 -34 -82 -7 -65 36zM242 735c18 62 116 41 112 -20c0 -13 -4 -25 -13 -36l-83 -101c-24 -34 -82 -7 -65 36z" />
    <glyph glyph-name="uni0326" unicode="&#x326;" horiz-adv-x="0" 
d="M-115 -183c-13 -36 -75 -44 -101 -19c-8 8 -10 22 -4 37c18 44 16 123 74 124c47 1 110 4 79 -54z" />
    <glyph glyph-name="Delta" unicode="&#x394;" horiz-adv-x="733" 
d="M380 700l303 -700h-633l303 700h27zM367 520l-177 -425h353z" />
    <glyph glyph-name="Omega" unicode="&#x3a9;" horiz-adv-x="794" 
d="M397 707c201 0 347 -147 347 -351c0 -96 -38 -180 -115 -251c51 4 90 -3 90 -52c0 -35 -18 -53 -54 -53h-166v136c72 48 133 128 133 220c0 136 -107 243 -235 243c-129 0 -234 -107 -234 -243c0 -93 60 -173 132 -220v-136h-166c-36 0 -54 18 -54 53c0 49 39 56 90 52
c-77 71 -118 155 -115 251c6 204 146 351 347 351z" />
    <glyph glyph-name="mu" unicode="&#x3bc;" horiz-adv-x="597" 
d="M427 468c-1 28 27 55 55 55s55 -27 55 -55v-418c1 -28 -27 -56 -55 -55c-55 1 -61 59 -55 121c-15 -55 -90 -122 -170 -122c-33 0 -64 6 -92 18v-153c1 -29 -26 -55 -55 -55s-55 26 -55 55v609c-1 28 27 55 55 55s55 -27 55 -55v-244c-2 -81 32 -131 103 -135
c76 -4 159 84 159 145v234z" />
    <glyph glyph-name="pi" unicode="&#x3c0;" horiz-adv-x="710" 
d="M606 520c60 4 64 -97 0 -95h-57v-281c1 -40 6 -54 42 -55c36 11 74 -8 74 -43c0 -49 -63 -52 -104 -52c-63 0 -122 32 -122 100v331h-178v-376c1 -29 -26 -55 -55 -55s-55 26 -55 55v376c-54 -4 -106 -2 -106 48c-1 25 23 47 48 47h513z" />
    <glyph glyph-name="uni0401" unicode="&#x401;" horiz-adv-x="590" 
d="M241 831c0 -32 -28 -60 -60 -60s-60 28 -60 60c0 31 28 59 60 59s60 -28 60 -59zM429 890c51 0 80 -65 43 -102s-103 -8 -103 43c0 31 28 59 60 59zM430 352c0 -27 -24 -51 -50 -50h-199v-203h309c26 1 50 -23 50 -49c0 -27 -24 -51 -50 -50h-363c-35 -1 -63 27 -62 62
v576c-1 35 27 63 62 62h353c26 1 50 -23 50 -49c0 -27 -24 -51 -50 -50h-299v-200h199c26 1 50 -23 50 -49z" />
    <glyph glyph-name="uni0404" unicode="&#x404;" horiz-adv-x="648" 
d="M167 303c16 -144 200 -267 341 -165c58 42 122 -51 61 -92c-231 -153 -535 48 -524 303c9 207 143 358 347 358c62 0 120 -19 177 -53c60 -36 -1 -135 -60 -92c-146 105 -329 -28 -342 -164c64 -4 156 20 157 -47c0 -68 -92 -44 -157 -48z" />
    <glyph glyph-name="uni0407" unicode="&#x407;" horiz-adv-x="245" 
d="M59 831c0 -32 -28 -60 -60 -60s-60 28 -60 60c0 31 28 59 60 59s60 -28 60 -59zM187 831c0 79 120 74 120 0c0 -32 -28 -60 -60 -60s-60 28 -60 60zM65 645c-1 30 27 58 58 58c30 0 57 -29 57 -58v-593c1 -29 -27 -58 -57 -58c-31 0 -59 28 -58 58v593z" />
    <glyph glyph-name="uni0410" unicode="&#x410;" horiz-adv-x="716" 
d="M150 27c-23 -66 -130 -23 -100 45l263 592c22 52 68 52 90 0l263 -592c32 -65 -71 -111 -100 -45l-75 169h-266zM358 514l-97 -222h194z" />
    <glyph glyph-name="uni0411" unicode="&#x411;" horiz-adv-x="615" 
d="M502 653c0 -26 -22 -49 -48 -48h-271v-177h132c142 4 255 -80 255 -214c0 -131 -115 -214 -255 -214h-183c-35 -1 -63 27 -62 62v591c-1 25 23 47 48 47h336c25 1 48 -22 48 -47zM183 97c132 -3 277 -13 277 117c0 78 -50 117 -150 117h-127v-234z" />
    <glyph glyph-name="uni0412" unicode="&#x412;" horiz-adv-x="616" 
d="M305 700c125 1 221 -60 220 -182c0 -63 -29 -106 -88 -131c89 -35 134 -95 134 -181c0 -141 -106 -206 -258 -206h-181c-35 -1 -63 27 -62 62v576c-1 35 27 63 62 62h173zM415 518c0 102 -128 87 -233 86v-180h123c66 -1 110 32 110 94zM461 206c-2 80 -59 122 -148 122
h-131v-232c129 -2 282 -16 279 110z" />
    <glyph glyph-name="uni0413" unicode="&#x413;" horiz-adv-x="572" 
d="M70 638c-1 35 27 63 62 62h347c60 4 64 -95 0 -95h-299v-555c1 -29 -26 -55 -55 -55s-56 26 -55 55v588z" />
    <glyph glyph-name="uni0414" unicode="&#x414;" horiz-adv-x="889" 
d="M667 700c35 1 63 -27 62 -62v-543c66 5 125 -1 125 -62c0 -69 -5 -128 -65 -128c-45 0 -73 40 -65 95h-559c8 -55 -19 -94 -65 -95c-34 -1 -65 31 -65 65c0 66 1 126 62 125h45c49 152 39 329 39 543c0 35 27 63 62 62h424zM291 605c-1 -207 8 -364 -41 -510h369v510
h-328z" />
    <glyph glyph-name="uni0415" unicode="&#x415;" horiz-adv-x="590" 
d="M430 352c0 -27 -24 -51 -50 -50h-199v-203h309c26 1 50 -23 50 -49c0 -27 -24 -51 -50 -50h-363c-35 -1 -63 27 -62 62v576c-1 35 27 63 62 62h353c26 1 50 -23 50 -49c0 -27 -24 -51 -50 -50h-299v-200h199c26 1 50 -23 50 -49z" />
    <glyph glyph-name="uni0416" unicode="&#x416;" horiz-adv-x="1231" 
d="M1018 687c39 53 124 -12 79 -65l-226 -267l250 -277c45 -46 -30 -116 -75 -67l-240 266l-133 -157c5 -64 1 -126 -58 -126c-58 1 -63 62 -57 126l-133 157l-240 -266c-40 -50 -120 17 -75 67l250 277l-226 267c-45 50 35 117 79 65l345 -411v373c-1 30 28 57 58 57
s57 -27 57 -57v-373z" />
    <glyph glyph-name="uni0417" unicode="&#x417;" horiz-adv-x="596" 
d="M401 518c3 52 -61 94 -110 94c-62 -1 -103 -25 -114 -77c-10 -47 -77 -56 -101 -19c-11 15 -14 34 -7 54c27 81 116 137 222 137c110 0 225 -85 225 -189c0 -78 -60 -135 -126 -150c76 -4 161 -77 161 -164c0 -183 -252 -271 -409 -176c-43 25 -73 59 -92 101
c-30 67 82 117 106 40c16 -51 73 -84 135 -84c82 0 144 35 144 119c0 63 -45 103 -136 110c-54 4 -56 90 -1 97c75 10 99 31 103 107z" />
    <glyph glyph-name="uni0418" unicode="&#x418;" horiz-adv-x="691" 
d="M69 645c-1 29 27 58 57 58c31 0 59 -28 58 -58v-431l332 456c26 48 110 44 110 -19v-598c1 -30 -27 -58 -58 -58c-30 0 -57 29 -57 58v433l-336 -458c-25 -48 -106 -47 -106 18v599z" />
    <glyph glyph-name="uni0419" unicode="&#x419;" horiz-adv-x="691" 
d="M444 925c15 53 100 23 84 -28c-22 -69 -78 -129 -167 -129c-84 0 -142 62 -164 128c-18 54 67 81 82 30c23 -75 143 -76 165 -1zM69 645c-1 29 27 58 57 58c31 0 59 -28 58 -58v-431l332 456c26 48 110 44 110 -19v-598c1 -30 -27 -58 -58 -58c-30 0 -57 29 -57 58v433
l-336 -458c-25 -48 -106 -47 -106 18v599z" />
    <glyph glyph-name="uni041A" unicode="&#x41a;" horiz-adv-x="690" 
d="M70 649c-2 47 63 77 97 40c11 -12 17 -25 17 -40v-373l345 411c39 53 124 -12 79 -65l-226 -267l250 -277c45 -46 -30 -116 -75 -67l-240 266l-133 -157c5 -64 1 -125 -57 -126c-30 -1 -57 27 -57 57v598z" />
    <glyph glyph-name="uni041B" unicode="&#x41b;" horiz-adv-x="765" 
d="M132 638c-1 35 27 63 62 62h444c35 1 63 -27 62 -62v-588c1 -29 -26 -55 -55 -55s-56 26 -55 55v555h-348v-471c1 -98 -38 -140 -125 -140c-68 0 -102 19 -102 56c0 38 37 52 75 43c28 0 42 15 42 45v500z" />
    <glyph glyph-name="uni041C" unicode="&#x41c;" horiz-adv-x="888" 
d="M70 651c-1 30 23 52 50 52c25 0 45 -13 60 -38l264 -472l264 472c22 54 110 50 110 -14v-596c1 -30 -27 -58 -58 -58c-30 0 -57 29 -57 58v377l-208 -374c-21 -43 -79 -41 -102 0l-208 374v-377c1 -29 -27 -58 -57 -58c-31 0 -59 28 -58 58v596z" />
    <glyph glyph-name="uni041D" unicode="&#x41d;" horiz-adv-x="698" 
d="M65 646c-3 48 64 78 97 40c11 -11 16 -25 16 -40v-251h342v251c-3 48 63 78 96 40c11 -11 17 -25 17 -40v-592c1 -30 -26 -57 -56 -57c-31 0 -58 27 -57 57v244h-342v-244c1 -30 -26 -57 -56 -57c-31 0 -58 27 -57 57v592z" />
    <glyph glyph-name="uni041E" unicode="&#x41e;" horiz-adv-x="796" 
d="M50 350c0 208 144 357 348 357s348 -149 348 -357s-144 -357 -348 -357s-348 149 -348 357zM398 100c127 0 230 116 230 250c0 135 -102 250 -230 250c-127 0 -230 -116 -230 -250c0 -135 103 -250 230 -250z" />
    <glyph glyph-name="uni041F" unicode="&#x41f;" horiz-adv-x="698" 
d="M65 638c-1 35 27 63 62 62h444c35 1 63 -27 62 -62v-588c1 -28 -27 -55 -55 -55s-55 27 -55 55v555h-348v-555c1 -28 -27 -55 -55 -55s-55 27 -55 55v588z" />
    <glyph glyph-name="uni0420" unicode="&#x420;" horiz-adv-x="620" 
d="M70 638c-1 35 27 63 62 62c145 -2 288 11 368 -60c88 -79 89 -231 0 -308c-71 -62 -187 -62 -317 -60v-221c1 -30 -26 -57 -56 -57c-31 0 -58 27 -57 57v587zM460 486c0 130 -145 120 -277 117v-234h127c100 0 150 39 150 117z" />
    <glyph glyph-name="uni0421" unicode="&#x421;" horiz-adv-x="634" 
d="M569 46c-231 -153 -535 48 -524 303c9 207 143 358 347 358c62 0 120 -19 177 -53c60 -36 0 -134 -60 -92c-156 112 -346 -39 -346 -212s190 -324 345 -212c58 41 122 -51 61 -92z" />
    <glyph glyph-name="uni0422" unicode="&#x422;" horiz-adv-x="630" 
d="M45 650c0 27 24 51 50 50h440c26 1 50 -23 50 -50s-24 -51 -50 -50h-160v-546c1 -31 -28 -60 -59 -60c-32 0 -61 29 -60 60v546h-161c-26 -1 -50 23 -50 50z" />
    <glyph glyph-name="uni0423" unicode="&#x423;" horiz-adv-x="666" 
d="M56 630c-33 58 57 107 89 49l188 -343l188 343c26 59 122 11 89 -49l-334 -608c-26 -59 -122 -12 -89 48l88 160z" />
    <glyph glyph-name="uni0424" unicode="&#x424;" horiz-adv-x="895" 
d="M439 706c35 0 61 -30 55 -71c183 0 350 -111 351 -285c0 -174 -168 -285 -351 -285c19 -83 -111 -95 -110 -16v16c-183 0 -349 111 -349 285s166 285 349 285c-6 41 20 71 55 71zM494 160c143 -1 241 67 241 190s-98 191 -241 190v-380zM384 540
c-142 -1 -239 -67 -239 -190s97 -190 239 -190v380z" />
    <glyph glyph-name="uni0425" unicode="&#x425;" horiz-adv-x="629" 
d="M475 680c26 43 102 21 98 -31c0 -12 -3 -22 -10 -31l-184 -262l195 -277c42 -55 -47 -120 -88 -62l-172 246l-173 -246c-34 -57 -128 3 -87 60l194 278l-184 263c-43 55 47 120 88 62l162 -231z" />
    <glyph glyph-name="uni0426" unicode="&#x426;" horiz-adv-x="792" 
d="M578 705c28 0 55 -27 55 -55v-555c62 6 114 -6 114 -62c0 -60 1 -118 -54 -118c-41 0 -62 36 -55 85h-511c-35 -1 -63 27 -62 62v588c-1 28 27 55 55 55s55 -27 55 -55v-555h348v555c-1 28 27 55 55 55z" />
    <glyph glyph-name="uni0427" unicode="&#x427;" horiz-adv-x="641" 
d="M309 320c79 -1 131 57 157 109v219c-1 29 26 55 55 55s56 -26 55 -55v-598c1 -29 -26 -55 -55 -55s-56 26 -55 55v268c-22 -46 -97 -95 -175 -93c-136 4 -226 69 -226 211v212c-1 28 27 55 55 55s55 -27 55 -55v-212c-2 -80 58 -115 134 -116z" />
    <glyph glyph-name="uni0428" unicode="&#x428;" horiz-adv-x="1166" 
d="M981 650c-1 28 27 55 55 55s55 -27 55 -55v-588c1 -35 -27 -63 -62 -62h-902c-35 -1 -63 27 -62 62v588c-1 28 27 55 55 55s55 -27 55 -55v-555h348v555c-1 28 27 55 55 55s55 -27 55 -55v-555h348v555z" />
    <glyph glyph-name="uni0429" unicode="&#x429;" horiz-adv-x="1250" 
d="M1036 705c28 0 55 -27 55 -55v-555c62 6 114 -6 114 -62c0 -60 1 -118 -54 -118c-41 0 -62 36 -55 85h-969c-35 -1 -63 27 -62 62v588c-1 28 27 55 55 55s55 -27 55 -55v-555h348v555c-1 28 27 55 55 55s55 -27 55 -55v-555h348v555c-1 28 27 55 55 55z" />
    <glyph glyph-name="uni042A" unicode="&#x42a;" horiz-adv-x="736" 
d="M248 706c30 1 56 -27 56 -57v-221h132c142 4 255 -80 255 -214c0 -131 -115 -214 -255 -214h-183c-35 -1 -63 27 -62 62v549c-66 5 -166 -22 -166 48c-1 25 23 47 48 47h175zM304 97c132 -3 277 -13 277 117c0 78 -50 117 -150 117h-127v-234z" />
    <glyph glyph-name="uni042B" unicode="&#x42b;" horiz-adv-x="885" 
d="M570 214c0 -131 -115 -214 -255 -214h-183c-35 -1 -63 27 -62 62v587c-3 48 63 78 96 40c11 -11 17 -25 17 -40v-221h132c142 4 255 -80 255 -214zM695 645c-1 30 27 58 58 58c30 0 57 -29 57 -58v-593c1 -29 -27 -58 -57 -58c-31 0 -59 28 -58 58v593zM183 97
c132 -3 277 -13 277 117c0 78 -50 117 -150 117h-127v-234z" />
    <glyph glyph-name="uni042C" unicode="&#x42c;" horiz-adv-x="642" 
d="M570 214c0 -131 -115 -214 -255 -214h-183c-35 -1 -63 27 -62 62v587c-3 48 63 78 96 40c11 -11 17 -25 17 -40v-221h132c142 4 255 -80 255 -214zM183 97c132 -3 277 -13 277 117c0 78 -50 117 -150 117h-127v-234z" />
    <glyph glyph-name="uni042D" unicode="&#x42d;" horiz-adv-x="648" 
d="M139 562c-57 -41 -122 54 -60 92c56 35 115 53 177 53c204 0 338 -151 347 -358c11 -255 -292 -454 -524 -303c-44 29 -23 104 30 101c13 0 23 -3 31 -9c144 -106 329 29 341 165c-65 4 -157 -20 -157 48c0 66 93 43 157 47c-17 144 -201 266 -342 164z" />
    <glyph glyph-name="uni042E" unicode="&#x42e;" horiz-adv-x="990" 
d="M249 398c14 164 172 314 345 309c204 -6 348 -149 348 -357s-144 -351 -348 -357c-172 -5 -332 146 -345 310h-69v-251c1 -29 -27 -58 -57 -58c-31 0 -59 28 -58 58v593c-1 30 27 58 58 58c30 0 57 -29 57 -58v-247h69zM364 350c0 -135 103 -250 230 -250
s230 116 230 250c0 135 -102 250 -230 250c-127 0 -230 -116 -230 -250z" />
    <glyph glyph-name="uni042F" unicode="&#x42f;" horiz-adv-x="625" 
d="M55 486c0 131 115 214 255 214h183c35 1 63 -27 62 -62v-587c1 -30 -26 -57 -57 -57c-30 0 -56 27 -56 57v221h-81l-209 -257c-40 -57 -132 11 -84 68l166 197c-100 20 -178 94 -179 206zM442 603c-132 3 -277 13 -277 -117c0 -78 50 -117 150 -117h127v234z" />
    <glyph glyph-name="uni0430" unicode="&#x430;" horiz-adv-x="612" 
d="M40 260c0 160 94 266 245 266c73 0 125 -24 157 -73c-20 85 110 98 110 18v-422c1 -30 -25 -56 -55 -55c-43 1 -62 39 -55 90c-6 -50 -92 -96 -157 -91c-151 12 -245 106 -245 267zM299 431c-84 0 -149 -77 -149 -171s65 -172 149 -172c90 0 148 70 148 172
c0 103 -58 171 -148 171z" />
    <glyph glyph-name="uni0431" unicode="&#x431;" 
d="M264 605c-69 0 -92 -18 -93 -85v-66c31 48 83 72 156 72c151 0 245 -106 245 -266c0 -161 -94 -256 -245 -267c-65 -5 -151 41 -157 91c7 -51 -11 -89 -55 -90c-30 -1 -56 25 -55 55c0 157 1 315 1 471c0 157 113 191 281 180c52 -4 61 23 96 27c39 4 59 -52 31 -80
c-46 -46 -118 -42 -205 -42zM165 260c0 -102 58 -172 148 -172c84 0 149 78 149 172s-65 171 -149 171c-90 0 -148 -68 -148 -171z" />
    <glyph glyph-name="uni0432" unicode="&#x432;" horiz-adv-x="597" 
d="M327 520c101 1 184 -42 185 -136c0 -49 -22 -81 -67 -96c71 -26 107 -71 107 -134c-1 -182 -234 -154 -420 -154c-35 -1 -63 27 -62 62v396c-1 35 27 63 62 62h195zM402 381c0 40 -34 49 -75 49h-147v-102c78 8 222 -28 222 53zM180 90c91 3 262 -21 262 64
c0 103 -160 77 -262 80v-144z" />
    <glyph glyph-name="uni0433" unicode="&#x433;" horiz-adv-x="539" 
d="M70 458c-1 35 27 63 62 62h314c25 1 48 -22 48 -47c0 -26 -22 -49 -48 -48h-266v-375c1 -29 -26 -55 -55 -55s-56 26 -55 55v408z" />
    <glyph glyph-name="uni0434" unicode="&#x434;" horiz-adv-x="688" 
d="M546 520c35 1 63 -27 62 -62v-365c59 -10 43 -80 45 -143c1 -28 -27 -56 -55 -55c-46 1 -62 45 -55 100c-3 1 -8 2 -15 5h-383c7 -57 -6 -104 -55 -105c-28 -1 -55 27 -55 55v83c0 36 28 64 66 62c25 67 31 229 29 363c-1 35 27 63 62 62h354zM240 425
c2 -134 -7 -273 -30 -330h288v330h-258z" />
    <glyph glyph-name="uni0435" unicode="&#x435;" 
d="M45 259c0 163 106 259 260 267c124 6 260 -114 252 -251c-2 -39 -22 -58 -65 -58h-333c5 -111 160 -167 250 -98c34 26 81 6 81 -37c0 -19 -8 -32 -24 -43c-45 -30 -98 -46 -160 -46c-154 0 -261 102 -261 266zM447 308c-10 103 -147 161 -234 90
c-28 -23 -46 -51 -53 -90h287z" />
    <glyph glyph-name="uni0436" unicode="&#x436;" horiz-adv-x="930" 
d="M720 507c41 50 120 -21 72 -70l-165 -168l184 -187c47 -45 -26 -120 -74 -71l-180 186l-37 -38c-2 -71 18 -164 -55 -164c-29 0 -56 26 -55 55v109l-37 38l-180 -186c-42 -50 -122 23 -74 71l184 187l-165 168c-49 44 24 118 72 70l200 -201v162c-1 29 26 55 55 55
s56 -26 55 -55v-162z" />
    <glyph glyph-name="uni0437" unicode="&#x437;" horiz-adv-x="536" 
d="M354 384c-5 64 -166 57 -186 11c-16 -37 -75 -34 -90 3c-8 20 -7 39 7 58c84 116 373 81 379 -72c3 -67 -43 -89 -90 -106c65 -13 123 -45 122 -125c-2 -143 -230 -198 -362 -134c-36 17 -64 41 -81 71c-39 64 64 119 95 52c26 -56 134 -65 199 -37c48 21 50 70 11 97
c-28 31 -123 8 -123 74c-1 24 21 45 42 48c51 6 79 27 77 60z" />
    <glyph glyph-name="uni0438" unicode="&#x438;" horiz-adv-x="633" 
d="M120 526c29 0 55 -26 55 -55v-315l255 335c36 63 138 34 138 -43v-399c1 -30 -25 -55 -55 -55s-56 25 -55 55v315l-255 -335c-36 -63 -138 -34 -138 43v399c-1 29 26 55 55 55z" />
    <glyph glyph-name="uni0439" unicode="&#x439;" horiz-adv-x="633" 
d="M399 745c16 53 100 23 84 -28c-22 -70 -78 -129 -167 -129c-84 0 -142 62 -164 128c-18 54 67 81 82 30c23 -75 143 -76 165 -1zM120 526c29 0 55 -26 55 -55v-315l255 335c36 63 138 34 138 -43v-399c1 -30 -25 -55 -55 -55s-56 25 -55 55v315l-255 -335
c-36 -63 -138 -34 -138 43v399c-1 29 26 55 55 55z" />
    <glyph glyph-name="uni043A" unicode="&#x43a;" horiz-adv-x="530" 
d="M380 507c41 50 120 -21 72 -70l-165 -168l184 -187c47 -45 -26 -120 -74 -71l-180 186l-37 -38c-2 -71 18 -164 -55 -164c-29 0 -56 26 -55 55v418c-1 29 26 55 55 55s56 -26 55 -55v-162z" />
    <glyph glyph-name="uni043B" unicode="&#x43b;" horiz-adv-x="692" 
d="M131 458c-1 35 27 63 62 62h372c35 1 63 -27 62 -62v-409c1 -29 -26 -55 -55 -55s-55 26 -55 55v376h-276v-291c0 -93 -42 -140 -125 -140c-89 0 -125 39 -85 87c14 16 36 10 58 9c28 -2 42 22 42 48v320z" />
    <glyph glyph-name="uni043C" unicode="&#x43c;" horiz-adv-x="872" 
d="M125 -5c-29 0 -56 26 -55 55v384c-3 58 49 101 107 88c28 -6 50 -22 66 -49l193 -322l193 322c24 47 92 70 141 33c22 -17 32 -41 32 -72v-384c1 -29 -26 -55 -55 -55s-56 26 -55 55v313l-202 -339c-18 -37 -87 -36 -108 0l-202 339v-313c1 -29 -26 -55 -55 -55z" />
    <glyph glyph-name="uni043D" unicode="&#x43d;" horiz-adv-x="608" 
d="M125 523c29 0 56 -26 55 -55v-160h248v160c-1 29 26 55 55 55s56 -26 55 -55v-418c1 -29 -26 -55 -55 -55s-56 26 -55 55v163h-248v-163c1 -29 -26 -55 -55 -55s-56 26 -55 55v418c-1 29 26 55 55 55z" />
    <glyph glyph-name="uni043E" unicode="&#x43e;" horiz-adv-x="600" 
d="M40 259c0 163 106 267 260 267s260 -104 260 -267c0 -164 -106 -266 -260 -266s-260 102 -260 266zM196 134c97 -101 254 -17 254 125c0 97 -65 171 -150 171c-84 0 -153 -75 -150 -171c2 -53 16 -94 46 -125z" />
    <glyph glyph-name="uni043F" unicode="&#x43f;" horiz-adv-x="618" 
d="M70 458c-1 35 27 63 62 62h354c35 1 63 -27 62 -62v-408c1 -29 -26 -55 -55 -55s-56 26 -55 55v375h-258v-375c1 -29 -26 -55 -55 -55s-56 26 -55 55v408z" />
    <glyph glyph-name="uni0440" unicode="&#x440;" 
d="M115 526c36 -1 61 -30 55 -73c32 49 84 73 157 73c151 0 245 -106 245 -266c0 -161 -94 -256 -245 -267c-65 -5 -151 41 -157 91v-225c1 -30 -25 -55 -55 -55s-56 25 -55 55v612c-1 30 25 56 55 55zM165 260c0 -102 58 -172 148 -172c84 0 149 78 149 172
s-65 171 -149 171c-90 0 -148 -68 -148 -171z" />
    <glyph glyph-name="uni0441" unicode="&#x441;" horiz-adv-x="542" 
d="M45 259c8 164 106 267 260 267c63 0 116 -20 160 -58c18 -15 27 -29 27 -44c0 -43 -56 -67 -85 -36c-95 97 -266 12 -252 -129c-14 -140 157 -226 252 -129c31 31 88 8 85 -35c0 -15 -9 -28 -26 -43c-160 -142 -432 -7 -421 207z" />
    <glyph glyph-name="uni0442" unicode="&#x442;" horiz-adv-x="510" 
d="M45 473c-1 25 23 47 48 47h324c25 1 49 -22 48 -47c0 -67 -91 -44 -155 -48v-375c1 -29 -26 -55 -55 -55s-56 26 -55 55v375c-64 4 -155 -19 -155 48z" />
    <glyph glyph-name="uni0443" unicode="&#x443;" horiz-adv-x="577" 
d="M39 456c-27 59 65 100 92 40l162 -352l152 350c19 62 119 24 93 -38l-262 -621c-20 -61 -117 -24 -92 38l57 142z" />
    <glyph glyph-name="uni0444" unicode="&#x444;" horiz-adv-x="979" 
d="M492 716c29 0 55 -26 55 -55v-208c32 49 84 73 157 73c151 0 245 -106 245 -266c0 -161 -94 -256 -245 -267c-65 -5 -151 41 -157 91v-225c1 -29 -26 -55 -55 -55s-55 26 -55 55v208c-32 -49 -84 -73 -157 -73c-151 0 -245 106 -245 266c0 161 94 256 245 267
c65 5 151 -41 157 -91v225c-1 29 26 55 55 55zM145 260c0 -94 65 -171 149 -171c77 0 143 47 143 120v102c-13 71 -67 121 -143 121c-84 0 -149 -78 -149 -172zM547 209c13 -71 67 -121 143 -121c84 0 149 78 149 172s-65 171 -149 171c-77 0 -143 -47 -143 -120v-102z" />
    <glyph glyph-name="uni0445" unicode="&#x445;" horiz-adv-x="562" 
d="M413 506c35 52 118 -8 78 -58l-148 -187l150 -189c38 -49 -38 -109 -78 -58l-134 169l-134 -169c-34 -52 -118 8 -78 58l150 189l-148 187c-38 48 37 109 78 58l132 -167z" />
    <glyph glyph-name="uni0446" unicode="&#x446;" horiz-adv-x="642" 
d="M488 525c28 0 55 -27 55 -55v-375c55 -4 54 -62 54 -125c0 -29 -25 -56 -54 -55c-41 1 -62 36 -55 85h-361c-35 -1 -63 27 -62 62v408c-1 28 27 55 55 55s55 -27 55 -55v-375h258v375c-1 28 27 55 55 55z" />
    <glyph glyph-name="uni0447" unicode="&#x447;" horiz-adv-x="606" 
d="M278 245c80 0 131 60 153 121v102c-1 28 27 55 55 55s55 -27 55 -55v-418c1 -28 -27 -55 -55 -55s-55 27 -55 55v197c-28 -50 -75 -98 -154 -99c-119 0 -217 84 -212 211v109c-1 28 27 55 55 55s55 -27 55 -55v-110c0 -75 34 -113 103 -113z" />
    <glyph glyph-name="uni0448" unicode="&#x448;" horiz-adv-x="838" 
d="M414 526c29 0 55 -26 55 -55v-376h184v376c-1 29 26 55 55 55s55 -26 55 -55v-409c1 -35 -27 -63 -62 -62h-574c-35 -1 -63 27 -62 62v409c-1 29 26 55 55 55s55 -26 55 -55v-376h184v376c-1 29 26 55 55 55z" />
    <glyph glyph-name="uni0449" unicode="&#x449;" horiz-adv-x="866" 
d="M708 526c29 0 55 -26 55 -55v-376c58 -2 58 -61 58 -125c0 -29 -25 -56 -54 -55c-41 1 -62 36 -55 85h-585c-35 -1 -63 27 -62 62v409c-1 29 26 55 55 55s55 -26 55 -55v-376h184v376c-1 29 26 55 55 55s55 -26 55 -55v-376h184v376c-1 29 26 55 55 55z" />
    <glyph glyph-name="uni044A" unicode="&#x44a;" horiz-adv-x="665" 
d="M83 523c68 -5 162 24 162 -55v-162h170c113 2 205 -53 205 -157c0 -102 -93 -149 -205 -149h-218c-35 -1 -63 27 -62 62v366c-52 -4 -100 1 -100 48c-1 25 23 48 48 47zM510 149c0 50 -32 62 -95 62h-170v-116h170c63 2 95 5 95 54z" />
    <glyph glyph-name="uni044B" unicode="&#x44b;" horiz-adv-x="800" 
d="M125 523c29 0 56 -26 55 -55v-162h170c113 2 205 -53 205 -157c0 -102 -93 -149 -205 -149h-218c-35 -1 -63 27 -62 62v406c-1 29 26 55 55 55zM620 468c-1 29 26 55 55 55s56 -26 55 -55v-418c1 -29 -26 -55 -55 -55s-56 26 -55 55v418zM445 149c0 50 -32 62 -95 62
h-170v-116h170c63 2 95 5 95 54z" />
    <glyph glyph-name="uni044C" unicode="&#x44c;" horiz-adv-x="600" 
d="M125 523c29 0 56 -26 55 -55v-162h170c113 2 205 -53 205 -157c0 -102 -93 -149 -205 -149h-218c-35 -1 -63 27 -62 62v406c-1 29 26 55 55 55zM445 149c0 50 -32 62 -95 62h-170v-116h170c63 2 95 5 95 54z" />
    <glyph glyph-name="uni044D" unicode="&#x44d;" horiz-adv-x="542" 
d="M130 388c-29 -31 -85 -7 -85 36c0 15 9 29 27 44c44 38 97 58 160 58c154 0 252 -103 260 -267c11 -214 -261 -350 -421 -207c-47 27 -24 94 24 93c13 0 25 -5 35 -15c48 -50 134 -55 191 -10c27 21 46 50 55 87c-60 -1 -129 -9 -129 50s69 51 130 50
c-11 109 -168 167 -247 81z" />
    <glyph glyph-name="uni044E" unicode="&#x44e;" horiz-adv-x="828" 
d="M262 307c12 120 134 219 256 219c154 0 260 -104 260 -267c0 -164 -106 -266 -260 -266c-137 0 -230 93 -256 214h-87v-157c1 -28 -27 -55 -55 -55s-55 27 -55 55v418c-1 28 27 55 55 55s55 -27 55 -55v-161h87zM368 259c0 -96 66 -170 150 -170s150 75 150 170
c0 97 -65 171 -150 171c-84 0 -150 -75 -150 -171z" />
    <glyph glyph-name="uni044F" unicode="&#x44f;" horiz-adv-x="610" 
d="M55 351c0 105 102 169 215 169h208c35 1 63 -27 62 -62v-408c1 -29 -26 -55 -55 -55c-75 0 -52 101 -55 174h-117l-147 -158c-40 -48 -115 20 -70 66l99 102c-75 21 -139 83 -140 172zM165 351c0 -52 45 -87 105 -87h160v161c-104 -7 -265 31 -265 -74z" />
    <glyph glyph-name="uni0451" unicode="&#x451;" 
d="M224 651c0 -32 -28 -60 -60 -60s-60 28 -60 60c0 31 28 59 60 59s60 -28 60 -59zM412 710c51 0 79 -65 42 -102s-102 -8 -102 43c0 31 28 59 60 59zM45 259c0 163 106 259 260 267c124 6 260 -114 252 -251c-2 -39 -22 -58 -65 -58h-333c5 -111 160 -167 250 -98
c34 26 81 6 81 -37c0 -19 -8 -32 -24 -43c-45 -30 -98 -46 -160 -46c-154 0 -261 102 -261 266zM447 308c-10 103 -147 161 -234 90c-28 -23 -46 -51 -53 -90h287z" />
    <glyph glyph-name="uni0454" unicode="&#x454;" horiz-adv-x="542" 
d="M290 257c0 -59 -69 -51 -129 -50c14 -104 168 -161 246 -77c30 32 88 8 85 -35c0 -15 -9 -28 -26 -43c-160 -142 -432 -7 -421 207c8 164 106 267 260 267c63 0 116 -20 160 -58c18 -15 27 -29 27 -44c0 -43 -56 -67 -85 -36c-48 52 -136 56 -193 10
c-27 -22 -45 -52 -54 -91c61 1 130 10 130 -50z" />
    <glyph glyph-name="uni0457" unicode="&#x457;" horiz-adv-x="260" 
d="M66 651c0 -32 -28 -60 -60 -60s-60 28 -60 60c0 31 28 59 60 59s60 -28 60 -59zM194 651c0 79 120 74 120 0c0 -32 -28 -60 -60 -60s-60 28 -60 60zM75 468c-1 28 27 55 55 55s55 -27 55 -55v-418c1 -28 -27 -55 -55 -55s-55 27 -55 55v418z" />
    <glyph glyph-name="uni0490" unicode="&#x490;" horiz-adv-x="572" 
d="M471 753c72 0 83 -147 8 -148h-299v-555c1 -29 -26 -55 -55 -55s-56 26 -55 55v588c-1 35 27 63 62 62h284c0 28 26 53 55 53z" />
    <glyph glyph-name="uni0491" unicode="&#x491;" horiz-adv-x="539" 
d="M438 573c72 0 83 -147 8 -148h-266v-375c1 -29 -26 -55 -55 -55s-56 26 -55 55v408c-1 35 27 63 62 62h251c0 28 26 53 55 53z" />
    <glyph glyph-name="Wgrave" unicode="&#x1e80;" horiz-adv-x="1147" 
d="M457 895c-4 61 88 80 112 20l49 -121c20 -42 -38 -68 -65 -36l-83 101c-9 11 -13 23 -13 36zM61 627c-34 63 75 117 100 46l176 -495l185 495c10 44 85 43 101 0l187 -495l176 495c5 17 28 33 50 33c37 1 66 -39 50 -79l-230 -590c-19 -56 -71 -55 -93 0l-190 468
l-190 -468c-19 -56 -72 -55 -93 0z" />
    <glyph glyph-name="wgrave" unicode="&#x1e81;" horiz-adv-x="870" 
d="M319 715c-4 61 88 80 112 20l49 -121c20 -42 -38 -68 -65 -36l-83 101c-9 11 -13 23 -13 36zM42 446c-37 61 68 113 91 47l114 -333l139 329c14 45 80 44 98 0l139 -329l114 333c4 16 26 30 46 30c38 -1 60 -35 45 -77l-149 -406c-19 -57 -76 -54 -100 0l-144 317
l-144 -317c-21 -55 -79 -56 -100 0z" />
    <glyph glyph-name="Wacute" unicode="&#x1e82;" horiz-adv-x="1147" 
d="M567 915c18 62 115 42 112 -20c0 -13 -4 -25 -13 -36l-83 -101c-24 -34 -82 -7 -65 36zM61 627c-34 63 75 117 100 46l176 -495l185 495c10 44 85 43 101 0l187 -495l176 495c5 17 28 33 50 33c37 1 66 -39 50 -79l-230 -590c-19 -56 -71 -55 -93 0l-190 468l-190 -468
c-19 -56 -72 -55 -93 0z" />
    <glyph glyph-name="wacute" unicode="&#x1e83;" horiz-adv-x="870" 
d="M429 735c18 62 115 42 112 -20c0 -13 -4 -25 -13 -36l-83 -101c-24 -34 -82 -7 -65 36zM42 446c-37 61 68 113 91 47l114 -333l139 329c14 45 80 44 98 0l139 -329l114 333c4 16 26 30 46 30c38 -1 60 -35 45 -77l-149 -406c-19 -57 -76 -54 -100 0l-144 317l-144 -317
c-21 -55 -79 -56 -100 0z" />
    <glyph glyph-name="Wdieresis" unicode="&#x1e84;" horiz-adv-x="1147" 
d="M449 890c51 0 80 -65 43 -102s-103 -8 -103 43c0 31 28 59 60 59zM757 831c0 -32 -28 -60 -60 -60c-51 0 -80 64 -43 101s103 9 103 -41zM61 627c-34 63 75 117 100 46l176 -495l185 495c10 44 85 43 101 0l187 -495l176 495c5 17 28 33 50 33c37 1 66 -39 50 -79
l-230 -590c-19 -56 -71 -55 -93 0l-190 468l-190 -468c-19 -56 -72 -55 -93 0z" />
    <glyph glyph-name="wdieresis" unicode="&#x1e85;" horiz-adv-x="870" 
d="M311 710c51 0 80 -65 43 -102s-103 -8 -103 43c0 31 28 59 60 59zM619 651c0 -32 -28 -60 -60 -60s-60 28 -60 60c0 31 28 59 60 59s60 -28 60 -59zM42 446c-37 61 68 113 91 47l114 -333l139 329c14 45 80 44 98 0l139 -329l114 333c4 16 26 30 46 30
c38 -1 60 -35 45 -77l-149 -406c-19 -57 -76 -54 -100 0l-144 317l-144 -317c-21 -55 -79 -56 -100 0z" />
    <glyph glyph-name="Ygrave" unicode="&#x1ef2;" horiz-adv-x="634" 
d="M214 859c-32 36 -1 96 45 94c25 -1 43 -13 54 -38l49 -121c20 -42 -38 -68 -65 -36zM44 622c-39 54 45 113 85 59l188 -257l188 257c35 55 125 -3 85 -59l-218 -299v-274c1 -30 -25 -55 -55 -55s-56 25 -55 55v274z" />
    <glyph glyph-name="ygrave" unicode="&#x1ef3;" horiz-adv-x="577" 
d="M190 679c-32 36 -1 96 45 94c25 -1 43 -13 54 -38l49 -121c20 -42 -38 -68 -65 -36zM39 456c-27 59 65 100 92 40l162 -352l152 350c19 62 119 24 93 -38l-262 -621c-20 -61 -117 -24 -92 38l57 142z" />
    <glyph glyph-name="endash" unicode="&#x2013;" horiz-adv-x="612" 
d="M45 277c0 24 21 46 45 45h432c24 1 45 -21 45 -45s-21 -46 -45 -45h-432c-24 -1 -45 21 -45 45z" />
    <glyph glyph-name="emdash" unicode="&#x2014;" horiz-adv-x="672" 
d="M45 277c0 24 21 46 45 45h492c24 1 45 -21 45 -45s-21 -46 -45 -45h-492c-24 -1 -45 21 -45 45z" />
    <glyph glyph-name="quoteleft" unicode="&#x2018;" horiz-adv-x="234" 
d="M91 668c13 36 75 43 101 18c8 -8 10 -21 4 -36c-18 -44 -16 -123 -74 -124c-47 -1 -111 -4 -79 54z" />
    <glyph glyph-name="quoteright" unicode="&#x2019;" horiz-adv-x="208" 
d="M143 577c-13 -36 -75 -44 -101 -19c-8 8 -10 22 -4 37c18 44 16 123 74 124c47 1 110 4 79 -54z" />
    <glyph glyph-name="quotesinglbase" unicode="&#x201a;" horiz-adv-x="293" 
d="M133 -103c-13 -36 -75 -44 -101 -19c-8 8 -10 22 -4 37c18 44 16 123 74 124c47 1 110 4 79 -54z" />
    <glyph glyph-name="quotedblleft" unicode="&#x201c;" horiz-adv-x="475" 
d="M91 668c13 36 75 43 101 18c8 -8 10 -21 4 -36c-18 -44 -16 -123 -74 -124c-47 -1 -111 -4 -79 54zM303 668c13 36 75 43 101 18c8 -8 10 -21 4 -36c-18 -44 -16 -123 -74 -124c-47 -1 -111 -4 -79 54z" />
    <glyph glyph-name="quotedblright" unicode="&#x201d;" horiz-adv-x="474" 
d="M143 577c-13 -36 -75 -44 -101 -19c-8 8 -10 22 -4 37c18 44 16 123 74 124c47 1 110 4 79 -54zM354 577c-13 -36 -75 -44 -101 -19c-8 8 -10 22 -4 37c18 44 16 123 74 124c47 1 110 4 79 -54z" />
    <glyph glyph-name="quotedblbase" unicode="&#x201e;" horiz-adv-x="500" 
d="M133 -103c-13 -36 -75 -44 -101 -19c-8 8 -10 22 -4 37c18 44 16 123 74 124c47 1 110 4 79 -54zM340 -103c-13 -36 -75 -44 -101 -19c-8 8 -10 22 -4 37c18 44 16 123 74 124c47 1 110 4 79 -54z" />
    <glyph glyph-name="dagger" unicode="&#x2020;" horiz-adv-x="349" 
d="M304 565v-95h-98l-19 -158h-24l-19 158h-99v95h87l-16 135h118l-16 -135h86z" />
    <glyph glyph-name="daggerdbl" unicode="&#x2021;" horiz-adv-x="339" 
d="M211 565h88v-95h-101l-13 -96h-30l-13 96h-102v95h89l-18 135h118zM185 326l13 -96h101v-95h-88l18 -135h-118l18 135h-89v95h102l13 96h30z" />
    <glyph glyph-name="bullet" unicode="&#x2022;" horiz-adv-x="226" 
d="M181 298c0 -37 -31 -68 -68 -68s-68 31 -68 68s31 68 68 68s68 -31 68 -68z" />
    <glyph glyph-name="ellipsis" unicode="&#x2026;" horiz-adv-x="720" 
d="M167 62c0 -34 -30 -65 -64 -65c-55 0 -86 70 -46 110s110 9 110 -45zM395 107c40 -40 9 -110 -45 -110c-35 0 -65 30 -65 65c0 54 70 85 110 45zM661 62c0 -34 -30 -65 -64 -65c-55 0 -86 70 -46 110s110 9 110 -45z" />
    <glyph glyph-name="perthousand" unicode="&#x2030;" horiz-adv-x="1024" 
d="M35 582c0 67 57 123 123 123c67 0 124 -56 124 -123c0 -66 -57 -123 -124 -123c-66 0 -123 57 -123 123zM195 37c-33 -56 -124 0 -86 57l384 571c33 56 123 0 85 -57zM158 543c49 0 47 77 0 77c-22 0 -40 -17 -40 -38s18 -39 40 -39zM416 118c0 67 57 123 123 123
c67 0 124 -56 124 -123c0 -66 -57 -123 -124 -123c-66 0 -123 57 -123 123zM742 118c0 67 57 123 123 123c67 0 124 -56 124 -123c0 -66 -57 -123 -124 -123c-66 0 -123 57 -123 123zM539 79c46 0 50 77 0 77c-22 0 -40 -17 -40 -38s18 -39 40 -39zM825 118
c-1 -51 80 -50 77 0c3 50 -80 49 -77 0z" />
    <glyph glyph-name="guilsinglleft" unicode="&#x2039;" horiz-adv-x="215" 
d="M25 221c0 68 -19 153 31 182l70 41c61 38 63 -51 30 -83l-80 -76l80 -76c39 -25 28 -123 -30 -83c-36 25 -101 37 -101 95z" />
    <glyph glyph-name="guilsinglright" unicode="&#x203a;" horiz-adv-x="205" 
d="M159 444c52 -25 31 -114 31 -182c0 -58 -65 -70 -101 -95c-59 -40 -63 51 -30 83l80 76l-80 76c-39 25 -31 119 30 83z" />
    <glyph glyph-name="fraction" unicode="&#x2044;" horiz-adv-x="108" 
d="M288 700l-430 -700h-48l436 700h42z" />
    <glyph glyph-name="Euro" unicode="&#x20ac;" horiz-adv-x="685" 
d="M335 268c0 -42 -44 -46 -90 -42c44 -100 201 -172 314 -88c57 42 122 -51 61 -92c-190 -129 -453 2 -503 180c-44 -5 -82 4 -82 42c0 30 27 48 63 42c-2 28 -3 46 -1 67c-69 -19 -83 82 -20 84h36c45 186 309 323 507 193c58 -38 0 -134 -60 -92c-76 52 -161 49 -236 0
c-38 -25 -67 -59 -86 -101c48 3 97 3 97 -42c0 -53 -67 -41 -120 -42c-2 -19 -1 -48 2 -67c53 0 118 11 118 -42z" />
    <glyph glyph-name="uni20B4" unicode="&#x20b4;" horiz-adv-x="600" 
d="M513 310c52 3 56 -85 0 -84h-331c-39 -115 111 -169 208 -116c26 13 46 31 61 55c33 54 124 -2 84 -58c-46 -64 -124 -114 -227 -114c-141 0 -261 85 -240 238c-45 20 -18 95 38 79c21 25 50 47 88 67c-59 5 -148 -20 -149 42c-1 22 20 43 42 42h305c21 16 31 37 31 64
c-1 107 -191 109 -234 32c-22 -39 -92 -18 -88 28c0 12 3 22 10 31c49 61 116 91 199 91c136 0 267 -104 213 -247c17 -4 32 -21 32 -41c0 -46 -52 -45 -101 -42c-34 -26 -106 -50 -160 -67h219z" />
    <glyph glyph-name="trademark" unicode="&#x2122;" horiz-adv-x="571" 
d="M236 700v-40h-62v-140h-47v140h-62v40h171zM506 700v-180h-45v83l-65 -83h-15l-65 83v-83h-45v180h23l94 -121l94 121h24z" />
    <glyph glyph-name="oneeighth" unicode="&#x215b;" horiz-adv-x="556" 
d="M100 701v-261h-37v221l-17 -11l-18 31c19 12 36 25 72 20zM503 700l-430 -700h-48l436 700h42zM391 143c-60 35 -21 127 48 120c70 8 109 -85 49 -120c81 -34 36 -155 -49 -145c-83 -9 -129 111 -48 145zM398 196c-2 -48 82 -53 82 0c0 24 -14 36 -41 36
c-24 1 -41 -14 -41 -36zM439 29c74 0 68 97 0 97c-28 0 -54 -21 -54 -49c0 -27 27 -48 54 -48z" />
    <glyph glyph-name="threeeighths" unicode="&#x215c;" horiz-adv-x="574" 
d="M32 615c-6 49 36 88 84 88c66 0 113 -83 50 -121c28 -12 42 -34 42 -66c0 -74 -111 -107 -160 -53c-17 19 -25 39 -23 64h38c-15 -68 106 -82 107 -11c0 37 -25 52 -74 45v31c42 2 63 16 63 43c1 36 -57 49 -78 21c-8 -11 -12 -24 -11 -41h-38zM523 700l-430 -700h-48
l436 700h42zM409 143c-60 35 -21 127 48 120c70 8 109 -85 49 -120c81 -34 36 -155 -49 -145c-83 -9 -129 111 -48 145zM416 196c-2 -48 82 -53 82 0c0 24 -14 36 -41 36c-24 1 -41 -14 -41 -36zM457 29c74 0 68 97 0 97c-28 0 -54 -21 -54 -49c0 -27 27 -48 54 -48z" />
    <glyph glyph-name="fiveeighths" unicode="&#x215d;" horiz-adv-x="576" 
d="M172 529c0 61 -80 81 -110 31l-32 8l18 133h138v-32h-104l-8 -58c64 33 136 -17 136 -82c0 -102 -159 -128 -185 -31l33 19c2 -27 26 -49 57 -49s57 29 57 61zM523 700l-430 -700h-48l436 700h42zM411 143c-60 35 -21 127 48 120c70 8 109 -85 49 -120
c81 -34 36 -155 -49 -145c-83 -9 -129 111 -48 145zM418 196c-2 -48 82 -53 82 0c0 24 -14 36 -41 36c-24 1 -41 -14 -41 -36zM459 29c74 0 68 97 0 97c-28 0 -54 -21 -54 -49c0 -27 27 -48 54 -48z" />
    <glyph glyph-name="seveneighths" unicode="&#x215e;" horiz-adv-x="556" 
d="M200 701l-102 -261h-39l89 229h-121v32h173zM503 700l-430 -700h-48l436 700h42zM391 143c-60 35 -21 127 48 120c70 8 109 -85 49 -120c81 -34 36 -155 -49 -145c-83 -9 -129 111 -48 145zM398 196c-2 -48 82 -53 82 0c0 24 -14 36 -41 36c-24 1 -41 -14 -41 -36z
M439 29c74 0 68 97 0 97c-28 0 -54 -21 -54 -49c0 -27 27 -48 54 -48z" />
    <glyph glyph-name="partialdiff" unicode="&#x2202;" horiz-adv-x="551" 
d="M156 628c-41 50 43 111 80 57c72 -106 153 -204 224 -313c30 -47 42 -89 46 -160c6 -118 -118 -222 -234 -222s-231 104 -231 222c0 120 127 247 255 224zM364 122c78 76 23 215 -91 215c-65 0 -127 -59 -127 -125c0 -108 139 -167 218 -90z" />
    <glyph glyph-name="product" unicode="&#x220f;" horiz-adv-x="708" 
d="M98 -196c-28 0 -54 25 -53 53v881c-1 35 27 63 62 62h494c35 1 63 -27 62 -62v-881c1 -28 -25 -53 -52 -53c-28 0 -54 25 -53 53v843h-408v-843c1 -28 -25 -53 -52 -53z" />
    <glyph glyph-name="summation" unicode="&#x2211;" horiz-adv-x="633" 
d="M588 -140c0 -27 -24 -51 -50 -50h-416c-55 -4 -98 53 -66 111l213 384l-213 384c-34 58 10 111 66 111h416c26 1 50 -23 50 -50s-24 -51 -50 -50h-368l205 -369c9 -17 9 -35 0 -52l-205 -369h368c26 1 50 -23 50 -50z" />
    <glyph glyph-name="minus" unicode="&#x2212;" horiz-adv-x="425" 
d="M45 277c0 25 23 46 48 45h251c40 3 67 -50 34 -77c-10 -9 -21 -13 -34 -13h-251c-25 -1 -48 20 -48 45z" />
    <glyph glyph-name="radical" unicode="&#x221a;" horiz-adv-x="767" 
d="M168 252c-64 -6 -122 2 -123 60c0 32 28 62 60 60c61 -4 130 16 150 -36l147 -381l218 812c6 38 67 54 91 19c9 -13 15 -28 10 -46l-235 -874c-10 -49 -80 -83 -128 -47c-14 10 -25 23 -31 38z" />
    <glyph glyph-name="infinity" unicode="&#x221e;" horiz-adv-x="840" 
d="M50 262c0 89 90 165 181 165c66 0 129 -31 189 -92c91 96 215 129 316 43c37 -31 54 -71 54 -116c0 -91 -88 -168 -180 -168c-67 0 -130 31 -190 93c-60 -62 -123 -93 -189 -93c-93 0 -181 77 -181 168zM152 262c0 -73 91 -105 148 -64c18 12 38 33 60 64
c-39 50 -56 77 -127 81c-44 2 -81 -39 -81 -81zM480 262c40 -51 54 -78 127 -82c69 -4 107 87 58 138c-30 31 -90 30 -125 8c-18 -12 -38 -33 -60 -64z" />
    <glyph glyph-name="integral" unicode="&#x222b;" horiz-adv-x="295" 
d="M20 -95c68 1 75 30 75 100v620c0 117 62 175 185 175v-95c-68 -1 -75 -30 -75 -100v-620c0 -117 -62 -175 -185 -175v95z" />
    <glyph glyph-name="approxequal" unicode="&#x2248;" horiz-adv-x="507" 
d="M343 277c-76 0 -191 141 -255 46c-10 -14 -51 -10 -41 15c9 56 52 94 118 94c78 0 187 -126 255 -42c17 10 45 2 39 -22c-13 -54 -51 -91 -116 -91zM165 272c78 0 187 -126 255 -42c17 10 45 2 39 -22c-13 -54 -51 -91 -116 -91c-76 0 -191 141 -255 46
c-10 -14 -51 -10 -41 15c9 56 52 94 118 94z" />
    <glyph glyph-name="notequal" unicode="&#x2260;" horiz-adv-x="438" 
d="M307 402c61 15 112 -34 71 -77c-21 -22 -67 -10 -106 -13l-27 -70c61 -3 148 17 148 -45c0 -71 -114 -37 -183 -45l-51 -130c-15 -55 -101 -21 -81 31l39 99c-40 -5 -72 11 -72 45c0 49 55 48 107 45l27 70c-58 2 -134 -14 -134 45c0 68 104 39 169 45l53 137
c6 34 61 36 77 7c8 -14 9 -25 4 -38z" />
    <glyph glyph-name="lessequal" unicode="&#x2264;" horiz-adv-x="423" 
d="M333 260c45 -18 12 -100 -35 -73l-215 125c-49 25 -48 97 0 125l216 127c43 26 78 -48 34 -73l-202 -116zM53 46c0 25 23 46 48 45h251c40 3 67 -50 34 -77c-10 -9 -21 -13 -34 -13h-251c-25 -1 -48 20 -48 45z" />
    <glyph glyph-name="greaterequal" unicode="&#x2265;" horiz-adv-x="434" 
d="M101 491c-45 20 -10 100 34 73l216 -127c49 -25 48 -97 0 -125l-215 -125c-43 -30 -79 48 -35 73l202 115zM82 1c-40 -3 -67 50 -34 77c10 9 21 13 34 13h251c25 1 48 -20 48 -45s-23 -46 -48 -45h-251z" />
    <glyph glyph-name="lozenge" unicode="&#x25ca;" horiz-adv-x="544" 
d="M169 639c15 51 104 93 165 49c19 -12 32 -29 41 -49l119 -268c6 -14 6 -28 0 -42l-119 -268c-18 -55 -107 -91 -165 -49c-19 12 -32 29 -41 49l-119 268c-6 14 -6 28 0 42zM272 81l119 269l-119 269l-119 -269z" />
    <glyph glyph-name="fi" unicode="&#xfb01;" horiz-adv-x="645" 
d="M80 520c-9 126 55 187 168 187c43 0 82 -13 119 -36c37 -22 18 -88 -26 -83c-32 4 -61 24 -93 24c-54 0 -59 -38 -58 -92c58 1 125 9 125 -47c0 -57 -67 -49 -125 -48v-376c1 -30 -25 -55 -55 -55s-56 25 -55 55v376c-53 -11 -86 45 -52 81c13 14 28 15 52 14zM484 689
c48 54 135 -29 80 -80c-48 -54 -135 29 -80 80zM468 467c-1 30 26 56 56 56s56 -26 56 -56v-417c1 -30 -26 -56 -56 -56s-56 26 -56 56v417z" />
    <glyph glyph-name="NULL" horiz-adv-x="0" 
 />
    <glyph glyph-name="i.loclTRK" horiz-adv-x="260" 
d="M90 741c48 54 135 -29 80 -80c-48 -54 -135 29 -80 80zM75 468c-1 28 27 55 55 55s55 -27 55 -55v-418c1 -28 -27 -55 -55 -55s-55 27 -55 55v418z" />
    <glyph glyph-name="t_t" horiz-adv-x="728" 
d="M611 87c39 8 85 2 84 -41c0 -36 -34 -54 -102 -54c-87 0 -125 42 -125 140v293h-253v-295c0 -29 11 -43 33 -43c40 8 84 2 84 -41c0 -36 -34 -54 -102 -54c-87 0 -125 42 -125 140v293c-44 -6 -76 11 -76 48c0 35 33 54 76 47c-8 54 10 96 55 96s63 -42 55 -96h253
c-7 54 9 96 55 96s62 -42 55 -96c55 2 115 6 115 -47c1 -53 -59 -51 -115 -48v-295c0 -29 11 -43 33 -43z" />
    <glyph glyph-name="zero.tf" horiz-adv-x="700" 
d="M63 339c0 211 107 368 292 368c186 0 292 -157 292 -368c0 -196 -113 -344 -292 -344c-178 0 -292 148 -292 344zM537 339c0 149 -44 273 -182 273s-182 -124 -182 -273c0 -129 55 -249 182 -249s182 120 182 249z" />
    <glyph glyph-name="one.tf" horiz-adv-x="700" 
d="M177 653c1 68 97 43 162 47c35 2 63 -27 62 -62v-588c1 -28 -27 -55 -55 -55s-55 27 -55 55v555c-56 -3 -115 -5 -114 48z" />
    <glyph glyph-name="two.tf" horiz-adv-x="700" 
d="M428 422c70 75 14 196 -86 188c-59 -5 -107 -34 -118 -88c-8 -40 -73 -57 -97 -18c-10 16 -13 31 -8 49c25 87 111 154 223 154c169 0 303 -191 184 -331c-84 -99 -183 -187 -272 -281h277c60 4 64 -95 0 -95h-322c-73 -7 -119 81 -63 137c95 93 191 188 282 285z" />
    <glyph glyph-name="three.tf" horiz-adv-x="700" 
d="M169 605c-60 -4 -65 95 0 95h313c58 6 110 -61 65 -115l-140 -168c91 -17 185 -93 185 -203c0 -186 -245 -286 -401 -182c-42 28 -69 65 -87 110c-25 66 85 106 103 33c13 -52 72 -90 133 -90c72 0 145 47 142 129c-3 88 -72 112 -148 129c-49 11 -48 61 -20 96l133 166
h-278z" />
    <glyph glyph-name="four.tf" horiz-adv-x="700" 
d="M437 -6c-84 0 -47 124 -55 202h-212c-64 -4 -96 56 -57 109l266 361c21 32 62 49 94 21c13 -11 19 -29 19 -50v-346c61 15 104 -38 67 -81c-15 -17 -38 -14 -67 -14c-8 -79 29 -202 -55 -202zM382 497l-147 -206h147v206z" />
    <glyph glyph-name="five.tf" horiz-adv-x="700" 
d="M451 231c0 128 -141 184 -236 117c-51 -36 -119 11 -112 68l29 232c3 29 28 52 59 52h262c25 1 48 -22 48 -47c0 -26 -22 -49 -48 -48h-221l-19 -157c163 76 348 -46 348 -217c0 -133 -113 -241 -244 -241c-89 0 -160 32 -211 97c-41 51 40 116 80 62
c32 -43 77 -65 131 -64c70 1 134 64 134 146z" />
    <glyph glyph-name="six.tf" horiz-adv-x="700" 
d="M350 -10c-135 2 -266 125 -228 281c25 103 90 171 143 245l121 169c33 54 119 -3 80 -57l-140 -192c128 23 255 -104 255 -224c0 -118 -115 -224 -231 -222zM476 212c0 66 -62 125 -127 125c-114 0 -170 -139 -91 -215s218 -18 218 90z" />
    <glyph glyph-name="seven.tf" horiz-adv-x="700" 
d="M138 653c0 25 23 47 48 47h361c51 4 92 -48 66 -103l-262 -572c-23 -63 -125 -20 -95 44l252 536h-322c-26 -1 -48 22 -48 48z" />
    <glyph glyph-name="eight.tf" horiz-adv-x="700" 
d="M346 707c164 0 256 -198 140 -311c61 -42 92 -103 92 -182c0 -122 -116 -221 -232 -221c-117 0 -233 98 -233 221c0 79 31 140 92 182c-117 112 -24 311 141 311zM406 462c51 53 12 147 -60 147c-46 0 -84 -42 -84 -87c0 -71 92 -115 144 -60zM267 303
c-72 -70 -25 -211 79 -211c62 0 116 57 116 122c0 104 -120 161 -195 89z" />
    <glyph glyph-name="nine.tf" horiz-adv-x="700" 
d="M119 487c0 118 115 224 231 222c135 -2 266 -125 228 -281c-25 -103 -90 -171 -143 -245l-121 -169c-33 -54 -119 3 -80 57l140 192c-128 -23 -255 104 -255 224zM224 487c0 -66 62 -125 127 -125c114 0 170 138 91 214s-218 19 -218 -89z" />
    <glyph glyph-name="zero.dnom" horiz-adv-x="260" 
d="M25 124c0 77 38 139 105 139c70 0 105 -62 105 -139c0 -69 -39 -127 -105 -126c-63 0 -105 58 -105 126zM198 124c0 59 -17 106 -68 108c-91 3 -93 -204 0 -203c47 1 68 43 68 95z" />
    <glyph glyph-name="one.dnom" horiz-adv-x="122" 
d="M97 261v-261h-37v221l-17 -11l-18 31c19 12 36 25 72 20z" />
    <glyph glyph-name="two.dnom" horiz-adv-x="221" 
d="M25 169c-6 56 34 94 84 95c61 2 109 -68 69 -122c-18 -25 -72 -80 -100 -110h118v-32h-168v32c38 41 92 86 120 130c21 32 -6 73 -39 71c-32 -1 -52 -26 -47 -64h-37z" />
    <glyph glyph-name="three.dnom" horiz-adv-x="233" 
d="M32 175c-10 73 85 115 140 67c34 -29 31 -76 -6 -100c28 -12 42 -34 42 -66c0 -74 -111 -107 -160 -53c-17 19 -25 39 -23 64h38c-15 -68 106 -82 107 -11c0 37 -25 52 -74 45v31c42 2 63 16 63 43c1 36 -57 49 -78 21c-8 -11 -12 -24 -11 -41h-38z" />
    <glyph glyph-name="four.dnom" horiz-adv-x="246" 
d="M194 261v-154h27v-31h-27v-76h-37v76h-132l132 185h37zM157 202l-65 -95h65v95z" />
    <glyph glyph-name="five.dnom" horiz-adv-x="235" 
d="M115 28c74 0 73 122 4 121c-23 0 -42 -10 -57 -29l-32 8l18 133h138v-32h-104l-8 -58c64 33 136 -17 136 -82c0 -102 -159 -128 -185 -31l33 19c2 -27 26 -49 57 -49z" />
    <glyph glyph-name="six.dnom" horiz-adv-x="223" 
d="M172 21c-71 -69 -195 24 -132 115c30 44 62 82 92 125h42l-68 -96c75 7 122 -89 66 -144zM161 81c0 44 -54 69 -85 38s-7 -91 36 -91c25 0 49 25 49 53z" />
    <glyph glyph-name="seven.dnom" horiz-adv-x="223" 
d="M198 261l-102 -261h-39l89 229h-121v32h173z" />
    <glyph glyph-name="eight.dnom" horiz-adv-x="233" 
d="M68 143c-60 35 -21 127 48 120c70 8 109 -85 49 -120c81 -34 36 -155 -49 -145c-83 -9 -129 111 -48 145zM75 196c-2 -48 83 -54 82 0c0 24 -14 36 -41 36c-24 1 -41 -14 -41 -36zM116 29c74 0 68 97 0 97c-28 0 -54 -21 -54 -49c0 -27 27 -48 54 -48z" />
    <glyph glyph-name="nine.dnom" horiz-adv-x="224" 
d="M25 180c0 45 43 84 87 84c61 0 112 -70 76 -130c-29 -47 -66 -88 -96 -134h-43l68 95c-49 -4 -92 40 -92 85zM78 142c32 -31 83 -9 83 38c0 27 -25 52 -49 52c-42 0 -66 -59 -34 -90z" />
    <glyph glyph-name="zero.numr" horiz-adv-x="260" 
d="M130 438c-143 0 -138 271 0 265c69 -3 105 -62 105 -139c0 -69 -39 -126 -105 -126zM198 564c0 59 -17 106 -68 108c-91 3 -93 -204 0 -203c47 1 68 43 68 95z" />
    <glyph glyph-name="one.numr" horiz-adv-x="122" 
d="M97 701v-261h-37v221l-17 -11l-18 31c19 12 36 25 72 20z" />
    <glyph glyph-name="two.numr" horiz-adv-x="221" 
d="M25 609c-6 56 34 94 84 95c61 2 109 -68 69 -122c-18 -25 -72 -80 -100 -110h118v-32h-168v32c38 41 92 86 120 130c21 32 -6 73 -39 71c-32 -1 -52 -26 -47 -64h-37z" />
    <glyph glyph-name="three.numr" horiz-adv-x="233" 
d="M32 615c-6 49 36 88 84 88c66 0 113 -83 50 -121c28 -12 42 -34 42 -66c0 -74 -111 -107 -160 -53c-17 19 -25 39 -23 64h38c-15 -68 106 -82 107 -11c0 37 -25 52 -74 45v31c42 2 63 16 63 43c1 36 -57 49 -78 21c-8 -11 -12 -24 -11 -41h-38z" />
    <glyph glyph-name="four.numr" horiz-adv-x="246" 
d="M194 701v-154h27v-31h-27v-76h-37v76h-132l132 185h37zM157 642l-65 -95h65v95z" />
    <glyph glyph-name="five.numr" horiz-adv-x="235" 
d="M172 529c0 61 -80 81 -110 31l-32 8l18 133h138v-32h-104l-8 -58c64 33 136 -17 136 -82c0 -102 -159 -128 -185 -31l33 19c2 -27 26 -49 57 -49s57 29 57 61z" />
    <glyph glyph-name="six.numr" horiz-adv-x="223" 
d="M172 461c-71 -69 -195 24 -132 115c30 44 62 82 92 125h42l-68 -96c75 7 122 -89 66 -144zM161 521c0 44 -54 69 -85 38s-7 -91 36 -91c25 0 49 25 49 53z" />
    <glyph glyph-name="seven.numr" horiz-adv-x="223" 
d="M198 701l-102 -261h-39l89 229h-121v32h173z" />
    <glyph glyph-name="eight.numr" horiz-adv-x="233" 
d="M68 583c-60 35 -21 127 48 120c70 8 109 -85 49 -120c81 -34 36 -155 -49 -145c-83 -9 -129 111 -48 145zM75 636c-2 -48 83 -54 82 0c0 24 -14 36 -41 36c-24 1 -41 -14 -41 -36zM170 517c0 66 -108 63 -108 0c0 -27 27 -48 54 -48c30 0 54 18 54 48z" />
    <glyph glyph-name="nine.numr" horiz-adv-x="224" 
d="M25 620c0 45 43 84 87 84c61 0 112 -70 76 -130c-29 -47 -66 -88 -96 -134h-43l68 95c-49 -4 -92 40 -92 85zM78 582c32 -31 83 -9 83 38c0 27 -25 52 -49 52c-42 0 -66 -59 -34 -90z" />
    </font>
</defs>
</svg>
